<?xml version="1.0" encoding="UTF-8" standalone="no"?>
<svg
   xmlns:dc="http://purl.org/dc/elements/1.1/"
   xmlns:cc="http://creativecommons.org/ns#"
   xmlns:rdf="http://www.w3.org/1999/02/22-rdf-syntax-ns#"
   xmlns:svg="http://www.w3.org/2000/svg"
   xmlns="http://www.w3.org/2000/svg"
   version="1.1"
   id="svg2"
   xml:space="preserve"
   width="332"
   height="270"
   viewBox="0 0 166.5 136.908"><metadata
     id="metadata8"><rdf:RDF><cc:Work
         rdf:about=""><dc:format>image/svg+xml</dc:format><dc:type
           rdf:resource="http://purl.org/dc/dcmitype/StillImage" /><dc:title></dc:title></cc:Work></rdf:RDF></metadata>
  <style type="text/css"><![CDATA[
      path.arrow {
        stroke:#333 !important;
        fill:#333 !important;
      }
      @media (prefers-color-scheme: dark) {
         path.arrow {
            stroke:#c0c0c0 !important;
            fill:#c0c0c0 !important;
         }
      }
    ]]></style>
    <defs
     id="defs6" /><g
     id="g10"
     transform="matrix(1.3333333,0,0,-1.3333333,0,136.908)"><g
       id="g12"
       transform="translate(15.143,81.228)"><g
         id="g14"><g
           id="g16"><g
             id="g18"><g
               id="g20"><path
                 d="m 11.95532,21.25354 h -23.91064 c -1.6507,0 -2.98883,-1.33812 -2.98883,-2.98883 v -36.52942 c 0,-1.65071 1.33813,-2.98883 2.98883,-2.98883 h 23.91064 c 1.6507,0 2.98883,1.33812 2.98883,2.98883 v 36.52942 c 0,1.65071 -1.33813,2.98883 -2.98883,2.98883 z"
                 style="fill:#ffffff;fill-opacity:1;fill-rule:nonzero;stroke:#000000;stroke-width:0.3985;stroke-linecap:butt;stroke-linejoin:miter;stroke-miterlimit:10;stroke-dasharray:none;stroke-opacity:1"
                 id="path22" /></g><g
               id="g24"
               transform="translate(-10.959,9.963)"><g
                 id="g26"><g
                   id="g28"
                   transform="translate(-4.184,-91.191)"><text
                     transform="matrix(1,0,0,-1,4.184,91.191)"
                     style="font-variant:normal;font-weight:normal;font-size:9.9626px;font-family:CMR10;-inkscape-font-specification:CMR10;writing-mode:lr-tb;fill:#000000;fill-opacity:1;fill-rule:nonzero;stroke:none"
                     id="text32"><tspan
                       x="0"
                       y="0"
                       id="tspan30">7</tspan></text><text
                     transform="matrix(1,0,0,-1,9.166,89.697)"
                     style="font-variant:normal;font-weight:normal;font-size:6.9738px;font-family:CMR7;-inkscape-font-specification:CMR7;writing-mode:lr-tb;fill:#000000;fill-opacity:1;fill-rule:nonzero;stroke:none"
                     id="text36"><tspan
                       x="0"
                       y="0"
                       id="tspan34">0</tspan></text><g
                     id="g38"
                     transform="translate(4.184,91.191)" /></g></g><g
                 id="g40"
                 transform="translate(10.959,-9.963)" /></g></g><g
             id="g42"><g
               id="g44"><path
                 d="M 59.25037,21.25354 H 35.33972 c -1.65069,0 -2.98883,-1.33812 -2.98883,-2.98883 v -36.52942 c 0,-1.65071 1.33814,-2.98883 2.98883,-2.98883 h 23.91065 c 1.65071,0 2.98883,1.33812 2.98883,2.98883 v 36.52942 c 0,1.65071 -1.33812,2.98883 -2.98883,2.98883 z"
                 style="fill:#ffffff;fill-opacity:1;fill-rule:nonzero;stroke:#000000;stroke-width:0.3985;stroke-linecap:butt;stroke-linejoin:miter;stroke-miterlimit:10;stroke-dasharray:none;stroke-opacity:1"
                 id="path46" /></g><g
               id="g48"
               transform="translate(36.336,9.963)"><g
                 id="g50"><g
                   id="g52"
                   transform="translate(-51.479,-91.191)"><text
                     transform="matrix(1,0,0,-1,51.479,91.191)"
                     style="font-variant:normal;font-weight:normal;font-size:9.9626px;font-family:CMR10;-inkscape-font-specification:CMR10;writing-mode:lr-tb;fill:#000000;fill-opacity:1;fill-rule:nonzero;stroke:none"
                     id="text56"><tspan
                       x="0"
                       y="0"
                       id="tspan54">9</tspan></text><text
                     transform="matrix(1,0,0,-1,56.46,89.697)"
                     style="font-variant:normal;font-weight:normal;font-size:6.9738px;font-family:CMR7;-inkscape-font-specification:CMR7;writing-mode:lr-tb;fill:#000000;fill-opacity:1;fill-rule:nonzero;stroke:none"
                     id="text60"><tspan
                       x="0"
                       y="0"
                       id="tspan58">0</tspan></text><g
                     id="g62"
                     transform="translate(51.479,91.191)" /></g></g><g
                 id="g64"
                 transform="translate(-36.336,-9.963)" /></g></g><g
             id="g66"><g
               id="g68"><path
                 d="M 106.54543,21.25354 H 82.63478 c -1.65069,0 -2.98883,-1.33812 -2.98883,-2.98883 v -36.52942 c 0,-1.65071 1.33814,-2.98883 2.98883,-2.98883 h 23.91065 c 1.65071,0 2.98883,1.33812 2.98883,2.98883 v 36.52942 c 0,1.65071 -1.33812,2.98883 -2.98883,2.98883 z"
                 style="fill:#ffffff;fill-opacity:1;fill-rule:nonzero;stroke:#000000;stroke-width:0.3985;stroke-linecap:butt;stroke-linejoin:miter;stroke-miterlimit:10;stroke-dasharray:none;stroke-opacity:1"
                 id="path70" /></g><g
               id="g72"
               transform="translate(83.63,9.963)"><g
                 id="g74"><g
                   id="g76"
                   transform="translate(-98.773,-91.191)"><text
                     transform="matrix(1,0,0,-1,98.773,91.191)"
                     style="font-variant:normal;font-weight:normal;font-size:9.9626px;font-family:CMR10;-inkscape-font-specification:CMR10;writing-mode:lr-tb;fill:#000000;fill-opacity:1;fill-rule:nonzero;stroke:none"
                     id="text80"><tspan
                       x="0"
                       y="0"
                       id="tspan78">8</tspan></text><text
                     transform="matrix(1,0,0,-1,103.755,89.697)"
                     style="font-variant:normal;font-weight:normal;font-size:6.9738px;font-family:CMR7;-inkscape-font-specification:CMR7;writing-mode:lr-tb;fill:#000000;fill-opacity:1;fill-rule:nonzero;stroke:none"
                     id="text84"><tspan
                       x="0"
                       y="0"
                       id="tspan82">1</tspan></text><g
                     id="g86"
                     transform="translate(98.773,91.191)" /></g></g><g
                 id="g88"
                 transform="translate(-83.63,-9.963)" /></g></g><g
             id="g90"><g
               id="g92"><path
                 d="m 11.95532,1.328 h -23.91064 c -1.6507,0 -2.98883,-1.3381 -2.98883,-2.98881 v -36.52944 c 0,-1.65071 1.33813,-2.98883 2.98883,-2.98883 h 23.91064 c 1.6507,0 2.98883,1.33812 2.98883,2.98883 v 36.52944 c 0,1.65071 -1.33813,2.98881 -2.98883,2.98881 z"
                 style="fill:#ffffff;fill-opacity:1;fill-rule:nonzero;stroke:#000000;stroke-width:0.3985;stroke-linecap:butt;stroke-linejoin:miter;stroke-miterlimit:10;stroke-dasharray:none;stroke-opacity:1"
                 id="path94" /></g><g
               id="g96"
               transform="translate(-10.959,-9.962)"><g
                 id="g98"><g
                   id="g100"
                   transform="translate(-4.184,-71.266)"><text
                     transform="matrix(1,0,0,-1,4.184,71.266)"
                     style="font-variant:normal;font-weight:normal;font-size:9.9626px;font-family:CMR10;-inkscape-font-specification:CMR10;writing-mode:lr-tb;fill:#000000;fill-opacity:1;fill-rule:nonzero;stroke:none"
                     id="text104"><tspan
                       x="0"
                       y="0"
                       id="tspan102">4</tspan></text><text
                     transform="matrix(1,0,0,-1,9.166,69.771)"
                     style="font-variant:normal;font-weight:normal;font-size:6.9738px;font-family:CMR7;-inkscape-font-specification:CMR7;writing-mode:lr-tb;fill:#000000;fill-opacity:1;fill-rule:nonzero;stroke:none"
                     id="text108"><tspan
                       x="0"
                       y="0"
                       id="tspan106">1</tspan></text><g
                     id="g110"
                     transform="translate(4.184,71.266)" /></g></g><g
                 id="g112"
                 transform="translate(10.959,9.962)" /></g></g><g
             id="g114"><g
               id="g116"><path
                 d="M 59.25037,1.328 H 35.33972 c -1.65069,0 -2.98883,-1.3381 -2.98883,-2.98881 v -36.52944 c 0,-1.65071 1.33814,-2.98883 2.98883,-2.98883 h 23.91065 c 1.65071,0 2.98883,1.33812 2.98883,2.98883 v 36.52944 c 0,1.65071 -1.33812,2.98881 -2.98883,2.98881 z"
                 style="fill:#ffffff;fill-opacity:1;fill-rule:nonzero;stroke:#000000;stroke-width:0.3985;stroke-linecap:butt;stroke-linejoin:miter;stroke-miterlimit:10;stroke-dasharray:none;stroke-opacity:1"
                 id="path118" /></g><g
               id="g120"
               transform="translate(36.336,-9.962)"><g
                 id="g122"><g
                   id="g124"
                   transform="translate(-51.479,-71.266)"><text
                     transform="matrix(1,0,0,-1,51.479,71.266)"
                     style="font-variant:normal;font-weight:normal;font-size:9.9626px;font-family:CMR10;-inkscape-font-specification:CMR10;writing-mode:lr-tb;fill:#000000;fill-opacity:1;fill-rule:nonzero;stroke:none"
                     id="text128"><tspan
                       x="0"
                       y="0"
                       id="tspan126">6</tspan></text><text
                     transform="matrix(1,0,0,-1,56.46,69.771)"
                     style="font-variant:normal;font-weight:normal;font-size:6.9738px;font-family:CMR7;-inkscape-font-specification:CMR7;writing-mode:lr-tb;fill:#000000;fill-opacity:1;fill-rule:nonzero;stroke:none"
                     id="text132"><tspan
                       x="0"
                       y="0"
                       id="tspan130">1</tspan></text><g
                     id="g134"
                     transform="translate(51.479,71.266)" /></g></g><g
                 id="g136"
                 transform="translate(-36.336,9.962)" /></g></g><g
             id="g138"><g
               id="g140"><path
                 d="M 106.54543,1.328 H 82.63478 c -1.65069,0 -2.98883,-1.3381 -2.98883,-2.98881 v -36.52944 c 0,-1.65071 1.33814,-2.98883 2.98883,-2.98883 h 23.91065 c 1.65071,0 2.98883,1.33812 2.98883,2.98883 v 36.52944 c 0,1.65071 -1.33812,2.98881 -2.98883,2.98881 z"
                 style="fill:#ffffff;fill-opacity:1;fill-rule:nonzero;stroke:#000000;stroke-width:0.3985;stroke-linecap:butt;stroke-linejoin:miter;stroke-miterlimit:10;stroke-dasharray:none;stroke-opacity:1"
                 id="path142" /></g><g
               id="g144"
               transform="translate(83.63,-9.962)"><g
                 id="g146"><g
                   id="g148"
                   transform="translate(-98.773,-71.266)"><text
                     transform="matrix(1,0,0,-1,98.773,71.266)"
                     style="font-variant:normal;font-weight:normal;font-size:9.9626px;font-family:CMR10;-inkscape-font-specification:CMR10;writing-mode:lr-tb;fill:#000000;fill-opacity:1;fill-rule:nonzero;stroke:none"
                     id="text152"><tspan
                       x="0"
                       y="0"
                       id="tspan150">5</tspan></text><text
                     transform="matrix(1,0,0,-1,103.754,69.771)"
                     style="font-variant:normal;font-weight:normal;font-size:6.9738px;font-family:CMR7;-inkscape-font-specification:CMR7;writing-mode:lr-tb;fill:#000000;fill-opacity:1;fill-rule:nonzero;stroke:none"
                     id="text156"><tspan
                       x="0"
                       y="0"
                       id="tspan154">1</tspan></text><g
                     id="g158"
                     transform="translate(98.773,71.266)" /></g></g><g
                 id="g160"
                 transform="translate(-83.63,9.962)" /></g></g><g
             id="g162"><g
               id="g164"><path
                 d="m 11.95532,-18.59752 h -23.91064 c -1.6507,0 -2.98883,-1.33812 -2.98883,-2.98883 v -36.52943 c 0,-1.65072 1.33813,-2.98883 2.98883,-2.98883 h 23.91064 c 1.6507,0 2.98883,1.33811 2.98883,2.98883 v 36.52943 c 0,1.65071 -1.33813,2.98883 -2.98883,2.98883 z"
                 style="fill:#ffffff;fill-opacity:1;fill-rule:nonzero;stroke:#000000;stroke-width:0.3985;stroke-linecap:butt;stroke-linejoin:miter;stroke-miterlimit:10;stroke-dasharray:none;stroke-opacity:1"
                 id="path166" /></g><g
               id="g168"
               transform="translate(-10.959,-29.888)"><g
                 id="g170"><g
                   id="g172"
                   transform="translate(-4.184,-51.34)"><text
                     transform="matrix(1,0,0,-1,4.184,51.34)"
                     style="font-variant:normal;font-weight:normal;font-size:9.9626px;font-family:CMR10;-inkscape-font-specification:CMR10;writing-mode:lr-tb;fill:#000000;fill-opacity:1;fill-rule:nonzero;stroke:none"
                     id="text176"><tspan
                       x="0"
                       y="0"
                       id="tspan174">1</tspan></text><text
                     transform="matrix(1,0,0,-1,9.166,49.846)"
                     style="font-variant:normal;font-weight:normal;font-size:6.9738px;font-family:CMR7;-inkscape-font-specification:CMR7;writing-mode:lr-tb;fill:#000000;fill-opacity:1;fill-rule:nonzero;stroke:none"
                     id="text180"><tspan
                       x="0"
                       y="0"
                       id="tspan178">3</tspan></text><g
                     id="g182"
                     transform="translate(4.184,51.34)" /></g></g><g
                 id="g184"
                 transform="translate(10.959,29.888)" /></g></g><g
             id="g186"><g
               id="g188"><path
                 d="M 59.25037,-18.59752 H 35.33972 c -1.65069,0 -2.98883,-1.33812 -2.98883,-2.98883 v -36.52943 c 0,-1.65072 1.33814,-2.98883 2.98883,-2.98883 h 23.91065 c 1.65071,0 2.98883,1.33811 2.98883,2.98883 v 36.52943 c 0,1.65071 -1.33812,2.98883 -2.98883,2.98883 z"
                 style="fill:#ffffff;fill-opacity:1;fill-rule:nonzero;stroke:#000000;stroke-width:0.3985;stroke-linecap:butt;stroke-linejoin:miter;stroke-miterlimit:10;stroke-dasharray:none;stroke-opacity:1"
                 id="path190" /></g><g
               id="g192"
               transform="translate(36.336,-29.888)"><g
                 id="g194"><g
                   id="g196"
                   transform="translate(-51.479,-51.34)"><text
                     transform="matrix(1,0,0,-1,51.479,51.34)"
                     style="font-variant:normal;font-weight:normal;font-size:9.9626px;font-family:CMR10;-inkscape-font-specification:CMR10;writing-mode:lr-tb;fill:#000000;fill-opacity:1;fill-rule:nonzero;stroke:none"
                     id="text200"><tspan
                       x="0"
                       y="0"
                       id="tspan198">3</tspan></text><text
                     transform="matrix(1,0,0,-1,56.46,49.846)"
                     style="font-variant:normal;font-weight:normal;font-size:6.9738px;font-family:CMR7;-inkscape-font-specification:CMR7;writing-mode:lr-tb;fill:#000000;fill-opacity:1;fill-rule:nonzero;stroke:none"
                     id="text204"><tspan
                       x="0"
                       y="0"
                       id="tspan202">2</tspan></text><g
                     id="g206"
                     transform="translate(51.479,51.34)" /></g></g><g
                 id="g208"
                 transform="translate(-36.336,29.888)" /></g></g><g
             id="g210"><g
               id="g212"><path
                 d="m 11.95532,-38.52306 h -23.91064 c -1.6507,0 -2.98883,-1.33812 -2.98883,-2.98883 v -36.52943 c 0,-1.65071 1.33813,-2.98883 2.98883,-2.98883 h 23.91064 c 1.6507,0 2.98883,1.33812 2.98883,2.98883 v 36.52943 c 0,1.65071 -1.33813,2.98883 -2.98883,2.98883 z"
                 style="fill:#ffffff;fill-opacity:1;fill-rule:nonzero;stroke:#000000;stroke-width:0.3985;stroke-linecap:butt;stroke-linejoin:miter;stroke-miterlimit:10;stroke-dasharray:none;stroke-opacity:1"
                 id="path214" /></g><g
               id="g216"
               transform="translate(-10.959,-49.813)"><g
                 id="g218"><g
                   id="g220"
                   transform="translate(-4.184,-31.415)"><text
                     transform="matrix(1,0,0,-1,4.184,31.415)"
                     style="font-variant:normal;font-weight:normal;font-size:9.9626px;font-family:CMR10;-inkscape-font-specification:CMR10;writing-mode:lr-tb;fill:#000000;fill-opacity:1;fill-rule:nonzero;stroke:none"
                     id="text224"><tspan
                       x="0"
                       y="0"
                       id="tspan222">0</tspan></text><text
                     transform="matrix(1,0,0,-1,9.166,29.921)"
                     style="font-variant:normal;font-weight:normal;font-size:6.9738px;font-family:CMR7;-inkscape-font-specification:CMR7;writing-mode:lr-tb;fill:#000000;fill-opacity:1;fill-rule:nonzero;stroke:none"
                     id="text228"><tspan
                       x="0"
                       y="0"
                       id="tspan226">3</tspan></text><g
                     id="g230"
                     transform="translate(4.184,31.415)" /></g></g><g
                 id="g232"
                 transform="translate(10.959,49.813)" /></g></g><g
             id="g234"><g
               id="g236"><path
                 d="M 59.25037,-38.52306 H 35.33972 c -1.65069,0 -2.98883,-1.33812 -2.98883,-2.98883 v -36.52943 c 0,-1.65071 1.33814,-2.98883 2.98883,-2.98883 h 23.91065 c 1.65071,0 2.98883,1.33812 2.98883,2.98883 v 36.52943 c 0,1.65071 -1.33812,2.98883 -2.98883,2.98883 z"
                 style="fill:#ffffff;fill-opacity:1;fill-rule:nonzero;stroke:#000000;stroke-width:0.3985;stroke-linecap:butt;stroke-linejoin:miter;stroke-miterlimit:10;stroke-dasharray:none;stroke-opacity:1"
                 id="path238" /></g><g
               id="g240"
               transform="translate(36.336,-49.813)"><g
                 id="g242"><g
                   id="g244"
                   transform="translate(-51.479,-31.415)"><text
                     transform="matrix(1,0,0,-1,51.479,31.415)"
                     style="font-variant:normal;font-weight:normal;font-size:9.9626px;font-family:CMR10;-inkscape-font-specification:CMR10;writing-mode:lr-tb;fill:#000000;fill-opacity:1;fill-rule:nonzero;stroke:none"
                     id="text248"><tspan
                       x="0"
                       y="0"
                       id="tspan246">2</tspan></text><text
                     transform="matrix(1,0,0,-1,56.46,29.921)"
                     style="font-variant:normal;font-weight:normal;font-size:6.9738px;font-family:CMR7;-inkscape-font-specification:CMR7;writing-mode:lr-tb;fill:#000000;fill-opacity:1;fill-rule:nonzero;stroke:none"
                     id="text252"><tspan
                       x="0"
                       y="0"
                       id="tspan250">0</tspan></text><g
                     id="g254"
                     transform="translate(51.479,31.415)" /></g></g><g
                 id="g256"
                 transform="translate(-36.336,49.813)" /></g></g><path
             class="arrow"
             d="M 32.15164,5.5117 H 18.72993"
             style="fill:none;stroke:#000000;stroke-width:0.3985;stroke-linecap:butt;stroke-linejoin:miter;stroke-miterlimit:10;stroke-dasharray:none;stroke-opacity:1"
             id="path258" /><g
             id="g260"
             transform="rotate(180,9.364965,2.75585)"><g
               id="g262"><path
               class="arrow"
                 d="M 3.58653,0 C 2.52383,0.19925 0.797,0.797 -0.3985,1.49438 V -1.49438 C 0.797,-0.797 2.52383,-0.19925 3.58653,0"
                 style="fill:#000000;fill-opacity:1;fill-rule:nonzero;stroke:none"
                 id="path264" /></g></g><path
             class="arrow"
             d="M 32.15164,-14.41382 H 18.72993"
             style="fill:none;stroke:#000000;stroke-width:0.3985;stroke-linecap:butt;stroke-linejoin:miter;stroke-miterlimit:10;stroke-dasharray:none;stroke-opacity:1"
             id="path266" /><g
             id="g268"
             transform="rotate(180,9.364965,-7.20691)"><g
               id="g270"><path
                 class="arrow"
                 d="M 3.58653,0 C 2.52383,0.19925 0.797,0.797 -0.3985,1.49438 V -1.49438 C 0.797,-0.797 2.52383,-0.19925 3.58653,0"
                 style="fill:#000000;fill-opacity:1;fill-rule:nonzero;stroke:none"
                 id="path272" /></g></g><path
             class="arrow"
             d="M 32.15164,-14.41382 17.47177,-31.61163"
             style="fill:none;stroke:#000000;stroke-width:0.3985;stroke-linecap:butt;stroke-linejoin:miter;stroke-miterlimit:10;stroke-dasharray:none;stroke-opacity:1"
             id="path274" /><g
             id="g276"
             transform="matrix(-0.6492,-0.76054,0.76054,-0.6492,17.47177,-31.61163)"><g
               id="g278"><path class="arrow"
                 d="M 3.58653,0 C 2.52383,0.19925 0.797,0.797 -0.3985,1.49438 V -1.49438 C 0.797,-0.797 2.52383,-0.19925 3.58653,0"
                 style="fill:#000000;fill-opacity:1;fill-rule:nonzero;stroke:none"
                 id="path280" /></g></g><path class="arrow"
             d="M 32.15164,-14.41382 16.63095,-48.46147"
             style="fill:none;stroke:#000000;stroke-width:0.3985;stroke-linecap:butt;stroke-linejoin:miter;stroke-miterlimit:10;stroke-dasharray:none;stroke-opacity:1"
             id="path282" /><g
             id="g284"
             transform="matrix(-0.41476,-0.90987,0.90987,-0.41476,16.63097,-48.46147)"><g
               id="g286"><path class="arrow"
                 d="M 3.58653,0 C 2.52383,0.19925 0.797,0.797 -0.3985,1.49438 V -1.49438 C 0.797,-0.797 2.52383,-0.19925 3.58653,0"
                 style="fill:#000000;fill-opacity:1;fill-rule:nonzero;stroke:none"
                 id="path288" /></g></g><path class="arrow"
             d="M 32.15164,-34.33936 H 18.72993"
             style="fill:none;stroke:#000000;stroke-width:0.3985;stroke-linecap:butt;stroke-linejoin:miter;stroke-miterlimit:10;stroke-dasharray:none;stroke-opacity:1"
             id="path290" /><g
             id="g292"
             transform="rotate(180,9.364965,-17.16968)"><g
               id="g294"><path class="arrow"
                 d="M 3.58653,0 C 2.52383,0.19925 0.797,0.797 -0.3985,1.49438 V -1.49438 C 0.797,-0.797 2.52383,-0.19925 3.58653,0"
                 style="fill:#000000;fill-opacity:1;fill-rule:nonzero;stroke:none"
                 id="path296" /></g></g><path class="arrow"
             d="M 32.15164,-34.33936 17.47177,-51.53717"
             style="fill:none;stroke:#000000;stroke-width:0.3985;stroke-linecap:butt;stroke-linejoin:miter;stroke-miterlimit:10;stroke-dasharray:none;stroke-opacity:1"
             id="path298" /><g
             id="g300"
             transform="matrix(-0.6492,-0.76054,0.76054,-0.6492,17.47177,-51.53717)"><g
               id="g302"><path class="arrow"
                 d="M 3.58653,0 C 2.52383,0.19925 0.797,0.797 -0.3985,1.49438 V -1.49438 C 0.797,-0.797 2.52383,-0.19925 3.58653,0"
                 style="fill:#000000;fill-opacity:1;fill-rule:nonzero;stroke:none"
                 id="path304" /></g></g><path class="arrow"
             d="M 32.15164,-54.2649 17.47177,-37.06708"
             style="fill:none;stroke:#000000;stroke-width:0.3985;stroke-linecap:butt;stroke-linejoin:miter;stroke-miterlimit:10;stroke-dasharray:none;stroke-opacity:1"
             id="path306" /><g
             id="g308"
             transform="matrix(-0.6492,0.76054,-0.76054,-0.6492,17.47177,-37.06708)"><g
               id="g310"><path class="arrow"
                 d="M 3.58653,0 C 2.52383,0.19925 0.797,0.797 -0.3985,1.49438 V -1.49438 C 0.797,-0.797 2.52383,-0.19925 3.58653,0"
                 style="fill:#000000;fill-opacity:1;fill-rule:nonzero;stroke:none"
                 id="path312" /></g></g><path class="arrow"
             d="M 32.15164,-54.2649 H 18.72993"
             style="fill:none;stroke:#000000;stroke-width:0.3985;stroke-linecap:butt;stroke-linejoin:miter;stroke-miterlimit:10;stroke-dasharray:none;stroke-opacity:1"
             id="path314" /><g
             id="g316"
             transform="rotate(180,9.364965,-27.13245)"><g
               id="g318"><path class="arrow"
                 d="M 3.58653,0 C 2.52383,0.19925 0.797,0.797 -0.3985,1.49438 V -1.49438 C 0.797,-0.797 2.52383,-0.19925 3.58653,0"
                 style="fill:#000000;fill-opacity:1;fill-rule:nonzero;stroke:none"
                 id="path320" /></g></g><path class="arrow"
             d="M 79.4467,5.5117 64.76683,-11.6861"
             style="fill:none;stroke:#000000;stroke-width:0.3985;stroke-linecap:butt;stroke-linejoin:miter;stroke-miterlimit:10;stroke-dasharray:none;stroke-opacity:1"
             id="path322" /><g
             id="g324"
             transform="matrix(-0.6492,-0.76054,0.76054,-0.6492,64.76683,-11.6861)"><g
               id="g326"><path class="arrow"
                 d="M 3.58653,0 C 2.52383,0.19925 0.797,0.797 -0.3985,1.49438 V -1.49438 C 0.797,-0.797 2.52383,-0.19925 3.58653,0"
                 style="fill:#000000;fill-opacity:1;fill-rule:nonzero;stroke:none"
                 id="path328" /></g></g><path class="arrow"
             d="M 79.4467,5.5117 63.92601,-28.53593"
             style="fill:none;stroke:#000000;stroke-width:0.3985;stroke-linecap:butt;stroke-linejoin:miter;stroke-miterlimit:10;stroke-dasharray:none;stroke-opacity:1"
             id="path330" /><g
             id="g332"
             transform="matrix(-0.41476,-0.90987,0.90987,-0.41476,63.92603,-28.53593)"><g
               id="g334"><path class="arrow"
                 d="M 3.58653,0 C 2.52383,0.19925 0.797,0.797 -0.3985,1.49438 V -1.49438 C 0.797,-0.797 2.52383,-0.19925 3.58653,0"
                 style="fill:#000000;fill-opacity:1;fill-rule:nonzero;stroke:none"
                 id="path336" /></g></g><path class="arrow"
             d="M 79.4467,-14.41382 64.76683,-31.61163"
             style="fill:none;stroke:#000000;stroke-width:0.3985;stroke-linecap:butt;stroke-linejoin:miter;stroke-miterlimit:10;stroke-dasharray:none;stroke-opacity:1"
             id="path338" /><g
             id="g340"
             transform="matrix(-0.6492,-0.76054,0.76054,-0.6492,64.76683,-31.61163)"><g
               id="g342"><path class="arrow"
                 d="M 3.58653,0 C 2.52383,0.19925 0.797,0.797 -0.3985,1.49438 V -1.49438 C 0.797,-0.797 2.52383,-0.19925 3.58653,0"
                 style="fill:#000000;fill-opacity:1;fill-rule:nonzero;stroke:none"
                 id="path344" /></g></g></g></g></g></g></svg>
