<svg xmlns="http://www.w3.org/2000/svg" id="export" class="canvas" preserveAspectRatio="xMidYMid meet" style="width: 1024px; height: 164px;" width="1024" height="164"><rect id="background" fill="#fff" pointer-events="all" width="1024" height="164"/><g id="origin" transform="translate(7.423249816894532, 7.423249816894532) scale(1)"><g id="clusters" class="clusters"/><g id="edge-paths" class="edge-paths"><defs><marker id="arrowhead-vee" viewBox="0 0 10 10" refX="9" refY="5" markerUnits="strokeWidth" markerWidth="8" markerHeight="6" orient="auto" style="fill: rgb(0, 0, 0);"><path d="M 0 0 L 10 5 L 0 10 L 4 5 z" style="stroke-width: 1px;"/></marker><marker id="arrowhead-vee-select" viewBox="0 0 10 10" refX="9" refY="5" markerUnits="strokeWidth" markerWidth="8" markerHeight="6" orient="auto" style="fill: rgb(238, 0, 0);"><path d="M 0 0 L 10 5 L 0 10 L 4 5 z" style="stroke-width: 1px;"/></marker></defs><path id="edge-input_1" class="edge-path" d="M51.92799758911133,79.32624816894531L53.59466425577799,79.32624816894531C55.261330922444664,79.32624816894531,58.59466425577799,79.32624816894531,64.81799761454265,79.32624816894531C71.0413309733073,79.32624816894531,80.15466435750325,79.32624816894531,89.26799774169922,79.32624816894531C98.38133112589519,79.32624816894531,107.49466451009114,79.32624816894531,113.71799786885579,79.32624816894531C119.94133122762044,79.32624816894531,123.27466456095378,79.32624816894531,124.94133122762044,79.32624816894531L126.60799789428711,79.32624816894531" style="stroke: rgb(0, 0, 0); stroke-width: 1px; fill: none; marker-end: url(&quot;#arrowhead-vee&quot;);"/><path id="edge-conv2d" class="edge-path" d="M224.55800247192383,79.32624816894531L226.22466913859049,79.32624816894531C227.89133580525717,79.32624816894531,231.22466913859049,79.32624816894531,234.55800247192383,79.32624816894531C237.89133580525717,79.32624816894531,241.22466913859049,79.32624816894531,242.89133580525717,79.32624816894531L244.55800247192383,79.32624816894531" style="stroke: rgb(0, 0, 0); stroke-width: 1px; fill: none; marker-end: url(&quot;#arrowhead-vee&quot;);"/><path id="edge-conv2d_1" class="edge-path" d="M347.5840034484863,79.32624816894531L349.250670115153,79.32624816894531C350.91733678181964,79.32624816894531,354.250670115153,79.32624816894531,357.5840034484863,79.32624816894531C360.91733678181964,79.32624816894531,364.250670115153,79.32624816894531,365.91733678181964,79.32624816894531L367.5840034484863,79.32624816894531" style="stroke: rgb(0, 0, 0); stroke-width: 1px; fill: none; marker-end: url(&quot;#arrowhead-vee&quot;);"/><path id="edge-conv2d_2" class="edge-path" d="M470.6100044250488,79.32624816894531L472.2766710917155,79.32624816894531C473.94333775838214,79.32624816894531,477.2766710917155,79.32624816894531,480.6100044250488,79.32624816894531C483.94333775838214,79.32624816894531,487.2766710917155,79.32624816894531,488.94333775838214,79.32624816894531L490.6100044250488,79.32624816894531" style="stroke: rgb(0, 0, 0); stroke-width: 1px; fill: none; marker-end: url(&quot;#arrowhead-vee&quot;);"/><path id="edge-conv2d_3" class="edge-path" d="M593.6360054016113,79.32624816894531L595.302672068278,79.32624816894531C596.9693387349447,79.32624816894531,600.302672068278,79.32624816894531,603.6360054016113,79.32624816894531C606.9693387349447,79.32624816894531,610.302672068278,79.32624816894531,611.9693387349447,79.32624816894531L613.6360054016113,79.32624816894531" style="stroke: rgb(0, 0, 0); stroke-width: 1px; fill: none; marker-end: url(&quot;#arrowhead-vee&quot;);"/><path id="edge-global_max_pooling2d" class="edge-path" d="M732.6310081481934,79.32624816894531L734.29767481486,79.32624816894531C735.9643414815267,79.32624816894531,739.29767481486,79.32624816894531,742.6310081481934,79.32624816894531C745.9643414815267,79.32624816894531,749.29767481486,79.32624816894531,750.9643414815267,79.32624816894531L752.6310081481934,79.32624816894531" style="stroke: rgb(0, 0, 0); stroke-width: 1px; fill: none; marker-end: url(&quot;#arrowhead-vee&quot;);"/><path id="edge-dense" class="edge-path" d="M835.3530082702637,45.41004367753423L837.0196749369303,44.04336957869064C838.686341603597,42.67669547984704,842.0196749369303,39.94334728215985,845.3530082702637,38.57667318331625C848.686341603597,37.209999084472656,852.0196749369303,37.209999084472656,853.686341603597,37.209999084472656L855.3530082702637,37.209999084472656" style="stroke: rgb(0, 0, 0); stroke-width: 1px; fill: none; marker-end: url(&quot;#arrowhead-vee&quot;);"/><path id="edge-dense" class="edge-path" d="M835.3530082702637,113.24245266035639L837.0196749369303,114.60912675919998C838.686341603597,115.97580085804357,842.0196749369303,118.70914905573078,845.3530082702637,120.07582315457438C848.686341603597,121.44249725341797,852.0196749369303,121.44249725341797,853.686341603597,121.44249725341797L855.3530082702637,121.44249725341797" style="stroke: rgb(0, 0, 0); stroke-width: 1px; fill: none; marker-end: url(&quot;#arrowhead-vee&quot;);"/><path id="edge-dense_1" class="edge-path" d="M932.9990119934082,37.209999084472656L934.6656786600748,37.209999084472656C936.3323453267416,37.209999084472656,939.6656786600748,37.209999084472656,942.9990119934082,37.209999084472656C946.3323453267416,37.209999084472656,949.6656786600748,37.209999084472656,951.3323453267416,37.209999084472656L952.9990119934082,37.209999084472656" style="stroke: rgb(0, 0, 0); stroke-width: 1px; fill: none; marker-end: url(&quot;#arrowhead-vee&quot;);"/><path id="edge-dense_2" class="edge-path" d="M932.9990119934082,121.44249725341797L934.6656786600748,121.44249725341797C936.3323453267416,121.44249725341797,939.6656786600748,121.44249725341797,942.9990119934082,121.44249725341797C946.3323453267416,121.44249725341797,949.6656786600748,121.44249725341797,951.3323453267416,121.44249725341797L952.9990119934082,121.44249725341797" style="stroke: rgb(0, 0, 0); stroke-width: 1px; fill: none; marker-end: url(&quot;#arrowhead-vee&quot;);"/></g><g id="edge-labels" class="edge-labels"><text style="opacity: 1; font-family: -apple-system, BlinkMacSystemFont, &quot;Segoe WPC&quot;, &quot;Segoe UI&quot;, &quot;Ubuntu&quot;, &quot;Droid Sans&quot;, sans-serif, &quot;PingFang SC&quot;; font-size: 10px;" class="edge-label" id="edge-label-edge-input_1" transform="translate(71.92799758911133,89.32624816894531)"><tspan xml:space="preserve" dy="1em" x="1">?×?×?×3</tspan></text></g><g id="nodes" class="nodes"><g id="input-name-input_1" class="node graph-input" style="opacity: 1;" transform="translate(0,69.13874816894531)"><g class="node-item graph-item-input" transform="translate(0,0)"><path d="M5,0h41.92799758911133a5,5 0 0 1 5,5v10.375a5,5 0 0 1 -5,5h-41.92799758911133a5,5 0 0 1 -5,-5v-10.375a5,5 0 0 1 5,-5z" style="stroke: rgb(0, 0, 0); fill: rgb(238, 238, 238); stroke-width: 0px;"/><text x="6" y="14.28499984741211" style="font-family: -apple-system, BlinkMacSystemFont, &quot;Segoe WPC&quot;, &quot;Segoe UI&quot;, &quot;Ubuntu&quot;, &quot;Droid Sans&quot;, sans-serif, &quot;PingFang SC&quot;; font-size: 11px; text-rendering: geometricprecision;">Input</text><title>float32[?,?,?,3]</title></g><path class="node border" d="M5,0h41.92799758911133a5,5 0 0 1 5,5v10.375a5,5 0 0 1 -5,5h-41.92799758911133a5,5 0 0 1 -5,-5v-10.375a5,5 0 0 1 5,-5z" style="stroke: rgb(51, 51, 51); fill: none; stroke-width: 1px;"/></g><g id="node-name-conv2d" class="node graph-node" style="opacity: 1;" transform="translate(126.60799789428711,42.116249084472656)"><g class="node-item node-item-type node-item-type-layer" transform="translate(0,0)"><path d="M5,0h87.95000457763672a5,5 0 0 1 5,5v15.375a0,0 0 0 1 0,0h-97.95000457763672a0,0 0 0 1 0,0v-15.375a5,5 0 0 1 5,-5z" style="stroke: rgb(0, 0, 0); fill: rgb(51, 85, 136); stroke-width: 0px;"/><text x="6" y="14.28499984741211" style="font-family: -apple-system, BlinkMacSystemFont, &quot;Segoe WPC&quot;, &quot;Segoe UI&quot;, &quot;Ubuntu&quot;, &quot;Droid Sans&quot;, sans-serif, &quot;PingFang SC&quot;; font-size: 11px; text-rendering: geometricprecision; fill: rgb(255, 255, 255);">Conv2D</text><title>conv2d</title></g><g class="node-attribute" transform="translate(0,20.375)"><path d="M0,0h97.95000457763672a0,0 0 0 1 0,0v33.670000076293945a0,0 0 0 1 0,0h-97.95000457763672a0,0 0 0 1 0,0v-33.670000076293945a0,0 0 0 1 0,0z" style="stroke: rgb(0, 0, 0); fill: rgb(255, 255, 255); stroke-width: 0px;"/><text id="initializer-conv2d/kernel:0" xml:space="preserve" x="6" y="13.405000686645508" style="font-family: -apple-system, BlinkMacSystemFont, &quot;Segoe WPC&quot;, &quot;Segoe UI&quot;, &quot;Ubuntu&quot;, &quot;Droid Sans&quot;, sans-serif, &quot;PingFang SC&quot;; font-size: 9px; font-weight: normal; text-rendering: geometricprecision;"><title>float32[3,3,3,64]</title><tspan style="font-weight: bold;">kernel</tspan><tspan>〈3×3×3×64〉</tspan></text><text id="initializer-conv2d/bias:0" xml:space="preserve" x="6" y="27.24000072479248" style="font-family: -apple-system, BlinkMacSystemFont, &quot;Segoe WPC&quot;, &quot;Segoe UI&quot;, &quot;Ubuntu&quot;, &quot;Droid Sans&quot;, sans-serif, &quot;PingFang SC&quot;; font-size: 9px; font-weight: normal; text-rendering: geometricprecision;"><title>float32[64]</title><tspan style="font-weight: bold;">bias</tspan><tspan>〈64〉</tspan></text><line class="node" x1="0" x2="97.95000457763672" y1="0" y2="0" style="stroke: rgb(51, 51, 51); fill: none; stroke-width: 1px;"/></g><g class="node-item node-item-type node-item-type-activation" transform="translate(0,54.045000076293945)"><path d="M0,0h97.95000457763672a0,0 0 0 1 0,0v15.375a5,5 0 0 1 -5,5h-87.95000457763672a5,5 0 0 1 -5,-5v-15.375a0,0 0 0 1 0,0z" style="stroke: rgb(0, 0, 0); fill: rgb(112, 41, 33); stroke-width: 0px;"/><text x="6" y="14.28499984741211" style="font-family: -apple-system, BlinkMacSystemFont, &quot;Segoe WPC&quot;, &quot;Segoe UI&quot;, &quot;Ubuntu&quot;, &quot;Droid Sans&quot;, sans-serif, &quot;PingFang SC&quot;; font-size: 11px; text-rendering: geometricprecision; fill: rgb(255, 255, 255);">ReLU</text></g><line class="node" x1="0" x2="97.95000457763672" y1="54.045000076293945" y2="54.045000076293945" style="stroke: rgb(51, 51, 51); fill: none; stroke-width: 1px;"/><path class="node border" d="M5,0h87.95000457763672a5,5 0 0 1 5,5v64.42000007629395a5,5 0 0 1 -5,5h-87.95000457763672a5,5 0 0 1 -5,-5v-64.42000007629395a5,5 0 0 1 5,-5z" style="stroke: rgb(51, 51, 51); fill: none; stroke-width: 1px;"/></g><g id="node-name-conv2d_1" class="node graph-node" style="opacity: 1;" transform="translate(244.55800247192383,42.116249084472656)"><g class="node-item node-item-type node-item-type-layer" transform="translate(0,0)"><path d="M5,0h93.0260009765625a5,5 0 0 1 5,5v15.375a0,0 0 0 1 0,0h-103.0260009765625a0,0 0 0 1 0,0v-15.375a5,5 0 0 1 5,-5z" style="stroke: rgb(0, 0, 0); fill: rgb(51, 85, 136); stroke-width: 0px;"/><text x="6" y="14.28499984741211" style="font-family: -apple-system, BlinkMacSystemFont, &quot;Segoe WPC&quot;, &quot;Segoe UI&quot;, &quot;Ubuntu&quot;, &quot;Droid Sans&quot;, sans-serif, &quot;PingFang SC&quot;; font-size: 11px; text-rendering: geometricprecision; fill: rgb(255, 255, 255);">Conv2D</text><title>conv2d_1</title></g><g class="node-attribute" transform="translate(0,20.375)"><path d="M0,0h103.0260009765625a0,0 0 0 1 0,0v33.670000076293945a0,0 0 0 1 0,0h-103.0260009765625a0,0 0 0 1 0,0v-33.670000076293945a0,0 0 0 1 0,0z" style="stroke: rgb(0, 0, 0); fill: rgb(255, 255, 255); stroke-width: 0px;"/><text id="initializer-conv2d_1/kernel:0" xml:space="preserve" x="6" y="13.405000686645508" style="font-family: -apple-system, BlinkMacSystemFont, &quot;Segoe WPC&quot;, &quot;Segoe UI&quot;, &quot;Ubuntu&quot;, &quot;Droid Sans&quot;, sans-serif, &quot;PingFang SC&quot;; font-size: 9px; font-weight: normal; text-rendering: geometricprecision;"><title>float32[3,3,64,64]</title><tspan style="font-weight: bold;">kernel</tspan><tspan>〈3×3×64×64〉</tspan></text><text id="initializer-conv2d_1/bias:0" xml:space="preserve" x="6" y="27.24000072479248" style="font-family: -apple-system, BlinkMacSystemFont, &quot;Segoe WPC&quot;, &quot;Segoe UI&quot;, &quot;Ubuntu&quot;, &quot;Droid Sans&quot;, sans-serif, &quot;PingFang SC&quot;; font-size: 9px; font-weight: normal; text-rendering: geometricprecision;"><title>float32[64]</title><tspan style="font-weight: bold;">bias</tspan><tspan>〈64〉</tspan></text><line class="node" x1="0" x2="103.0260009765625" y1="0" y2="0" style="stroke: rgb(51, 51, 51); fill: none; stroke-width: 1px;"/></g><g class="node-item node-item-type node-item-type-activation" transform="translate(0,54.045000076293945)"><path d="M0,0h103.0260009765625a0,0 0 0 1 0,0v15.375a5,5 0 0 1 -5,5h-93.0260009765625a5,5 0 0 1 -5,-5v-15.375a0,0 0 0 1 0,0z" style="stroke: rgb(0, 0, 0); fill: rgb(112, 41, 33); stroke-width: 0px;"/><text x="6" y="14.28499984741211" style="font-family: -apple-system, BlinkMacSystemFont, &quot;Segoe WPC&quot;, &quot;Segoe UI&quot;, &quot;Ubuntu&quot;, &quot;Droid Sans&quot;, sans-serif, &quot;PingFang SC&quot;; font-size: 11px; text-rendering: geometricprecision; fill: rgb(255, 255, 255);">ReLU</text></g><line class="node" x1="0" x2="103.0260009765625" y1="54.045000076293945" y2="54.045000076293945" style="stroke: rgb(51, 51, 51); fill: none; stroke-width: 1px;"/><path class="node border" d="M5,0h93.0260009765625a5,5 0 0 1 5,5v64.42000007629395a5,5 0 0 1 -5,5h-93.0260009765625a5,5 0 0 1 -5,-5v-64.42000007629395a5,5 0 0 1 5,-5z" style="stroke: rgb(51, 51, 51); fill: none; stroke-width: 1px;"/></g><g id="node-name-conv2d_2" class="node graph-node" style="opacity: 1;" transform="translate(367.5840034484863,42.116249084472656)"><g class="node-item node-item-type node-item-type-layer" transform="translate(0,0)"><path d="M5,0h93.0260009765625a5,5 0 0 1 5,5v15.375a0,0 0 0 1 0,0h-103.0260009765625a0,0 0 0 1 0,0v-15.375a5,5 0 0 1 5,-5z" style="stroke: rgb(0, 0, 0); fill: rgb(51, 85, 136); stroke-width: 0px;"/><text x="6" y="14.28499984741211" style="font-family: -apple-system, BlinkMacSystemFont, &quot;Segoe WPC&quot;, &quot;Segoe UI&quot;, &quot;Ubuntu&quot;, &quot;Droid Sans&quot;, sans-serif, &quot;PingFang SC&quot;; font-size: 11px; text-rendering: geometricprecision; fill: rgb(255, 255, 255);">Conv2D</text><title>conv2d_2</title></g><g class="node-attribute" transform="translate(0,20.375)"><path d="M0,0h103.0260009765625a0,0 0 0 1 0,0v33.670000076293945a0,0 0 0 1 0,0h-103.0260009765625a0,0 0 0 1 0,0v-33.670000076293945a0,0 0 0 1 0,0z" style="stroke: rgb(0, 0, 0); fill: rgb(255, 255, 255); stroke-width: 0px;"/><text id="initializer-conv2d_2/kernel:0" xml:space="preserve" x="6" y="13.405000686645508" style="font-family: -apple-system, BlinkMacSystemFont, &quot;Segoe WPC&quot;, &quot;Segoe UI&quot;, &quot;Ubuntu&quot;, &quot;Droid Sans&quot;, sans-serif, &quot;PingFang SC&quot;; font-size: 9px; font-weight: normal; text-rendering: geometricprecision;"><title>float32[3,3,64,64]</title><tspan style="font-weight: bold;">kernel</tspan><tspan>〈3×3×64×64〉</tspan></text><text id="initializer-conv2d_2/bias:0" xml:space="preserve" x="6" y="27.24000072479248" style="font-family: -apple-system, BlinkMacSystemFont, &quot;Segoe WPC&quot;, &quot;Segoe UI&quot;, &quot;Ubuntu&quot;, &quot;Droid Sans&quot;, sans-serif, &quot;PingFang SC&quot;; font-size: 9px; font-weight: normal; text-rendering: geometricprecision;"><title>float32[64]</title><tspan style="font-weight: bold;">bias</tspan><tspan>〈64〉</tspan></text><line class="node" x1="0" x2="103.0260009765625" y1="0" y2="0" style="stroke: rgb(51, 51, 51); fill: none; stroke-width: 1px;"/></g><g class="node-item node-item-type node-item-type-activation" transform="translate(0,54.045000076293945)"><path d="M0,0h103.0260009765625a0,0 0 0 1 0,0v15.375a5,5 0 0 1 -5,5h-93.0260009765625a5,5 0 0 1 -5,-5v-15.375a0,0 0 0 1 0,0z" style="stroke: rgb(0, 0, 0); fill: rgb(112, 41, 33); stroke-width: 0px;"/><text x="6" y="14.28499984741211" style="font-family: -apple-system, BlinkMacSystemFont, &quot;Segoe WPC&quot;, &quot;Segoe UI&quot;, &quot;Ubuntu&quot;, &quot;Droid Sans&quot;, sans-serif, &quot;PingFang SC&quot;; font-size: 11px; text-rendering: geometricprecision; fill: rgb(255, 255, 255);">ReLU</text></g><line class="node" x1="0" x2="103.0260009765625" y1="54.045000076293945" y2="54.045000076293945" style="stroke: rgb(51, 51, 51); fill: none; stroke-width: 1px;"/><path class="node border" d="M5,0h93.0260009765625a5,5 0 0 1 5,5v64.42000007629395a5,5 0 0 1 -5,5h-93.0260009765625a5,5 0 0 1 -5,-5v-64.42000007629395a5,5 0 0 1 5,-5z" style="stroke: rgb(51, 51, 51); fill: none; stroke-width: 1px;"/></g><g id="node-name-conv2d_3" class="node graph-node" style="opacity: 1;" transform="translate(490.6100044250488,42.116249084472656)"><g class="node-item node-item-type node-item-type-layer" transform="translate(0,0)"><path d="M5,0h93.0260009765625a5,5 0 0 1 5,5v15.375a0,0 0 0 1 0,0h-103.0260009765625a0,0 0 0 1 0,0v-15.375a5,5 0 0 1 5,-5z" style="stroke: rgb(0, 0, 0); fill: rgb(51, 85, 136); stroke-width: 0px;"/><text x="6" y="14.28499984741211" style="font-family: -apple-system, BlinkMacSystemFont, &quot;Segoe WPC&quot;, &quot;Segoe UI&quot;, &quot;Ubuntu&quot;, &quot;Droid Sans&quot;, sans-serif, &quot;PingFang SC&quot;; font-size: 11px; text-rendering: geometricprecision; fill: rgb(255, 255, 255);">Conv2D</text><title>conv2d_3</title></g><g class="node-attribute" transform="translate(0,20.375)"><path d="M0,0h103.0260009765625a0,0 0 0 1 0,0v33.670000076293945a0,0 0 0 1 0,0h-103.0260009765625a0,0 0 0 1 0,0v-33.670000076293945a0,0 0 0 1 0,0z" style="stroke: rgb(0, 0, 0); fill: rgb(255, 255, 255); stroke-width: 0px;"/><text id="initializer-conv2d_3/kernel:0" xml:space="preserve" x="6" y="13.405000686645508" style="font-family: -apple-system, BlinkMacSystemFont, &quot;Segoe WPC&quot;, &quot;Segoe UI&quot;, &quot;Ubuntu&quot;, &quot;Droid Sans&quot;, sans-serif, &quot;PingFang SC&quot;; font-size: 9px; font-weight: normal; text-rendering: geometricprecision;"><title>float32[3,3,64,64]</title><tspan style="font-weight: bold;">kernel</tspan><tspan>〈3×3×64×64〉</tspan></text><text id="initializer-conv2d_3/bias:0" xml:space="preserve" x="6" y="27.24000072479248" style="font-family: -apple-system, BlinkMacSystemFont, &quot;Segoe WPC&quot;, &quot;Segoe UI&quot;, &quot;Ubuntu&quot;, &quot;Droid Sans&quot;, sans-serif, &quot;PingFang SC&quot;; font-size: 9px; font-weight: normal; text-rendering: geometricprecision;"><title>float32[64]</title><tspan style="font-weight: bold;">bias</tspan><tspan>〈64〉</tspan></text><line class="node" x1="0" x2="103.0260009765625" y1="0" y2="0" style="stroke: rgb(51, 51, 51); fill: none; stroke-width: 1px;"/></g><g class="node-item node-item-type node-item-type-activation" transform="translate(0,54.045000076293945)"><path d="M0,0h103.0260009765625a0,0 0 0 1 0,0v15.375a5,5 0 0 1 -5,5h-93.0260009765625a5,5 0 0 1 -5,-5v-15.375a0,0 0 0 1 0,0z" style="stroke: rgb(0, 0, 0); fill: rgb(112, 41, 33); stroke-width: 0px;"/><text x="6" y="14.28499984741211" style="font-family: -apple-system, BlinkMacSystemFont, &quot;Segoe WPC&quot;, &quot;Segoe UI&quot;, &quot;Ubuntu&quot;, &quot;Droid Sans&quot;, sans-serif, &quot;PingFang SC&quot;; font-size: 11px; text-rendering: geometricprecision; fill: rgb(255, 255, 255);">ReLU</text></g><line class="node" x1="0" x2="103.0260009765625" y1="54.045000076293945" y2="54.045000076293945" style="stroke: rgb(51, 51, 51); fill: none; stroke-width: 1px;"/><path class="node border" d="M5,0h93.0260009765625a5,5 0 0 1 5,5v64.42000007629395a5,5 0 0 1 -5,5h-93.0260009765625a5,5 0 0 1 -5,-5v-64.42000007629395a5,5 0 0 1 5,-5z" style="stroke: rgb(51, 51, 51); fill: none; stroke-width: 1px;"/></g><g id="node-name-global_max_pooling2d" class="node graph-node" style="opacity: 1;" transform="translate(613.6360054016113,69.13874816894531)"><g class="node-item node-item-type node-item-type-pool" transform="translate(0,0)"><path d="M5,0h108.99500274658203a5,5 0 0 1 5,5v10.375a5,5 0 0 1 -5,5h-108.99500274658203a5,5 0 0 1 -5,-5v-10.375a5,5 0 0 1 5,-5z" style="stroke: rgb(0, 0, 0); fill: rgb(51, 85, 51); stroke-width: 0px;"/><text x="6" y="14.28499984741211" style="font-family: -apple-system, BlinkMacSystemFont, &quot;Segoe WPC&quot;, &quot;Segoe UI&quot;, &quot;Ubuntu&quot;, &quot;Droid Sans&quot;, sans-serif, &quot;PingFang SC&quot;; font-size: 11px; text-rendering: geometricprecision; fill: rgb(255, 255, 255);">GlobalMaxPooling2D</text><title>global_max_pooling2d</title></g><path class="node border" d="M5,0h108.99500274658203a5,5 0 0 1 5,5v10.375a5,5 0 0 1 -5,5h-108.99500274658203a5,5 0 0 1 -5,-5v-10.375a5,5 0 0 1 5,-5z" style="stroke: rgb(51, 51, 51); fill: none; stroke-width: 1px;"/></g><g id="node-name-dense" class="node graph-node" style="opacity: 1;" transform="translate(752.6310081481934,42.116249084472656)"><g class="node-item node-item-type node-item-type-layer" transform="translate(0,0)"><path d="M5,0h72.72200012207031a5,5 0 0 1 5,5v15.375a0,0 0 0 1 0,0h-82.72200012207031a0,0 0 0 1 0,0v-15.375a5,5 0 0 1 5,-5z" style="stroke: rgb(0, 0, 0); fill: rgb(51, 85, 136); stroke-width: 0px;"/><text x="6" y="14.28499984741211" style="font-family: -apple-system, BlinkMacSystemFont, &quot;Segoe WPC&quot;, &quot;Segoe UI&quot;, &quot;Ubuntu&quot;, &quot;Droid Sans&quot;, sans-serif, &quot;PingFang SC&quot;; font-size: 11px; text-rendering: geometricprecision; fill: rgb(255, 255, 255);">Dense</text><title>dense</title></g><g class="node-attribute" transform="translate(0,20.375)"><path d="M0,0h82.72200012207031a0,0 0 0 1 0,0v33.670000076293945a0,0 0 0 1 0,0h-82.72200012207031a0,0 0 0 1 0,0v-33.670000076293945a0,0 0 0 1 0,0z" style="stroke: rgb(0, 0, 0); fill: rgb(255, 255, 255); stroke-width: 0px;"/><text id="initializer-dense/kernel:0" xml:space="preserve" x="6" y="13.405000686645508" style="font-family: -apple-system, BlinkMacSystemFont, &quot;Segoe WPC&quot;, &quot;Segoe UI&quot;, &quot;Ubuntu&quot;, &quot;Droid Sans&quot;, sans-serif, &quot;PingFang SC&quot;; font-size: 9px; font-weight: normal; text-rendering: geometricprecision;"><title>float32[64,64]</title><tspan style="font-weight: bold;">kernel</tspan><tspan>〈64×64〉</tspan></text><text id="initializer-dense/bias:0" xml:space="preserve" x="6" y="27.24000072479248" style="font-family: -apple-system, BlinkMacSystemFont, &quot;Segoe WPC&quot;, &quot;Segoe UI&quot;, &quot;Ubuntu&quot;, &quot;Droid Sans&quot;, sans-serif, &quot;PingFang SC&quot;; font-size: 9px; font-weight: normal; text-rendering: geometricprecision;"><title>float32[64]</title><tspan style="font-weight: bold;">bias</tspan><tspan>〈64〉</tspan></text><line class="node" x1="0" x2="82.72200012207031" y1="0" y2="0" style="stroke: rgb(51, 51, 51); fill: none; stroke-width: 1px;"/></g><g class="node-item node-item-type node-item-type-activation" transform="translate(0,54.045000076293945)"><path d="M0,0h82.72200012207031a0,0 0 0 1 0,0v15.375a5,5 0 0 1 -5,5h-72.72200012207031a5,5 0 0 1 -5,-5v-15.375a0,0 0 0 1 0,0z" style="stroke: rgb(0, 0, 0); fill: rgb(112, 41, 33); stroke-width: 0px;"/><text x="6" y="14.28499984741211" style="font-family: -apple-system, BlinkMacSystemFont, &quot;Segoe WPC&quot;, &quot;Segoe UI&quot;, &quot;Ubuntu&quot;, &quot;Droid Sans&quot;, sans-serif, &quot;PingFang SC&quot;; font-size: 11px; text-rendering: geometricprecision; fill: rgb(255, 255, 255);">ReLU</text></g><line class="node" x1="0" x2="82.72200012207031" y1="54.045000076293945" y2="54.045000076293945" style="stroke: rgb(51, 51, 51); fill: none; stroke-width: 1px;"/><path class="node border" d="M5,0h72.72200012207031a5,5 0 0 1 5,5v64.42000007629395a5,5 0 0 1 -5,5h-72.72200012207031a5,5 0 0 1 -5,-5v-64.42000007629395a5,5 0 0 1 5,-5z" style="stroke: rgb(51, 51, 51); fill: none; stroke-width: 1px;"/></g><g id="node-name-dense_1" class="node graph-node" style="opacity: 1;" transform="translate(855.3530082702637,0)"><g class="node-item node-item-type node-item-type-layer" transform="translate(0,0)"><path d="M5,0h67.64600372314453a5,5 0 0 1 5,5v15.375a0,0 0 0 1 0,0h-77.64600372314453a0,0 0 0 1 0,0v-15.375a5,5 0 0 1 5,-5z" style="stroke: rgb(0, 0, 0); fill: rgb(51, 85, 136); stroke-width: 0px;"/><text x="6" y="14.28499984741211" style="font-family: -apple-system, BlinkMacSystemFont, &quot;Segoe WPC&quot;, &quot;Segoe UI&quot;, &quot;Ubuntu&quot;, &quot;Droid Sans&quot;, sans-serif, &quot;PingFang SC&quot;; font-size: 11px; text-rendering: geometricprecision; fill: rgb(255, 255, 255);">Dense</text><title>Actor</title></g><g class="node-attribute" transform="translate(0,20.375)"><path d="M0,0h77.64600372314453a0,0 0 0 1 0,0v33.670000076293945a0,0 0 0 1 0,0h-77.64600372314453a0,0 0 0 1 0,0v-33.670000076293945a0,0 0 0 1 0,0z" style="stroke: rgb(0, 0, 0); fill: rgb(255, 255, 255); stroke-width: 0px;"/><text id="initializer-dense_1/kernel:0" xml:space="preserve" x="6" y="13.405000686645508" style="font-family: -apple-system, BlinkMacSystemFont, &quot;Segoe WPC&quot;, &quot;Segoe UI&quot;, &quot;Ubuntu&quot;, &quot;Droid Sans&quot;, sans-serif, &quot;PingFang SC&quot;; font-size: 9px; font-weight: normal; text-rendering: geometricprecision;"><title>float32[64,4]</title><tspan style="font-weight: bold;">kernel</tspan><tspan>〈64×4〉</tspan></text><text id="initializer-dense_1/bias:0" xml:space="preserve" x="6" y="27.24000072479248" style="font-family: -apple-system, BlinkMacSystemFont, &quot;Segoe WPC&quot;, &quot;Segoe UI&quot;, &quot;Ubuntu&quot;, &quot;Droid Sans&quot;, sans-serif, &quot;PingFang SC&quot;; font-size: 9px; font-weight: normal; text-rendering: geometricprecision;"><title>float32[4]</title><tspan style="font-weight: bold;">bias</tspan><tspan>〈4〉</tspan></text><line class="node" x1="0" x2="77.64600372314453" y1="0" y2="0" style="stroke: rgb(51, 51, 51); fill: none; stroke-width: 1px;"/></g><g class="node-item node-item-type node-item-type-activation" transform="translate(0,54.045000076293945)"><path d="M0,0h77.64600372314453a0,0 0 0 1 0,0v15.375a5,5 0 0 1 -5,5h-67.64600372314453a5,5 0 0 1 -5,-5v-15.375a0,0 0 0 1 0,0z" style="stroke: rgb(0, 0, 0); fill: rgb(112, 41, 33); stroke-width: 0px;"/><text x="6" y="14.28499984741211" style="font-family: -apple-system, BlinkMacSystemFont, &quot;Segoe WPC&quot;, &quot;Segoe UI&quot;, &quot;Ubuntu&quot;, &quot;Droid Sans&quot;, sans-serif, &quot;PingFang SC&quot;; font-size: 11px; text-rendering: geometricprecision; fill: rgb(255, 255, 255);">Softmax</text></g><line class="node" x1="0" x2="77.64600372314453" y1="54.045000076293945" y2="54.045000076293945" style="stroke: rgb(51, 51, 51); fill: none; stroke-width: 1px;"/><path class="node border" d="M5,0h67.64600372314453a5,5 0 0 1 5,5v64.42000007629395a5,5 0 0 1 -5,5h-67.64600372314453a5,5 0 0 1 -5,-5v-64.42000007629395a5,5 0 0 1 5,-5z" style="stroke: rgb(51, 51, 51); fill: none; stroke-width: 1px;"/></g><g id="node-name-dense_2" class="node graph-node" style="opacity: 1;" transform="translate(855.3530082702637,94.41999816894531)"><g class="node-item node-item-type node-item-type-layer" transform="translate(0,0)"><path d="M5,0h67.64600372314453a5,5 0 0 1 5,5v15.375a0,0 0 0 1 0,0h-77.64600372314453a0,0 0 0 1 0,0v-15.375a5,5 0 0 1 5,-5z" style="stroke: rgb(0, 0, 0); fill: rgb(51, 85, 136); stroke-width: 0px;"/><text x="6" y="14.28499984741211" style="font-family: -apple-system, BlinkMacSystemFont, &quot;Segoe WPC&quot;, &quot;Segoe UI&quot;, &quot;Ubuntu&quot;, &quot;Droid Sans&quot;, sans-serif, &quot;PingFang SC&quot;; font-size: 11px; text-rendering: geometricprecision; fill: rgb(255, 255, 255);">Dense</text><title>Critic</title></g><g class="node-attribute" transform="translate(0,20.375)"><path d="M0,0h77.64600372314453a0,0 0 0 1 0,0v28.670000076293945a5,5 0 0 1 -5,5h-67.64600372314453a5,5 0 0 1 -5,-5v-28.670000076293945a0,0 0 0 1 0,0z" style="stroke: rgb(0, 0, 0); fill: rgb(255, 255, 255); stroke-width: 0px;"/><text id="initializer-dense_2/kernel:0" xml:space="preserve" x="6" y="13.405000686645508" style="font-family: -apple-system, BlinkMacSystemFont, &quot;Segoe WPC&quot;, &quot;Segoe UI&quot;, &quot;Ubuntu&quot;, &quot;Droid Sans&quot;, sans-serif, &quot;PingFang SC&quot;; font-size: 9px; font-weight: normal; text-rendering: geometricprecision;"><title>float32[64,1]</title><tspan style="font-weight: bold;">kernel</tspan><tspan>〈64×1〉</tspan></text><text id="initializer-dense_2/bias:0" xml:space="preserve" x="6" y="27.24000072479248" style="font-family: -apple-system, BlinkMacSystemFont, &quot;Segoe WPC&quot;, &quot;Segoe UI&quot;, &quot;Ubuntu&quot;, &quot;Droid Sans&quot;, sans-serif, &quot;PingFang SC&quot;; font-size: 9px; font-weight: normal; text-rendering: geometricprecision;"><title>float32[1]</title><tspan style="font-weight: bold;">bias</tspan><tspan>〈1〉</tspan></text><line class="node" x1="0" x2="77.64600372314453" y1="0" y2="0" style="stroke: rgb(51, 51, 51); fill: none; stroke-width: 1px;"/></g><path class="node border" d="M5,0h67.64600372314453a5,5 0 0 1 5,5v44.045000076293945a5,5 0 0 1 -5,5h-67.64600372314453a5,5 0 0 1 -5,-5v-44.045000076293945a5,5 0 0 1 5,-5z" style="stroke: rgb(51, 51, 51); fill: none; stroke-width: 1px;"/></g><g class="node" style="opacity: 1;" transform="translate(952.9990119934082,27.022499084472656)"><g class="node-item graph-item-output" transform="translate(0,0)"><path d="M5,0h45.612998962402344a5,5 0 0 1 5,5v10.375a5,5 0 0 1 -5,5h-45.612998962402344a5,5 0 0 1 -5,-5v-10.375a5,5 0 0 1 5,-5z" style="stroke: rgb(0, 0, 0); fill: rgb(238, 238, 238); stroke-width: 0px;"/><text x="6" y="14.28499984741211" style="font-family: -apple-system, BlinkMacSystemFont, &quot;Segoe WPC&quot;, &quot;Segoe UI&quot;, &quot;Ubuntu&quot;, &quot;Droid Sans&quot;, sans-serif, &quot;PingFang SC&quot;; font-size: 11px; text-rendering: geometricprecision;">Actor</text></g><path class="node border" d="M5,0h45.612998962402344a5,5 0 0 1 5,5v10.375a5,5 0 0 1 -5,5h-45.612998962402344a5,5 0 0 1 -5,-5v-10.375a5,5 0 0 1 5,-5z" style="stroke: rgb(51, 51, 51); fill: none; stroke-width: 1px;"/></g><g class="node" style="opacity: 1;" transform="translate(952.9990119934082,111.25499725341797)"><g class="node-item graph-item-output" transform="translate(0,0)"><path d="M5,0h45.612998962402344a5,5 0 0 1 5,5v10.375a5,5 0 0 1 -5,5h-45.612998962402344a5,5 0 0 1 -5,-5v-10.375a5,5 0 0 1 5,-5z" style="stroke: rgb(0, 0, 0); fill: rgb(238, 238, 238); stroke-width: 0px;"/><text x="6" y="14.28499984741211" style="font-family: -apple-system, BlinkMacSystemFont, &quot;Segoe WPC&quot;, &quot;Segoe UI&quot;, &quot;Ubuntu&quot;, &quot;Droid Sans&quot;, sans-serif, &quot;PingFang SC&quot;; font-size: 11px; text-rendering: geometricprecision;">Critic</text></g><path class="node border" d="M5,0h45.612998962402344a5,5 0 0 1 5,5v10.375a5,5 0 0 1 -5,5h-45.612998962402344a5,5 0 0 1 -5,-5v-10.375a5,5 0 0 1 5,-5z" style="stroke: rgb(51, 51, 51); fill: none; stroke-width: 1px;"/></g></g></g></svg>