<svg xmlns="http://www.w3.org/2000/svg" id="export" class="canvas" preserveAspectRatio="xMidYMid meet" style="width: 394; height: 164;" width="394" height="164"><rect id="background" fill="#fff" pointer-events="all" width="394" height="164"/><g id="origin" transform="translate(7.423249816894532, 7.423249816894532) scale(1)"><g id="clusters" class="clusters"/><g id="edge-paths" class="edge-paths"><defs><marker id="arrowhead-vee" viewBox="0 0 10 10" refX="9" refY="5" markerUnits="strokeWidth" markerWidth="8" markerHeight="6" orient="auto" style="fill: rgb(0, 0, 0);"><path d="M 0 0 L 10 5 L 0 10 L 4 5 z" style="stroke-width: 1px;"/></marker><marker id="arrowhead-vee-select" viewBox="0 0 10 10" refX="9" refY="5" markerUnits="strokeWidth" markerWidth="8" markerHeight="6" orient="auto" style="fill: rgb(238, 0, 0);"><path d="M 0 0 L 10 5 L 0 10 L 4 5 z" style="stroke-width: 1px;"/></marker></defs><path id="edge-input_1" class="edge-path" d="M51.92799758911133,79.32624816894531L53.59466425577799,79.32624816894531C55.261330922444664,79.32624816894531,58.59466425577799,79.32624816894531,63.67466433842977,79.32624816894531C68.75466442108154,79.32624816894531,75.58133125305176,79.32624816894531,82.40799808502197,79.32624816894531C89.23466491699219,79.32624816894531,96.0613317489624,79.32624816894531,101.14133183161418,79.32624816894531C106.22133191426595,79.32624816894531,109.55466524759929,79.32624816894531,111.22133191426595,79.32624816894531L112.88799858093262,79.32624816894531" style="stroke: rgb(0, 0, 0); stroke-width: 1px; fill: none; marker-end: url(&quot;#arrowhead-vee&quot;);"/><path id="edge-dense" class="edge-path" d="M200.68600273132324,45.023919094664244L202.3526693979899,43.72159909296565C204.01933606465658,42.41927909126705,207.3526693979899,39.81463908786986,210.68600273132324,38.51231908617125C214.01933606465658,37.209999084472656,217.3526693979899,37.209999084472656,219.01933606465658,37.209999084472656L220.68600273132324,37.209999084472656" style="stroke: rgb(0, 0, 0); stroke-width: 1px; fill: none; marker-end: url(&quot;#arrowhead-vee&quot;);"/><path id="edge-dense" class="edge-path" d="M200.68600273132324,113.62857724322637L202.3526693979899,114.93089724492496C204.01933606465658,116.23321724662357,207.3526693979899,118.83785725002076,210.68600273132324,120.14017725171936C214.01933606465658,121.44249725341797,217.3526693979899,121.44249725341797,219.01933606465658,121.44249725341797L220.68600273132324,121.44249725341797" style="stroke: rgb(0, 0, 0); stroke-width: 1px; fill: none; marker-end: url(&quot;#arrowhead-vee&quot;);"/><path id="edge-dense_1" class="edge-path" d="M303.40800285339355,37.209999084472656L305.07466952006024,37.209999084472656C306.74133618672687,37.209999084472656,310.07466952006024,37.209999084472656,313.40800285339355,37.209999084472656C316.74133618672687,37.209999084472656,320.07466952006024,37.209999084472656,321.74133618672687,37.209999084472656L323.40800285339355,37.209999084472656" style="stroke: rgb(0, 0, 0); stroke-width: 1px; fill: none; marker-end: url(&quot;#arrowhead-vee&quot;);"/><path id="edge-dense_2" class="edge-path" d="M303.40800285339355,121.44249725341797L305.07466952006024,121.44249725341797C306.74133618672687,121.44249725341797,310.07466952006024,121.44249725341797,313.40800285339355,121.44249725341797C316.74133618672687,121.44249725341797,320.07466952006024,121.44249725341797,321.74133618672687,121.44249725341797L323.40800285339355,121.44249725341797" style="stroke: rgb(0, 0, 0); stroke-width: 1px; fill: none; marker-end: url(&quot;#arrowhead-vee&quot;);"/></g><g id="edge-labels" class="edge-labels"><text style="opacity: 1; font-family: -apple-system, BlinkMacSystemFont, &quot;Segoe WPC&quot;, &quot;Segoe UI&quot;, &quot;Ubuntu&quot;, &quot;Droid Sans&quot;, sans-serif, &quot;PingFang SC&quot;; font-size: 10px;" class="edge-label" id="edge-label-edge-input_1" transform="translate(71.92799758911133,89.32624816894531)"><tspan xml:space="preserve" dy="1em" x="1">?×15</tspan></text></g><g id="nodes" class="nodes"><g id="input-name-input_1" class="node graph-input" style="opacity: 1;" transform="translate(0,69.13874816894531)"><g class="node-item graph-item-input" transform="translate(0,0)"><path d="M5,0h41.92799758911133a5,5 0 0 1 5,5v10.375a5,5 0 0 1 -5,5h-41.92799758911133a5,5 0 0 1 -5,-5v-10.375a5,5 0 0 1 5,-5z" style="stroke: rgb(0, 0, 0); fill: rgb(238, 238, 238); stroke-width: 0px;"/><text x="6" y="14.28499984741211" style="font-family: -apple-system, BlinkMacSystemFont, &quot;Segoe WPC&quot;, &quot;Segoe UI&quot;, &quot;Ubuntu&quot;, &quot;Droid Sans&quot;, sans-serif, &quot;PingFang SC&quot;; font-size: 11px; text-rendering: geometricprecision;">Input</text><title>float32[?,15]</title></g><path class="node border" d="M5,0h41.92799758911133a5,5 0 0 1 5,5v10.375a5,5 0 0 1 -5,5h-41.92799758911133a5,5 0 0 1 -5,-5v-10.375a5,5 0 0 1 5,-5z" style="stroke: rgb(51, 51, 51); fill: none; stroke-width: 1px;"/></g><g id="node-name-dense" class="node graph-node" style="opacity: 1;" transform="translate(112.88799858093262,42.116249084472656)"><g class="node-item node-item-type node-item-type-layer" transform="translate(0,0)"><path d="M5,0h77.79800415039062a5,5 0 0 1 5,5v15.375a0,0 0 0 1 0,0h-87.79800415039062a0,0 0 0 1 0,0v-15.375a5,5 0 0 1 5,-5z" style="stroke: rgb(0, 0, 0); fill: rgb(51, 85, 136); stroke-width: 0px;"/><text x="6" y="14.28499984741211" style="font-family: -apple-system, BlinkMacSystemFont, &quot;Segoe WPC&quot;, &quot;Segoe UI&quot;, &quot;Ubuntu&quot;, &quot;Droid Sans&quot;, sans-serif, &quot;PingFang SC&quot;; font-size: 11px; text-rendering: geometricprecision; fill: rgb(255, 255, 255);">Dense</text><title>dense</title></g><g class="node-attribute" transform="translate(0,20.375)"><path d="M0,0h87.79800415039062a0,0 0 0 1 0,0v33.670000076293945a0,0 0 0 1 0,0h-87.79800415039062a0,0 0 0 1 0,0v-33.670000076293945a0,0 0 0 1 0,0z" style="stroke: rgb(0, 0, 0); fill: rgb(255, 255, 255); stroke-width: 0px;"/><text id="initializer-dense/kernel:0" xml:space="preserve" x="6" y="13.405000686645508" style="font-family: -apple-system, BlinkMacSystemFont, &quot;Segoe WPC&quot;, &quot;Segoe UI&quot;, &quot;Ubuntu&quot;, &quot;Droid Sans&quot;, sans-serif, &quot;PingFang SC&quot;; font-size: 9px; font-weight: normal; text-rendering: geometricprecision;"><title>float32[15,256]</title><tspan style="font-weight: bold;">kernel</tspan><tspan>〈15×256〉</tspan></text><text id="initializer-dense/bias:0" xml:space="preserve" x="6" y="27.24000072479248" style="font-family: -apple-system, BlinkMacSystemFont, &quot;Segoe WPC&quot;, &quot;Segoe UI&quot;, &quot;Ubuntu&quot;, &quot;Droid Sans&quot;, sans-serif, &quot;PingFang SC&quot;; font-size: 9px; font-weight: normal; text-rendering: geometricprecision;"><title>float32[256]</title><tspan style="font-weight: bold;">bias</tspan><tspan>〈256〉</tspan></text><line class="node" x1="0" x2="87.79800415039062" y1="0" y2="0" style="stroke: rgb(51, 51, 51); fill: none; stroke-width: 1px;"/></g><g class="node-item node-item-type node-item-type-activation" transform="translate(0,54.045000076293945)"><path d="M0,0h87.79800415039062a0,0 0 0 1 0,0v15.375a5,5 0 0 1 -5,5h-77.79800415039062a5,5 0 0 1 -5,-5v-15.375a0,0 0 0 1 0,0z" style="stroke: rgb(0, 0, 0); fill: rgb(112, 41, 33); stroke-width: 0px;"/><text x="6" y="14.28499984741211" style="font-family: -apple-system, BlinkMacSystemFont, &quot;Segoe WPC&quot;, &quot;Segoe UI&quot;, &quot;Ubuntu&quot;, &quot;Droid Sans&quot;, sans-serif, &quot;PingFang SC&quot;; font-size: 11px; text-rendering: geometricprecision; fill: rgb(255, 255, 255);">ReLU</text></g><line class="node" x1="0" x2="87.79800415039062" y1="54.045000076293945" y2="54.045000076293945" style="stroke: rgb(51, 51, 51); fill: none; stroke-width: 1px;"/><path class="node border" d="M5,0h77.79800415039062a5,5 0 0 1 5,5v64.42000007629395a5,5 0 0 1 -5,5h-77.79800415039062a5,5 0 0 1 -5,-5v-64.42000007629395a5,5 0 0 1 5,-5z" style="stroke: rgb(51, 51, 51); fill: none; stroke-width: 1px;"/></g><g id="node-name-dense_1" class="node graph-node" style="opacity: 1;" transform="translate(220.68600273132324,0)"><g class="node-item node-item-type node-item-type-layer" transform="translate(0,0)"><path d="M5,0h72.72200012207031a5,5 0 0 1 5,5v15.375a0,0 0 0 1 0,0h-82.72200012207031a0,0 0 0 1 0,0v-15.375a5,5 0 0 1 5,-5z" style="stroke: rgb(0, 0, 0); fill: rgb(51, 85, 136); stroke-width: 0px;"/><text x="6" y="14.28499984741211" style="font-family: -apple-system, BlinkMacSystemFont, &quot;Segoe WPC&quot;, &quot;Segoe UI&quot;, &quot;Ubuntu&quot;, &quot;Droid Sans&quot;, sans-serif, &quot;PingFang SC&quot;; font-size: 11px; text-rendering: geometricprecision; fill: rgb(255, 255, 255);">Dense</text><title>Actor</title></g><g class="node-attribute" transform="translate(0,20.375)"><path d="M0,0h82.72200012207031a0,0 0 0 1 0,0v33.670000076293945a0,0 0 0 1 0,0h-82.72200012207031a0,0 0 0 1 0,0v-33.670000076293945a0,0 0 0 1 0,0z" style="stroke: rgb(0, 0, 0); fill: rgb(255, 255, 255); stroke-width: 0px;"/><text id="initializer-dense_1/kernel:0" xml:space="preserve" x="6" y="13.405000686645508" style="font-family: -apple-system, BlinkMacSystemFont, &quot;Segoe WPC&quot;, &quot;Segoe UI&quot;, &quot;Ubuntu&quot;, &quot;Droid Sans&quot;, sans-serif, &quot;PingFang SC&quot;; font-size: 9px; font-weight: normal; text-rendering: geometricprecision;"><title>float32[256,3]</title><tspan style="font-weight: bold;">kernel</tspan><tspan>〈256×3〉</tspan></text><text id="initializer-dense_1/bias:0" xml:space="preserve" x="6" y="27.24000072479248" style="font-family: -apple-system, BlinkMacSystemFont, &quot;Segoe WPC&quot;, &quot;Segoe UI&quot;, &quot;Ubuntu&quot;, &quot;Droid Sans&quot;, sans-serif, &quot;PingFang SC&quot;; font-size: 9px; font-weight: normal; text-rendering: geometricprecision;"><title>float32[3]</title><tspan style="font-weight: bold;">bias</tspan><tspan>〈3〉</tspan></text><line class="node" x1="0" x2="82.72200012207031" y1="0" y2="0" style="stroke: rgb(51, 51, 51); fill: none; stroke-width: 1px;"/></g><g class="node-item node-item-type node-item-type-activation" transform="translate(0,54.045000076293945)"><path d="M0,0h82.72200012207031a0,0 0 0 1 0,0v15.375a5,5 0 0 1 -5,5h-72.72200012207031a5,5 0 0 1 -5,-5v-15.375a0,0 0 0 1 0,0z" style="stroke: rgb(0, 0, 0); fill: rgb(112, 41, 33); stroke-width: 0px;"/><text x="6" y="14.28499984741211" style="font-family: -apple-system, BlinkMacSystemFont, &quot;Segoe WPC&quot;, &quot;Segoe UI&quot;, &quot;Ubuntu&quot;, &quot;Droid Sans&quot;, sans-serif, &quot;PingFang SC&quot;; font-size: 11px; text-rendering: geometricprecision; fill: rgb(255, 255, 255);">Softmax</text></g><line class="node" x1="0" x2="82.72200012207031" y1="54.045000076293945" y2="54.045000076293945" style="stroke: rgb(51, 51, 51); fill: none; stroke-width: 1px;"/><path class="node border" d="M5,0h72.72200012207031a5,5 0 0 1 5,5v64.42000007629395a5,5 0 0 1 -5,5h-72.72200012207031a5,5 0 0 1 -5,-5v-64.42000007629395a5,5 0 0 1 5,-5z" style="stroke: rgb(51, 51, 51); fill: none; stroke-width: 1px;"/></g><g id="node-name-dense_2" class="node graph-node" style="opacity: 1;" transform="translate(220.68600273132324,94.41999816894531)"><g class="node-item node-item-type node-item-type-layer" transform="translate(0,0)"><path d="M5,0h72.72200012207031a5,5 0 0 1 5,5v15.375a0,0 0 0 1 0,0h-82.72200012207031a0,0 0 0 1 0,0v-15.375a5,5 0 0 1 5,-5z" style="stroke: rgb(0, 0, 0); fill: rgb(51, 85, 136); stroke-width: 0px;"/><text x="6" y="14.28499984741211" style="font-family: -apple-system, BlinkMacSystemFont, &quot;Segoe WPC&quot;, &quot;Segoe UI&quot;, &quot;Ubuntu&quot;, &quot;Droid Sans&quot;, sans-serif, &quot;PingFang SC&quot;; font-size: 11px; text-rendering: geometricprecision; fill: rgb(255, 255, 255);">Dense</text><title>Critic</title></g><g class="node-attribute" transform="translate(0,20.375)"><path d="M0,0h82.72200012207031a0,0 0 0 1 0,0v28.670000076293945a5,5 0 0 1 -5,5h-72.72200012207031a5,5 0 0 1 -5,-5v-28.670000076293945a0,0 0 0 1 0,0z" style="stroke: rgb(0, 0, 0); fill: rgb(255, 255, 255); stroke-width: 0px;"/><text id="initializer-dense_2/kernel:0" xml:space="preserve" x="6" y="13.405000686645508" style="font-family: -apple-system, BlinkMacSystemFont, &quot;Segoe WPC&quot;, &quot;Segoe UI&quot;, &quot;Ubuntu&quot;, &quot;Droid Sans&quot;, sans-serif, &quot;PingFang SC&quot;; font-size: 9px; font-weight: normal; text-rendering: geometricprecision;"><title>float32[256,1]</title><tspan style="font-weight: bold;">kernel</tspan><tspan>〈256×1〉</tspan></text><text id="initializer-dense_2/bias:0" xml:space="preserve" x="6" y="27.24000072479248" style="font-family: -apple-system, BlinkMacSystemFont, &quot;Segoe WPC&quot;, &quot;Segoe UI&quot;, &quot;Ubuntu&quot;, &quot;Droid Sans&quot;, sans-serif, &quot;PingFang SC&quot;; font-size: 9px; font-weight: normal; text-rendering: geometricprecision;"><title>float32[1]</title><tspan style="font-weight: bold;">bias</tspan><tspan>〈1〉</tspan></text><line class="node" x1="0" x2="82.72200012207031" y1="0" y2="0" style="stroke: rgb(51, 51, 51); fill: none; stroke-width: 1px;"/></g><path class="node border" d="M5,0h72.72200012207031a5,5 0 0 1 5,5v44.045000076293945a5,5 0 0 1 -5,5h-72.72200012207031a5,5 0 0 1 -5,-5v-44.045000076293945a5,5 0 0 1 5,-5z" style="stroke: rgb(51, 51, 51); fill: none; stroke-width: 1px;"/></g><g class="node" style="opacity: 1;" transform="translate(323.40800285339355,27.022499084472656)"><g class="node-item graph-item-output" transform="translate(0,0)"><path d="M5,0h45.612998962402344a5,5 0 0 1 5,5v10.375a5,5 0 0 1 -5,5h-45.612998962402344a5,5 0 0 1 -5,-5v-10.375a5,5 0 0 1 5,-5z" style="stroke: rgb(0, 0, 0); fill: rgb(238, 238, 238); stroke-width: 0px;"/><text x="6" y="14.28499984741211" style="font-family: -apple-system, BlinkMacSystemFont, &quot;Segoe WPC&quot;, &quot;Segoe UI&quot;, &quot;Ubuntu&quot;, &quot;Droid Sans&quot;, sans-serif, &quot;PingFang SC&quot;; font-size: 11px; text-rendering: geometricprecision;">Actor</text></g><path class="node border" d="M5,0h45.612998962402344a5,5 0 0 1 5,5v10.375a5,5 0 0 1 -5,5h-45.612998962402344a5,5 0 0 1 -5,-5v-10.375a5,5 0 0 1 5,-5z" style="stroke: rgb(51, 51, 51); fill: none; stroke-width: 1px;"/></g><g class="node" style="opacity: 1;" transform="translate(323.40800285339355,111.25499725341797)"><g class="node-item graph-item-output" transform="translate(0,0)"><path d="M5,0h45.612998962402344a5,5 0 0 1 5,5v10.375a5,5 0 0 1 -5,5h-45.612998962402344a5,5 0 0 1 -5,-5v-10.375a5,5 0 0 1 5,-5z" style="stroke: rgb(0, 0, 0); fill: rgb(238, 238, 238); stroke-width: 0px;"/><text x="6" y="14.28499984741211" style="font-family: -apple-system, BlinkMacSystemFont, &quot;Segoe WPC&quot;, &quot;Segoe UI&quot;, &quot;Ubuntu&quot;, &quot;Droid Sans&quot;, sans-serif, &quot;PingFang SC&quot;; font-size: 11px; text-rendering: geometricprecision;">Critic</text></g><path class="node border" d="M5,0h45.612998962402344a5,5 0 0 1 5,5v10.375a5,5 0 0 1 -5,5h-45.612998962402344a5,5 0 0 1 -5,-5v-10.375a5,5 0 0 1 5,-5z" style="stroke: rgb(51, 51, 51); fill: none; stroke-width: 1px;"/></g></g></g></svg>