<?xml version='1.0' encoding='UTF-8' standalone='no'?>
<!-- Created with Fritzing (https://fritzing.org/) -->
<svg xmlns="http://www.w3.org/2000/svg" y="0in" height="2.91422in" baseProfile="tiny" xmlns:svg="http://www.w3.org/2000/svg" version="1.2" width="2.60882in" x="0in"  viewBox="0 0 187.835 209.824">
 <g  id="watermark">
  <g >
   <g >
    <path d="M163.103,203.624c-0.604,0,-1.131,0.325,-1.422,0.809l-2.796,0l3.96,-4.071c0.146,-0.146,0.289,-0.322,0.428,-0.521c0.149,-0.222,0.228,-0.479,0.228,-0.768c0,-0.279,-0.097,-0.518,-0.287,-0.71c-0.19,-0.188,-0.444,-0.287,-0.754,-0.287l-4.636,0c-0.305,0,-0.555,0.06,-0.742,0.17c-0.219,0.13,-0.33,0.368,-0.33,0.707c0,0.329,0.111,0.562,0.33,0.692c0.188,0.111,0.438,0.168,0.742,0.168l3.148,0l-3.974,4.086c-0.146,0.147,-0.289,0.315,-0.425,0.504c-0.153,0.212,-0.23,0.472,-0.23,0.771c0,0.28,0.096,0.521,0.288,0.711c0.188,0.188,0.442,0.285,0.754,0.285l4.315,0c0.293,0.467,0.812,0.776,1.4,0.776c0.916,0,1.66,-0.744,1.66,-1.661C164.762,204.369,164.017,203.624,163.103,203.624zM163.103,205.887c-0.334,0,-0.604,-0.271,-0.604,-0.604c0,-0.333,0.27,-0.604,0.604,-0.604c0.332,0,0.604,0.271,0.604,0.604C163.706,205.618,163.435,205.887,163.103,205.887z"  fill="#8C8C8C"/>
    <path d="M146.16,193.582c-0.914,0,-1.659,0.745,-1.659,1.66c0,0.916,0.745,1.66,1.659,1.66s1.658,-0.744,1.658,-1.66C147.82,194.327,147.076,193.582,146.16,193.582zM146.161,195.845c-0.333,0,-0.604,-0.27,-0.604,-0.603s0.271,-0.603,0.604,-0.603c0.331,0,0.604,0.27,0.604,0.603S146.492,195.845,146.161,195.845z"  fill="#8C8C8C"/>
    <path d="M154.681,198.244c-0.193,-0.111,-0.439,-0.169,-0.732,-0.169l-1.465,0L152.484,195.553c0,-0.292,-0.057,-0.538,-0.166,-0.729C152.228,194.667,152.035,194.482,151.625,194.482c-0.34,0,-0.578,0.116,-0.709,0.342c-0.109,0.193,-0.167,0.438,-0.167,0.729l0,2.521l-0.481,0c-0.295,0,-0.539,0.06,-0.731,0.169c-0.228,0.129,-0.341,0.368,-0.341,0.708c0,0.412,0.185,0.603,0.341,0.692c0.192,0.111,0.438,0.168,0.731,0.168l0.481,0l0,4.362c0,0.277,0.026,0.533,0.081,0.768c0.056,0.246,0.154,0.464,0.298,0.645c0.146,0.186,0.345,0.332,0.595,0.436c0.241,0.098,0.555,0.146,0.93,0.146l0.896,0c0.292,0,0.539,-0.054,0.731,-0.166c0.154,-0.089,0.341,-0.281,0.341,-0.693c0,-0.338,-0.114,-0.578,-0.341,-0.709c-0.192,-0.109,-0.439,-0.168,-0.731,-0.168l-0.821,0c-0.138,0,-0.19,-0.019,-0.207,-0.024c-0.014,-0.034,-0.035,-0.103,-0.035,-0.231L152.486,199.812l1.465,0c0.295,0,0.541,-0.057,0.734,-0.168c0.152,-0.09,0.34,-0.28,0.34,-0.692C155.021,198.612,154.908,198.373,154.681,198.244z"  fill="#8C8C8C"/>
    <path d="M146.226,198.074l-1.191,0c-0.292,0,-0.538,0.059,-0.731,0.169c-0.226,0.129,-0.341,0.368,-0.341,0.708c0,0.412,0.188,0.604,0.341,0.691c0.193,0.113,0.439,0.168,0.731,0.168l0.544,0l0,5.362c0,0.293,0.057,0.539,0.167,0.73c0.131,0.227,0.367,0.341,0.708,0.341c0.411,0,0.604,-0.187,0.692,-0.341c0.111,-0.191,0.168,-0.438,0.168,-0.73L147.314,199.162c0,-0.386,-0.084,-0.656,-0.256,-0.83C146.883,198.16,146.613,198.074,146.226,198.074z"  fill="#8C8C8C"/>
    <path d="M142.391,198.244c-0.193,-0.111,-0.44,-0.169,-0.732,-0.169l-0.604,0c-0.25,0,-0.498,0.063,-0.734,0.187c-0.226,0.119,-0.433,0.271,-0.616,0.453l-0.644,0.604l0,-0.247c0,-0.291,-0.055,-0.538,-0.168,-0.729c-0.128,-0.228,-0.368,-0.34,-0.707,-0.34c-0.41,0,-0.604,0.184,-0.693,0.34c-0.11,0.191,-0.167,0.438,-0.167,0.729l0,4.801c-0.475,0.293,-0.791,0.816,-0.791,1.412c0,0.917,0.745,1.661,1.658,1.661c0.916,0,1.66,-0.744,1.66,-1.661c0,-0.596,-0.317,-1.119,-0.792,-1.412l0,-2.21l1.738,-1.564c0.1,-0.09,0.199,-0.164,0.297,-0.217c0.084,-0.045,0.174,-0.067,0.274,-0.067l0.288,0c0.292,0,0.539,-0.056,0.732,-0.169c0.155,-0.088,0.339,-0.279,0.339,-0.691C142.731,198.612,142.616,198.373,142.391,198.244zM138.192,205.887c-0.332,0,-0.603,-0.271,-0.603,-0.604c0,-0.333,0.271,-0.604,0.603,-0.604c0.333,0,0.604,0.271,0.604,0.604C138.796,205.618,138.525,205.887,138.192,205.887z"  fill="#8C8C8C"/>
    <path d="M135.675,194.725c-0.193,-0.111,-0.44,-0.167,-0.731,-0.167l-0.59,0c-0.2,0,-0.389,0.004,-0.562,0.016c-0.176,0.009,-0.345,0.035,-0.506,0.07c-0.168,0.041,-0.336,0.109,-0.496,0.202c-0.158,0.093,-0.319,0.222,-0.48,0.382c-0.334,0.314,-0.554,0.656,-0.652,1.017c-0.094,0.348,-0.143,0.735,-0.143,1.151l0,0.678l-0.483,0c-0.292,0,-0.539,0.059,-0.73,0.169c-0.227,0.13,-0.342,0.369,-0.342,0.708c0,0.412,0.185,0.604,0.341,0.693c0.191,0.111,0.438,0.166,0.73,0.166l0.483,0l0,5.362c0,0.293,0.057,0.539,0.167,0.73c0.13,0.227,0.367,0.341,0.708,0.341c0.411,0,0.603,-0.187,0.692,-0.341c0.111,-0.191,0.168,-0.438,0.168,-0.73l0,-5.36l0.92,0c0.293,0,0.54,-0.057,0.732,-0.168c0.155,-0.09,0.34,-0.28,0.34,-0.692c0,-0.34,-0.114,-0.579,-0.34,-0.708c-0.189,-0.111,-0.436,-0.17,-0.729,-0.17l-0.92,0l0,-0.678c0,-0.218,0.019,-0.41,0.056,-0.571c0.032,-0.141,0.103,-0.261,0.218,-0.367l0.002,-0.004l0.002,-0.002c0.082,-0.082,0.176,-0.126,0.29,-0.136c0.15,-0.015,0.339,-0.022,0.564,-0.022l0.56,0c0.291,0,0.539,-0.058,0.731,-0.168c0.154,-0.088,0.339,-0.281,0.339,-0.693C136.015,195.094,135.9,194.855,135.675,194.725z"  fill="#8C8C8C"/>
    <path d="M187.668,198.342c-0.089,-0.156,-0.282,-0.34,-0.693,-0.34c-0.339,0,-0.578,0.113,-0.707,0.34c-0.078,0.133,-0.127,0.293,-0.152,0.477l-0.021,-0.021c-0.216,-0.236,-0.466,-0.42,-0.747,-0.539c-0.277,-0.119,-0.563,-0.183,-0.849,-0.183l-0.709,0c-0.249,0,-0.466,0.015,-0.64,0.041c-0.182,0.026,-0.352,0.074,-0.51,0.14c-0.158,0.066,-0.313,0.15,-0.459,0.254c-0.139,0.097,-0.303,0.226,-0.486,0.377c-0.188,0.156,-0.342,0.302,-0.463,0.434c-0.127,0.141,-0.23,0.293,-0.306,0.455c-0.069,0.16,-0.122,0.337,-0.147,0.523c-0.026,0.178,-0.041,0.391,-0.041,0.631l0,2.386c0,0.24,0.015,0.451,0.041,0.631c0.025,0.188,0.078,0.361,0.147,0.521c0.074,0.164,0.179,0.318,0.306,0.457c0.119,0.129,0.274,0.274,0.463,0.433c0.186,0.153,0.35,0.28,0.486,0.379c0.146,0.103,0.299,0.188,0.459,0.254c0.158,0.065,0.329,0.112,0.51,0.14c0.174,0.026,0.389,0.039,0.64,0.039l0.709,0c0.298,0,0.591,-0.066,0.87,-0.199c0.244,-0.114,0.492,-0.291,0.73,-0.523l0,1.434c0,0.18,-0.025,0.334,-0.072,0.465c-0.043,0.119,-0.159,0.258,-0.344,0.406c-0.154,0.127,-0.309,0.217,-0.457,0.264c-0.15,0.049,-0.341,0.074,-0.563,0.074l-2.203,0c-0.293,0,-0.538,0.055,-0.732,0.166c-0.152,0.088,-0.34,0.282,-0.34,0.692c0,0.341,0.115,0.579,0.34,0.71c0.194,0.109,0.439,0.167,0.732,0.167l2.326,0c0.247,0,0.463,-0.015,0.638,-0.041c0.179,-0.026,0.351,-0.073,0.513,-0.14c0.153,-0.064,0.31,-0.15,0.455,-0.254c0.143,-0.101,0.305,-0.227,0.487,-0.379c0.185,-0.153,0.343,-0.299,0.463,-0.431c0.128,-0.141,0.229,-0.294,0.304,-0.456c0.071,-0.162,0.123,-0.338,0.148,-0.523c0.025,-0.182,0.041,-0.393,0.041,-0.631l0,-7.898C187.835,198.78,187.781,198.533,187.668,198.342zM186.099,202.802c0,0.188,-0.062,0.35,-0.188,0.49c-0.15,0.172,-0.394,0.403,-0.716,0.686l-0.002,0.003l-0.002,0.004c-0.139,0.13,-0.291,0.237,-0.453,0.325c-0.148,0.082,-0.325,0.121,-0.526,0.121L183.911,204.431c-0.222,0,-0.41,-0.021,-0.563,-0.072c-0.148,-0.049,-0.301,-0.137,-0.453,-0.264c-0.231,-0.186,-0.315,-0.322,-0.346,-0.404c-0.049,-0.131,-0.072,-0.285,-0.072,-0.465l0,-2.206c0,-0.18,0.023,-0.336,0.072,-0.467c0.029,-0.082,0.113,-0.217,0.346,-0.403c0.152,-0.127,0.305,-0.216,0.453,-0.265c0.153,-0.049,0.342,-0.072,0.563,-0.072l0.301,0c0.212,0,0.388,0.037,0.526,0.113c0.152,0.082,0.308,0.191,0.457,0.324c0.322,0.293,0.564,0.529,0.716,0.7c0.128,0.146,0.188,0.304,0.188,0.492L186.099,202.802z"  fill="#8C8C8C"/>
    <path d="M167.689,193.582c-0.914,0,-1.66,0.745,-1.66,1.66c0,0.916,0.746,1.66,1.66,1.66s1.66,-0.744,1.66,-1.66C169.349,194.327,168.603,193.582,167.689,193.582zM167.689,195.845c-0.332,0,-0.604,-0.27,-0.604,-0.603s0.271,-0.603,0.604,-0.603s0.604,0.27,0.604,0.603C168.293,195.575,168.021,195.845,167.689,195.845z"  fill="#8C8C8C"/>
    <path d="M178.375,203.85l-0.107,-3.419c-0.011,-0.178,-0.021,-0.338,-0.031,-0.489c-0.01,-0.162,-0.037,-0.322,-0.082,-0.476c-0.045,-0.158,-0.11,-0.309,-0.198,-0.453c-0.093,-0.146,-0.216,-0.289,-0.37,-0.42c-0.225,-0.192,-0.443,-0.334,-0.646,-0.416c-0.207,-0.084,-0.461,-0.127,-0.754,-0.127l-1.012,0c-0.259,0,-0.501,0.058,-0.716,0.164c-0.197,0.098,-0.39,0.203,-0.572,0.315l-0.003,0.002l-0.003,0.003l-0.837,0.555l0,-0.041c0,-0.291,-0.057,-0.539,-0.168,-0.733c-0.129,-0.226,-0.367,-0.339,-0.707,-0.339c-0.411,0,-0.604,0.185,-0.693,0.339c-0.109,0.194,-0.168,0.438,-0.168,0.733l0,6.099c0,0.295,0.059,0.539,0.168,0.734c0.09,0.153,0.282,0.338,0.693,0.338c0.34,0,0.578,-0.114,0.707,-0.338c0.111,-0.195,0.168,-0.439,0.168,-0.734L173.044,201.112l1.953,-1.215c0.04,-0.024,0.082,-0.048,0.121,-0.063c0.031,-0.016,0.07,-0.025,0.115,-0.031c0.049,-0.012,0.117,-0.016,0.195,-0.016l0.362,0c0.188,0,0.334,0.021,0.435,0.059c0.082,0.029,0.143,0.076,0.18,0.143c0.05,0.078,0.08,0.18,0.098,0.303c0.02,0.139,0.034,0.309,0.045,0.504l0.096,3.097c-0.457,0.297,-0.762,0.811,-0.762,1.394c0,0.917,0.746,1.661,1.66,1.661c0.916,0,1.66,-0.744,1.66,-1.661C179.201,204.675,178.868,204.137,178.375,203.85zM177.541,205.887c-0.334,0,-0.602,-0.271,-0.602,-0.604c0,-0.333,0.268,-0.604,0.602,-0.604c0.333,0,0.604,0.271,0.604,0.604C178.146,205.618,177.874,205.887,177.541,205.887z"  fill="#8C8C8C"/>
    <path d="M167.752,198.074l-1.193,0c-0.293,0,-0.539,0.059,-0.731,0.169c-0.226,0.129,-0.341,0.368,-0.341,0.708c0,0.412,0.186,0.604,0.341,0.691c0.192,0.113,0.438,0.168,0.731,0.168l0.545,0l0,5.362c0,0.293,0.055,0.539,0.168,0.73c0.127,0.227,0.365,0.341,0.707,0.341c0.41,0,0.604,-0.187,0.691,-0.341c0.111,-0.191,0.17,-0.438,0.17,-0.73L168.84,199.162c0,-0.386,-0.085,-0.656,-0.259,-0.83C168.409,198.16,168.136,198.074,167.752,198.074z"  fill="#8C8C8C"/>
   </g>
  </g>
 </g>
 <path stroke-linejoin="round" stroke="#8c8c8c" d="M170.127,25.0449L170.127,32.2229" stroke-linecap="round" stroke-width="2.15998" fill="none"/>
 <path stroke-linejoin="round" stroke="#8c8c8c" d="M184.494,25.0449L184.494,32.2229" stroke-linecap="round" stroke-width="2.15998" fill="none"/>
 <path stroke-linejoin="round" stroke="#8c8c8c" d="M177.308,25.0449L177.308,32.2229" stroke-linecap="round" stroke-width="2.15998" fill="none"/>
 <g partID="65810">
  <g transform="translate(169.047,0.963882)">
   <g  id="breadboard">
    <rect y="22.081" height="1" width="2.15998" x="0"  fill="none" id="connector0pin"/>
    <rect y="22.081" height="1" width="2.15998" x="7.18095"  fill="none" id="connector1pin"/>
    <rect y="22.081" height="1" width="2.15998" x="14.3669"  fill="none" id="connector2pin"/>
    <g stroke="#8C8C8C" stroke-linecap="round" x1="1.08" y1="24.081" stroke-width="2.15998" x2="1.08"  y2="31.259" fill="none" id="connector0leg"/>
    <g stroke="#8C8C8C" stroke-linecap="round" x1="8.261" y1="24.081" stroke-width="2.15998" x2="8.261"  y2="31.259" fill="none" id="connector1leg"/>
    <g stroke="#8C8C8C" stroke-linecap="round" x1="15.447" y1="24.081" stroke-width="2.15998" x2="15.447"  y2="31.259" fill="none" id="connector2leg"/>
    <rect y="14.731" height="9.351" width="2.15398" x="7.17795"  fill="#8C8C8C" id="rect9506"/>
    <path d="M3.28698,14.731l0,3.316c0,0.424,-0.781994,1.059,-1.19799,1.425c-1.02499,0.891,-2.08798,1.819,-2.08798,2.992l0,1.619l2.15398,0c0,0,0,-1,0,-1.21c0,-0.517,0.903993,-1.389,1.34999,-1.769c0.996993,-0.87,1.94499,-1.69,1.94499,-2.749l0,-3.625L3.28698,14.73L3.28698,14.731z"  fill="#8C8C8C" id="path9510"/>
    <path d="M13.2209,14.731l0,3.316c0,0.424,0.780994,1.059,1.19899,1.425c1.02699,0.891,2.08898,1.819,2.08898,2.992l0,1.619l-2.15398,0c0,0,0,-1,0,-1.21c0,-0.517,-0.903993,-1.389,-1.34999,-1.769c-0.997993,-0.87,-1.94499,-1.69,-1.94499,-2.749l0,-3.625L13.2209,14.73L13.2209,14.731z"  fill="#8C8C8C" id="path9514"/>
    <rect y="4.659" height="10.07" width="13.2779" x="1.61499"  fill="#1A1A1A" id="rect9553"/>
    <path d="M13.8889,4.659l0,2.453l0,8.228l0,1.842c0.631995,-0.713,1.00399,-1.553,1.00399,-2.453l0,0L14.8929,4.659L13.8889,4.659z"  fill="#141414" id="path9555"/>
    <path d="M2.62098,4.659L1.61599,4.659l0,10.07l0,0c0,0.899,0.372997,1.74,1.00499,2.453L2.62098,15.34L2.62098,7.112L2.62098,4.659z"  fill="#242424" id="path9557"/>
    <path d="M1.61499,4.659L1.61499,4.659c0,0.899,0.372997,1.74,1.00499,2.453l11.2759,0c0.631995,-0.713,1.00499,-1.554,1.00499,-2.453l0,0L1.61499,4.659z"  fill="#1F1F1F" id="path9559"/>
    <path d="M8.25494,0C4.58697,0,1.61499,2.086,1.61499,4.661l13.2779,0C14.8929,2.086,11.9229,0,8.25494,0z"  fill="#141414" id="path9561"/>
    <rect y="7.112" height="10.07" width="11.2759" x="2.62098"  id="rect9563"/>
    <path d="M4.98996,14.359l0,-5.4l2.15998,0l0,1.079l1.07999,0l0,1.08l1.08099,0L9.31093,8.958l2.15898,0l0,5.4L9.31193,14.358l0,-1.079L8.23094,13.279l0,-1.08l-1.07999,0l0,2.161L4.98996,14.36z"  fill="#999999"/>
   </g>
  </g>
 </g>
 <path stroke-linejoin="round" stroke="#8c8c8c" d="M5.57424,183.423L4.52664,183.423" stroke-linecap="round" stroke-width="2.0952" fill="none"/>
 <path stroke-linejoin="round" stroke="#8c8c8c" d="M32.2841,183.423L33.3317,183.423" stroke-linecap="round" stroke-width="2.0952" fill="none"/>
 <g partID="66330">
  <g transform="translate(3.47904,179.79)">
   <g  id="breadboard">
    <rect y="2.5848" height="0.72" width="0.72" x="0.36"  fill="none" id="connector0pin"/>
    <rect y="2.5848" height="0.72" width="0.72" x="29.8202"  fill="none" id="connector1pin"/>
    <line stroke="#8C8C8C" stroke-linecap="round" x1="1.0476" y1="3.6324" stroke-width="2.0952" x2="2.0952"  y2="3.6324" fill="none" id="connector0leg"/>
    <line stroke="#8C8C8C" stroke-linecap="round" x1="29.8526" y1="3.6324" stroke-width="2.0952" x2="28.805"  y2="3.6324" fill="none" id="connector1leg"/>
    <path stroke="#8C8C8C" d="M1.0476,3.6324l28.3666,0" stroke-width="2.0952"  fill="none"/>
    <path d="M10.2478,0.49536c-0.36,-0.1656,-0.9792,-0.2952,-1.3752,-0.2952l-1.9872,0c-0.396,0,-0.72,0.324,-0.72,0.72l0,5.35608c0,0.39672,0.324,0.72,0.72,0.72l1.9872,0c0.396,0,1.0152,-0.13608,1.3752,-0.2952l0.072,-0.03528c0.36,-0.1656,0.9792,-0.2952,1.3752,-0.2952l7.1856,0c0.39672,0,1.01448,0.13608,1.37448,0.2952l0.07272,0.03528c0.36,0.1656,0.97776,0.2952,1.3752,0.2952l1.9872,0c0.39744,0,0.72,-0.32328,0.72,-0.72L24.4102,0.92016c0,-0.396,-0.32256,-0.72,-0.72,-0.72l-1.9872,0c-0.39744,0,-1.0152,0.1368,-1.3752,0.2952l-0.07272,0.036c-0.36,0.1656,-0.97776,0.2952,-1.37448,0.2952l-7.1856,0c-0.396,0,-1.0152,-0.1368,-1.3752,-0.2952L10.2478,0.49536z"  fill="#D9B477" id="body"/>
    <rect y="0.19368" height="6.79536" width="0.70272" x="22.019"  fill="#ad9f4e" id="gold_band"/>
    <rect y="0.82656" height="5.5368" width="1.8504" x="16.1726"  fill="#000000" id="band_rd_multiplier"/>
    <rect y="0.82656" height="5.5368" width="1.8504" x="12.4726"  fill="#000000" id="band_2_nd"/>
    <path d="M10.6286,0.63936c-0.1152,-0.036,-0.2232,-0.072,-0.3096,-0.1152l-0.072,-0.036c-0.36,-0.16488,-0.9792,-0.2952,-1.3752,-0.2952l-0.0864,0l0,6.79608l0.0864,0c0.396,0,1.0152,-0.13608,1.3752,-0.2952l0.072,-0.03528c0.0864,-0.04464,0.1944,-0.07992,0.3096,-0.1152L10.6286,0.63936z"  fill="#8a3d06" id="band_1_st"/>
    <path d="M23.711,4.0896L23.711,4.0896c0,0.37944,-0.13032,0.69912,-0.2952,0.69912l-1.9224,0c-0.38016,0,-0.97776,-0.05616,-1.33272,-0.1224L20.088,4.65048c-0.34488,-0.0648,-0.94896,-0.1224,-1.33344,-0.1224L11.808,4.52808c-0.3816,0,-0.9792,0.0576,-1.332,0.1224l-0.072,0.01512c-0.3456,0.06552,-0.9432,0.1224,-1.332,0.1224l-0.3168,0l-1.0008,0l-0.3096,0c-0.3816,0,-0.6984,0.29376,-0.6984,0.64512l0,0.24696L6.7464,5.8392l0,0.1728c0,0.36,0.3168,0.64512,0.6984,0.64512l1.62,0c0.3816,0,0.9792,-0.1224,1.332,-0.26712l0.072,-0.02808c0.3456,-0.14112,0.9504,-0.26496,1.332,-0.26496l6.94656,0c0.37944,0,0.97704,0.12384,1.33416,0.26568l0.07416,0.02808c0.34488,0.14472,0.94464,0.26712,1.33344,0.26712l2.2248,0c0.38088,0,0.69912,-0.2952,0.69912,-0.64512L24.413,5.472L24.413,4.49928L24.413,2.65536C24.1358,2.76336,23.711,3.06576,23.711,4.0896z"  opacity="0.3" id="Shadow"/>
    <rect y="3.48336" height="3.15288" width="0.70272" x="22.019"  opacity="0.4" id="ShadowExtra"/>
    <path d="M19.751,1.08576c0.22968,0,0.49104,-0.1008,0.6624,-0.1728c0.2016,-0.0792,0.57672,-0.144,0.96624,-0.144l1.46088,0c0.22464,0,0.22464,0.2448,0.22464,0.3744c0,0.1296,-0.01512,0.3816,-0.22464,0.3816l-3.06,0c-0.10728,0,-0.2304,-0.1152,-0.2304,-0.22392C19.5566,1.21536,19.6286,1.08576,19.751,1.08576z"  opacity="0.25" fill="#FFFFFF" id="ReflexRight"/>
    <circle cy="1.13616" cx="6.99984" r="0.432"  opacity="0.35" fill="#FFFFFF" id="ReflexLeft"/>
    <rect y="0.42336" height="1.62" width="0.70272" x="22.019"  opacity="0.5" fill="#FFFF33" id="Reflex_gold"/>
    <rect y="0.78336" height="0.7488" width="0.70272" x="22.019"  opacity="0.5" fill="#FFFFFF" id="Reflex_extra"/>
   </g>
  </g>
 </g>
 <path stroke-linejoin="round" stroke="#8c8c8c" d="M4.52664,29.2068L4.52664,53.8229" stroke-linecap="round" stroke-width="2.15136" fill="none"/>
 <path stroke-linejoin="round" stroke="#8c8c8c" d="M11.7288,29.2068L11.7288,53.8229" stroke-linecap="round" stroke-width="2.15136" fill="none"/>
 <g partID="66230">
  <g  id="breadboard">
   <rect y="25.421" height="0.72" width="2.15208" x="3.45096"  fill="none" id="connector0pin"/>
   <rect y="25.421" height="0.72" width="2.15424" x="10.651"  fill="none" id="connector1pin"/>
   <g stroke="#8C8C8C" stroke-linecap="round" x1="6.287" y1="40.565" stroke-width="2.15136" x2="6.287"  y2="74.754" fill="none" id="connector0leg"/>
   <g stroke="#8C8C8C" stroke-linecap="round" x1="16.29" y1="40.565" stroke-width="2.15136" x2="16.29"  y2="74.754" fill="none" id="connector1leg"/>
   <rect y="19.3795" height="9.82728" width="2.15136" x="3.45096"  fill="#8C8C8C"/>
   <path d="M12.8045,29.2068c0,-1.1736,-1.06488,-2.1024,-2.088,-2.9916c-0.41616,-0.3672,-1.19952,-1.00152,-1.19952,-1.42488l0,-5.47056l-2.16144,0l0,5.78016c0,1.0584,0.94752,1.87848,1.94616,2.74824c0.44424,0.37584,1.34856,1.24992,1.34856,1.76976"  fill="#8C8C8C"/>
   <g  id="g12">
    <path d="M14.1732,13.001L14.1732,7.0884C14.1732,3.1752,11.0052,0,7.08768,0C3.1752,0,0,3.16944,0,7.0884l0,13.649c1.47384,1.65096,4.0968,2.75256,7.08768,2.75256c4.61952,0,8.36856,-2.61792,8.36856,-5.85936l0,-1.52352C15.4555,14.9645,14.9818,13.9032,14.1732,13.001z"  opacity="0.3" fill="#666666" id="color_path14"/>
    <path d="M14.1732,13.001L14.1732,7.0884C14.1732,3.1752,11.0052,0,7.08768,0C3.1752,0,0,3.16944,0,7.0884l0,13.649c1.47384,1.65096,4.0968,2.75256,7.08768,2.75256c4.61952,0,8.36856,-2.61792,8.36856,-5.85936l0,-1.52352C15.4555,14.9645,14.9818,13.9032,14.1732,13.001z"  opacity="0.5" fill="#E6E6E6" id="path16"/>
    <path d="M14.1732,13.001l0,3.10536c0,2.73888,-3.16584,4.96512,-7.08552,4.96512C3.1752,21.0715,0,18.8525,0,16.1064l0,3.10536L0,20.736c1.47384,1.65168,4.0968,2.75256,7.08768,2.75256c4.61952,0,8.36856,-2.61792,8.36856,-5.85864L15.4562,16.1064C15.4555,14.9645,14.9818,13.9032,14.1732,13.001z"  opacity="0.9" fill="#D1D1D1" id="path18"/>
    <path d="M14.1732,13.001l0,3.10536c0,2.73888,-3.16584,4.96512,-7.08552,4.96512C3.1752,21.0715,0,18.8525,0,16.1064l0,3.10536L0,20.736c1.47384,1.65168,4.0968,2.75256,7.08768,2.75256c4.61952,0,8.36856,-2.61792,8.36856,-5.85864L15.4562,16.1064C15.4555,14.9645,14.9818,13.9032,14.1732,13.001z"  opacity="0.7" fill="#666666" id="color_path20"/>
    <path d="M14.1732,13.001l0,3.10536c0,2.73888,-3.16584,4.96512,-7.08552,4.96512C3.1752,21.0715,0,18.8525,0,16.1064l0,3.10536c1.47384,1.65024,4.0968,2.75256,7.08768,2.75256c4.61952,0,8.36856,-2.61792,8.36856,-5.85864C15.4555,14.9645,14.9818,13.9032,14.1732,13.001z"  opacity="0.25" fill="#666666" id="color_path22"/>
    <ellipse cy="16.1064" cx="7.08768" ry="4.9608" rx="7.08696"  opacity="0.25" fill="#E6E6E6" id="ellipse24"/>
    <ellipse cy="16.1064" cx="7.08768" ry="4.9608" rx="7.08696"  opacity="0.25" fill="#666666" id="color_ellipse26"/>
    <polygon points="2.2032,9.648,2.2032,16.1071,3.19608,16.1071,3.19608,13.0946,6.0156,13.0946,10.0123,8.80488,3.40704,8.80488"  fill="#666666" id="polygon28"/>
    <polygon points="10.7784,8.52408,11.2147,9.03384,7.41168,13.0946,11.0599,13.0946,11.0599,16.1071,11.9736,16.1071,11.9736,8.52408"  fill="#666666" id="polygon30"/>
    <path d="M14.1732,13.001L14.1732,7.0884C14.1732,3.1752,11.0052,0,7.08768,0C3.1752,0,0,3.16944,0,7.0884l0,13.649c1.47384,1.65096,4.0968,2.75256,7.08768,2.75256c4.61952,0,8.36856,-2.61792,8.36856,-5.85936l0,-1.52352C15.4555,14.9645,14.9818,13.9032,14.1732,13.001z"  opacity="0.65" fill="#666666" id="color_path32"/>
    <path d="M10.3882,3.75408l1.4364,-0.2736c-0.84168,-1.13184,-2.08224,-1.95768,-3.54168,-2.23848l0.25416,1.08072C9.30096,2.59344,9.94392,3.1032,10.3882,3.75408z"  opacity="0.5" fill="#FFFFFF" id="path34"/>
    <path d="M0.76824,19.926l0,1.51992c0.64872,0.5292,1.43352,0.97632,2.3076,1.31688l0,-1.52496C2.19744,20.9016,1.41912,20.4559,0.76824,19.926z"  opacity="0.5" fill="#FFFFFF" id="path36"/>
    <path d="M11.0729,20.2097c-0.2556,0.1224,-0.52992,0.22968,-0.80568,0.32976c-0.05832,0.01944,-0.11736,0.04032,-0.17784,0.05832c-0.56376,0.17928,-1.16136,0.31896,-1.79496,0.39456c-0.07488,0.00936,-0.1512,0.01872,-0.22464,0.01944c-0.3204,0.03024,-0.64368,0.05832,-0.97056,0.05832c-0.14832,0,-0.30744,-0.01512,-0.4716,-0.02376c-1.20024,-0.05688,-2.33064,-0.31464,-3.2976,-0.73944L3.33,11.9174L3.33,7.092c0,-1.47096,0.84816,-2.72952,2.0736,-3.34944L5.38128,3.68928l-1.24776,-1.512c-1.66968,1.00296,-2.79,2.8224,-2.79,4.91184l0,11.9052c-0.04968,-0.04968,-0.30816,-0.30888,-0.48024,-0.52992l-0.30744,0.6876c1.40112,1.48176,3.8088,2.46168,6.54264,2.46168c1.67976,0,3.23712,-0.37368,4.51152,-1.00224l-0.52704,-0.40896C11.0729,20.2097,11.0729,20.2097,11.0729,20.2097z"  opacity="0.5" fill="#FFFFFF" id="path38"/>
   </g>
  </g>
 </g>
 <path stroke-linejoin="round" stroke="#8c8c8c" d="M154.679,111.423L155.727,111.423" stroke-linecap="round" stroke-width="2.0952" fill="none"/>
 <path stroke-linejoin="round" stroke="#8c8c8c" d="M127.969,111.423L126.922,111.423" stroke-linecap="round" stroke-width="2.0952" fill="none"/>
 <g partID="66360">
  <g transform="translate(156.774,115.055)">
   <g transform="matrix(-1,0,0,-1,0,0)">
    <g  id="breadboard">
     <rect y="2.5848" height="0.72" width="0.72" x="0.36"  fill="none" id="connector0pin"/>
     <rect y="2.5848" height="0.72" width="0.72" x="29.8202"  fill="none" id="connector1pin"/>
     <line stroke="#8C8C8C" stroke-linecap="round" x1="1.0476" y1="3.6324" stroke-width="2.0952" x2="2.0952"  y2="3.6324" fill="none" id="connector0leg"/>
     <line stroke="#8C8C8C" stroke-linecap="round" x1="29.8526" y1="3.6324" stroke-width="2.0952" x2="28.805"  y2="3.6324" fill="none" id="connector1leg"/>
     <path stroke="#8C8C8C" d="M1.0476,3.6324l28.3666,0" stroke-width="2.0952"  fill="none"/>
     <path d="M10.2478,0.49536c-0.36,-0.1656,-0.9792,-0.2952,-1.3752,-0.2952l-1.9872,0c-0.396,0,-0.72,0.324,-0.72,0.72l0,5.35608c0,0.39672,0.324,0.72,0.72,0.72l1.9872,0c0.396,0,1.0152,-0.13608,1.3752,-0.2952l0.072,-0.03528c0.36,-0.1656,0.9792,-0.2952,1.3752,-0.2952l7.1856,0c0.39672,0,1.01448,0.13608,1.37448,0.2952l0.07272,0.03528c0.36,0.1656,0.97776,0.2952,1.3752,0.2952l1.9872,0c0.39744,0,0.72,-0.32328,0.72,-0.72L24.4102,0.92016c0,-0.396,-0.32256,-0.72,-0.72,-0.72l-1.9872,0c-0.39744,0,-1.0152,0.1368,-1.3752,0.2952l-0.07272,0.036c-0.36,0.1656,-0.97776,0.2952,-1.37448,0.2952l-7.1856,0c-0.396,0,-1.0152,-0.1368,-1.3752,-0.2952L10.2478,0.49536z"  fill="#D9B477" id="body"/>
     <rect y="0.19368" height="6.79536" width="0.70272" x="22.019"  fill="#ad9f4e" id="gold_band"/>
     <rect y="0.82656" height="5.5368" width="1.8504" x="16.1726"  fill="#8a3d06" id="band_rd_multiplier"/>
     <rect y="0.82656" height="5.5368" width="1.8504" x="12.4726"  fill="#c40808" id="band_2_nd"/>
     <path d="M10.6286,0.63936c-0.1152,-0.036,-0.2232,-0.072,-0.3096,-0.1152l-0.072,-0.036c-0.36,-0.16488,-0.9792,-0.2952,-1.3752,-0.2952l-0.0864,0l0,6.79608l0.0864,0c0.396,0,1.0152,-0.13608,1.3752,-0.2952l0.072,-0.03528c0.0864,-0.04464,0.1944,-0.07992,0.3096,-0.1152L10.6286,0.63936z"  fill="#c40808" id="band_1_st"/>
     <path d="M23.711,4.0896L23.711,4.0896c0,0.37944,-0.13032,0.69912,-0.2952,0.69912l-1.9224,0c-0.38016,0,-0.97776,-0.05616,-1.33272,-0.1224L20.088,4.65048c-0.34488,-0.0648,-0.94896,-0.1224,-1.33344,-0.1224L11.808,4.52808c-0.3816,0,-0.9792,0.0576,-1.332,0.1224l-0.072,0.01512c-0.3456,0.06552,-0.9432,0.1224,-1.332,0.1224l-0.3168,0l-1.0008,0l-0.3096,0c-0.3816,0,-0.6984,0.29376,-0.6984,0.64512l0,0.24696L6.7464,5.8392l0,0.1728c0,0.36,0.3168,0.64512,0.6984,0.64512l1.62,0c0.3816,0,0.9792,-0.1224,1.332,-0.26712l0.072,-0.02808c0.3456,-0.14112,0.9504,-0.26496,1.332,-0.26496l6.94656,0c0.37944,0,0.97704,0.12384,1.33416,0.26568l0.07416,0.02808c0.34488,0.14472,0.94464,0.26712,1.33344,0.26712l2.2248,0c0.38088,0,0.69912,-0.2952,0.69912,-0.64512L24.413,5.472L24.413,4.49928L24.413,2.65536C24.1358,2.76336,23.711,3.06576,23.711,4.0896z"  opacity="0.3" id="Shadow"/>
     <rect y="3.48336" height="3.15288" width="0.70272" x="22.019"  opacity="0.4" id="ShadowExtra"/>
     <path d="M19.751,1.08576c0.22968,0,0.49104,-0.1008,0.6624,-0.1728c0.2016,-0.0792,0.57672,-0.144,0.96624,-0.144l1.46088,0c0.22464,0,0.22464,0.2448,0.22464,0.3744c0,0.1296,-0.01512,0.3816,-0.22464,0.3816l-3.06,0c-0.10728,0,-0.2304,-0.1152,-0.2304,-0.22392C19.5566,1.21536,19.6286,1.08576,19.751,1.08576z"  opacity="0.25" fill="#FFFFFF" id="ReflexRight"/>
     <circle cy="1.13616" cx="6.99984" r="0.432"  opacity="0.35" fill="#FFFFFF" id="ReflexLeft"/>
     <rect y="0.42336" height="1.62" width="0.70272" x="22.019"  opacity="0.5" fill="#FFFF33" id="Reflex_gold"/>
     <rect y="0.78336" height="0.7488" width="0.70272" x="22.019"  opacity="0.5" fill="#FFFFFF" id="Reflex_extra"/>
    </g>
   </g>
  </g>
 </g>
 <g partID="855120430">
  <g transform="translate(29.4432,69.2229)">
   <g id="breadboard">
    <g transform="matrix(1, 0, 0, 1, 23.4, 93.1999)">
     <g id="micro-usb">
      <polygon points="1.037,1.44,1.037,1.918,0.376,3,0,3" fill="#B3B3B3"/>
      <polygon points="1.037,1.918,1.038,1.918,1.037,2.457,0.376,3" fill="#CCCCCC"/>
      <polygon points="22,3,21.624,3,20.963,1.918,20.963,1.44" fill="#B3B3B3"/>
      <polygon points="21.624,3,20.963,2.457,20.962,1.918,20.963,1.918" fill="#CCCCCC"/>
      <rect height="1.808" width="19.923" x="1.039" fill="#E6E6E6"/>
      <polygon points="1.586,0,1.039,0,1.039,1.808,1.458,1.808" fill="#F2F2F2"/>
      <rect y="0.946999" height="0.659999" width="17.973" x="2.015" fill="#B3B3B3"/>
      <rect y="1.497" height="0.313" width="17.973" x="2.015" fill="#CCCCCC"/>
     </g>
    </g>
    <g id="PCB">
     <path d="M59.7999,0l-47,0C5.79999,0,0,5.69999,0,12.8l0,61.6999c0,0.2,0.0999999,0.4,0.3,0.499999l5,2.3c0.2,0.0999999,0.3,0.3,0.3,0.499999l0,17.2c0.2,1.1,1.1,2,2.2,2l13.6,0c0.3,0,0.599999,-0.3,0.599999,-0.599999L22,93.9999c0,-0.499999,0.4,-0.799999,0.799999,-0.799999L46,93.1999c0.5,0,0.899999,0.4,0.899999,0.799999l0,2.3c0,0.3,0.3,0.599999,0.599999,0.599999l23.1,0c1.1,0,2,-0.899999,2,-2L72.5999,12.8C72.5999,5.69999,66.8999,0,59.7999,0zM3.9,72.2999c-0.699999,0,-1.3,-0.599999,-1.3,-1.3s0.599999,-1.3,1.3,-1.3s1.3,0.599999,1.3,1.3S4.6,72.2999,3.9,72.2999zM3.9,65.0999c-0.699999,0,-1.3,-0.599999,-1.3,-1.3c0,-0.699999,0.599999,-1.3,1.3,-1.3s1.3,0.599999,1.3,1.3C5.19999,64.4999,4.6,65.0999,3.9,65.0999zM3.9,57.8999c-0.699999,0,-1.3,-0.599999,-1.3,-1.3c0,-0.699999,0.599999,-1.3,1.3,-1.3s1.3,0.599999,1.3,1.3C5.19999,57.2999,4.6,57.8999,3.9,57.8999zM3.9,50.6999c-0.699999,0,-1.3,-0.599999,-1.3,-1.3s0.599999,-1.3,1.3,-1.3s1.3,0.599999,1.3,1.3S4.6,50.6999,3.9,50.6999zM3.9,43.4999c-0.699999,0,-1.3,-0.599999,-1.3,-1.3s0.599999,-1.3,1.3,-1.3s1.3,0.599999,1.3,1.3S4.6,43.4999,3.9,43.4999zM3.9,36.3c-0.699999,0,-1.3,-0.599999,-1.3,-1.3s0.599999,-1.3,1.3,-1.3s1.3,0.599999,1.3,1.3S4.6,36.3,3.9,36.3zM3.9,29.1c-0.699999,0,-1.3,-0.599999,-1.3,-1.3c0,-0.699999,0.599999,-1.3,1.3,-1.3s1.3,0.599999,1.3,1.3C5.19999,28.5,4.6,29.1,3.9,29.1zM3.9,21.9c-0.699999,0,-1.3,-0.599999,-1.3,-1.3c0,-0.699999,0.599999,-1.3,1.3,-1.3s1.3,0.599999,1.3,1.3C5.19999,21.3,4.6,21.9,3.9,21.9zM68.6999,72.2999c-0.699999,0,-1.3,-0.599999,-1.3,-1.3s0.599999,-1.3,1.3,-1.3c0.699999,0,1.3,0.599999,1.3,1.3S69.3999,72.2999,68.6999,72.2999zM68.6999,65.0999c-0.699999,0,-1.3,-0.599999,-1.3,-1.3c0,-0.699999,0.599999,-1.3,1.3,-1.3c0.699999,0,1.3,0.599999,1.3,1.3C69.9999,64.4999,69.3999,65.0999,68.6999,65.0999zM68.6999,57.8999c-0.699999,0,-1.3,-0.599999,-1.3,-1.3c0,-0.699999,0.599999,-1.3,1.3,-1.3c0.699999,0,1.3,0.599999,1.3,1.3C69.9999,57.2999,69.3999,57.8999,68.6999,57.8999zM68.6999,50.6999c-0.699999,0,-1.3,-0.599999,-1.3,-1.3s0.599999,-1.3,1.3,-1.3c0.699999,0,1.3,0.599999,1.3,1.3S69.3999,50.6999,68.6999,50.6999zM68.6999,43.4999c-0.699999,0,-1.3,-0.599999,-1.3,-1.3s0.599999,-1.3,1.3,-1.3c0.699999,0,1.3,0.599999,1.3,1.3S69.3999,43.4999,68.6999,43.4999zM68.6999,36.3c-0.699999,0,-1.3,-0.599999,-1.3,-1.3s0.599999,-1.3,1.3,-1.3c0.699999,0,1.3,0.599999,1.3,1.3S69.3999,36.3,68.6999,36.3zM68.6999,29.1c-0.699999,0,-1.3,-0.599999,-1.3,-1.3c0,-0.699999,0.599999,-1.3,1.3,-1.3c0.699999,0,1.3,0.599999,1.3,1.3C69.9999,28.5,69.3999,29.1,68.6999,29.1zM68.6999,21.9c-0.699999,0,-1.3,-0.599999,-1.3,-1.3c0,-0.699999,0.599999,-1.3,1.3,-1.3c0.699999,0,1.3,0.599999,1.3,1.3C69.9999,21.3,69.3999,21.9,68.6999,21.9z" fill="#0d4c75" id="Board"/>
    </g>
    <g transform="matrix(1, 0, 0, 1, 0.2835, 0)">
     <g id="centered">
      <g display="none" id="esp-placeholder">
       <rect y="0" height="68.0309" width="45.354" x="13.323" opacity="0.1" fill="#FFFFFF"/>
      </g>
     </g>
    </g>
    <g transform="matrix(1, 0, 0, 1, 0.2835, 0)">
     <g id="centered">
      <g stroke="#EEEEEE" stroke-linecap="round" stroke-width="0.4" fill="none" id="labels1">
       <g transform="matrix(1, 0, 0, 1, 0, 17), rotate(-90, 32, 27)">
        <g id="left-labels">
         <g>
          <path d="M50.997,4.72999L50.997,2.47M50.997,2.47l1.098,0M52.0949,2.47l0.387,0.387M52.4819,2.857l0,0.774999M52.4819,3.632l-0.387,0.323M52.0949,3.955l-1.098,0M51.7069,3.955l0.774999,0.774999M54.7429,2.857L54.3549,2.47M54.3549,2.47l-0.709999,0M53.6449,2.47l-0.388,0.387M53.2569,2.857l0,0.388M53.2569,3.245l0.388,0.387M53.6449,3.632l0.709999,0M54.3549,3.632l0.388,0.323M54.7429,3.955l0,0.388M54.7429,4.34299L54.3549,4.72999M54.3549,4.72999l-0.709999,0M53.6449,4.72999l-0.388,-0.387M56.2929,4.72999L56.2929,2.47M55.5179,2.47l1.485,0" id="RST"/>
          <path d="M44.927,4.69799L44.927,3.212M44.927,3.212l0.709999,-0.709999M45.637,2.502l0.774999,0.709999M46.412,3.212l0,1.486M44.927,3.6l1.485,0M47.188,4.37499l0,-1.55M47.188,2.825l0.387,-0.323M47.575,2.502l0.709999,0M48.285,2.502l0.388,0.323M48.673,2.825l0,1.55M48.673,4.37499l-0.388,0.323M48.285,4.69799l-0.709999,0M47.575,4.69799l-0.387,-0.323M47.188,4.37499l1.485,-1.55" id="A0"/>
          <path d="M37.727,2.47l0,2.26M37.727,4.72999l1.098,0M38.825,4.72999l0.387,-0.387M39.212,4.34299L39.212,2.857M39.212,2.857L38.825,2.47M38.825,2.47l-1.098,0M39.987,4.34299L39.987,2.857M39.987,2.857l0.388,-0.387M40.375,2.47l0.709999,0M41.085,2.47l0.388,0.387M41.473,2.857l0,1.486M41.473,4.34299L41.085,4.72999M41.085,4.72999l-0.709999,0M40.375,4.72999l-0.388,-0.387M39.987,4.34299l1.486,-1.486" id="D0"/>
          <path d="M30.527,2.47l0,2.26M30.527,4.72999l1.098,0M31.625,4.72999l0.388,-0.387M32.013,4.34299L32.013,2.857M32.013,2.857L31.625,2.47M31.625,2.47l-1.098,0M34.273,2.47l-1.485,0M32.788,2.47l0,1.098M32.788,3.568l0.774999,-0.388M33.563,3.18l0.322,0M33.885,3.18l0.388,0.388M34.273,3.568l0,0.774999M34.273,4.34299L33.885,4.72999M33.885,4.72999l-0.709999,0M33.175,4.72999l-0.387,-0.387" id="D5"/>
          <path d="M23.327,2.47l0,2.26M23.327,4.72999l1.098,0M24.425,4.72999l0.387,-0.387M24.812,4.34299L24.812,2.857M24.812,2.857L24.425,2.47M24.425,2.47l-1.098,0M27.073,2.47l-0.709999,0.387M26.363,2.857l-0.774999,0.774999M25.588,3.632l0,0.710999M25.588,4.34299l0.387,0.387M25.975,4.72999l0.709999,0M26.685,4.72999l0.388,-0.387M27.073,4.34299L27.073,3.955M27.073,3.955l-0.388,-0.323M26.685,3.632l-1.097,0" id="D6"/>
          <path d="M16.127,2.47l0,2.26M16.127,4.72999l1.098,0M17.225,4.72999l0.387,-0.387M17.612,4.34299L17.612,2.857M17.612,2.857L17.225,2.47M17.225,2.47l-1.098,0M18.388,2.47l1.485,0M19.873,2.47l0,0.387M19.873,2.857l-1.485,1.486M18.388,4.34299L18.388,4.72999" id="D7"/>
          <path d="M8.92699,2.47l0,2.26M8.92699,4.72999l1.098,0M10.025,4.72999l0.387,-0.387M10.412,4.34299L10.412,2.857M10.412,2.857L10.025,2.47M10.025,2.47L8.92699,2.47M11.188,2.857l0.387,-0.387M11.575,2.47l0.709999,0M12.285,2.47l0.388,0.387M12.673,2.857l0,0.388M12.673,3.245l-0.388,0.387M12.285,3.632l0.388,0.388M12.673,4.02l0,0.323M12.673,4.34299L12.285,4.72999M12.285,4.72999l-0.709999,0M11.575,4.72999l-0.387,-0.387M11.188,4.34299L11.188,4.02M11.188,4.02l0.387,-0.388M11.575,3.632l-0.387,-0.387M11.188,3.245L11.188,2.857M11.575,3.632l0.709999,0" id="D8"/>
          <path d="M0.596999,2.857L0.983999,2.47M0.983999,2.47l0.710999,0M1.695,2.47l0.387,0.387M2.082,2.857L2.082,3.18M2.082,3.18L1.695,3.568M1.695,3.568L1.307,3.568M1.695,3.568l0.387,0.387M2.082,3.955l0,0.388M2.082,4.34299L1.695,4.72999M1.695,4.72999L0.983999,4.72999M0.983999,4.72999L0.596999,4.34299M2.857,2.47l0,1.485M2.857,3.955L3.632,4.72999M3.632,4.72999l0.710999,-0.774999M4.343,3.955L4.343,2.47M5.118,2.857L5.50499,2.47M5.50499,2.47L6.27999,2.47M6.27999,2.47l0.323,0.387M6.60299,2.857L6.60299,3.18M6.60299,3.18L6.27999,3.568M6.27999,3.568L5.89299,3.568M6.27999,3.568l0.323,0.387M6.60299,3.955l0,0.388M6.60299,4.34299L6.27999,4.72999M6.27999,4.72999L5.50499,4.72999M5.50499,4.72999L5.118,4.34299" id="3V3"/>
         </g>
        </g>
       </g>
       <g transform="matrix(1, 0, 0, 1, 50.4, 17), rotate(-90, 34, 24)">
        <g id="right-labels">
         <g>
          <path d="M3.212,2.47L1.727,2.47M1.727,2.47l0,1.098M1.727,3.568l0.709999,-0.388M2.437,3.18l0.388,0M2.825,3.18l0.387,0.388M3.212,3.568l0,0.774999M3.212,4.34299L2.825,4.72999M2.825,4.72999l-0.709999,0M2.115,4.72999L1.727,4.34299M3.988,2.47l0,1.485M3.988,3.955L4.763,4.72999M4.763,4.72999l0.709999,-0.774999M5.47299,3.955L5.47299,2.47" id="5V"/>
          <path d="M11.543,2.857L11.155,2.47M11.155,2.47l-0.709999,0M10.445,2.47l-0.388,0.387M10.057,2.857l0,1.486M10.057,4.34299l0.388,0.387M10.445,4.72999l0.709999,0M11.155,4.72999l0.388,-0.387M11.543,4.34299L11.543,3.568M11.543,3.568l-0.774999,0" id="G"/>
          <path d="M16.127,2.47l0,2.26M16.127,4.72999l1.098,0M17.225,4.72999l0.387,-0.387M17.612,4.34299L17.612,2.857M17.612,2.857L17.225,2.47M17.225,2.47l-1.098,0M19.485,4.72999L19.485,2.47M19.485,2.47l-1.097,1.162M18.388,3.632l1.485,0" id="D4"/>
          <path d="M23.327,2.47l0,2.26M23.327,4.72999l1.098,0M24.425,4.72999l0.387,-0.387M24.812,4.34299L24.812,2.857M24.812,2.857L24.425,2.47M24.425,2.47l-1.098,0M25.588,2.857l0.387,-0.387M25.975,2.47l0.709999,0M26.685,2.47l0.388,0.387M27.073,2.857L27.073,3.18M27.073,3.18l-0.388,0.388M26.685,3.568l-0.322,0M26.685,3.568l0.388,0.387M27.073,3.955l0,0.388M27.073,4.34299L26.685,4.72999M26.685,4.72999l-0.709999,0M25.975,4.72999l-0.387,-0.387" id="D3"/>
          <path d="M30.527,2.47l0,2.26M30.527,4.72999l1.098,0M31.625,4.72999l0.388,-0.387M32.013,4.34299L32.013,2.857M32.013,2.857L31.625,2.47M31.625,2.47l-1.098,0M34.273,4.72999l-1.485,0M32.788,4.72999l1.485,-1.485M34.273,3.245L34.273,2.857M34.273,2.857L33.885,2.47M33.885,2.47l-0.709999,0M33.175,2.47l-0.387,0.387" id="D2"/>
          <path d="M37.727,2.502l0,2.196M37.727,4.69799l1.098,0M38.825,4.69799l0.387,-0.323M39.212,4.37499l0,-1.55M39.212,2.825l-0.387,-0.323M38.825,2.502l-1.098,0M39.987,3.212l0.775999,-0.709999M40.763,2.502l0,2.196M39.987,4.69799l1.486,0" id="D1"/>
          <path d="M44.927,4.72999L44.927,2.47M44.927,2.47l1.098,0M46.025,2.47l0.387,0.387M46.412,2.857l0,0.774999M46.412,3.632l-0.387,0.323M46.025,3.955l-1.098,0M45.637,3.955l0.774999,0.774999M47.188,2.47l1.485,2.26M48.673,2.47l-1.485,2.26" id="RX"/>
          <path d="M52.8369,4.69799L52.8369,2.502M52.1269,2.502l1.485,0M54.3879,2.502l1.485,2.196M55.8729,2.502l-1.485,2.196" id="TX"/>
         </g>
        </g>
       </g>
      </g>
     </g>
    </g>
    <g stroke="#EEEEEE" stroke-linecap="round" fill="none" id="labels2">
     <g transform="matrix(1, 0, 0, 1, 11, 82.9999)">
      <g stroke-width="0.4" id="label-reset">
       <path d="M0,2.26L0,0M0,0l1.098,0M1.098,0l0.387,0.388M1.485,0.388l0,0.774999M1.485,1.163L1.098,1.55M1.098,1.55L0,1.55M0.709999,1.55l0.774999,0.709999M3.746,0L2.26,0M2.26,0l0,2.26M2.26,2.26l1.486,0M2.26,1.163l0.774999,0M6.07099,0.388L5.68299,0M5.68299,0L4.908,0M4.908,0L4.521,0.388M4.521,0.388l0,0.387M4.521,0.774999l0.387,0.388M4.908,1.163l0.774999,0M5.68299,1.163L6.07099,1.55M6.07099,1.55l0,0.323M6.07099,1.873L5.68299,2.26M5.68299,2.26L4.908,2.26M4.908,2.26L4.521,1.873M8.33099,0L6.84599,0M6.84599,0l0,2.26M6.84599,2.26l1.485,0M6.84599,1.163l0.709999,0M9.88099,2.26L9.88099,0M9.10599,0l1.486,0"/>
      </g>
     </g>
     <g transform="matrix(1, 0, 0, 1, 47, 79.9999)">
      <g stroke-width="0.5" id="label-logo">
       <path d="M4.5,0.999999l0,4.22399M4.5,5.22399l2.052,0M6.55199,5.22399L7.27599,4.49999M7.27599,4.49999L7.27599,1.724M7.27599,1.724L6.55199,0.999999M6.55199,0.999999L4.5,0.999999M8.72399,2.448L10.172,0.999999M10.172,0.999999l0,4.22399M8.72399,5.22399L11.5,5.22399" id="label-logo-d1"/>
       <path d="M12.8,4.59999L12.8,2.53M12.8,2.53l0.539999,0M13.34,2.53l0.45,0.539999M13.79,3.07L13.79,4.59999M13.79,3.07l0.539999,-0.539999M14.33,2.53l0.539999,0.539999M14.87,3.07L14.87,4.59999M15.95,2.53l0.539999,0M16.49,2.53L16.49,4.59999M15.95,4.59999l1.08,0M16.49,0.999999l0,0.539999M18.11,4.59999L18.11,2.53M18.11,2.53l1.53,0M19.64,2.53l0.539999,0.539999M20.18,3.07L20.18,4.59999M21.26,2.53l0.539999,0M21.8,2.53L21.8,4.59999M21.26,4.59999l0.989999,0M21.8,0.999999l0,0.539999" id="label-logo-mini"/>
       <path d="M7.17499,10.619l-0.759999,0M6.41499,10.619L5.99999,10.205M5.99999,10.205l0,-0.829999M5.99999,9.37499l0.415,-0.346M6.41499,9.02899l0.759999,0M7.17499,9.02899L7.58999,9.37499M7.58999,9.37499L7.58999,9.78999M7.58999,9.78999L5.99999,9.78999M8.51899,10.619L8.51899,8.19999M8.51899,8.19999l0.828999,0.828999M9.34799,9.02899L10.109,8.19999M10.109,8.19999l0,2.419M11.453,10.619l0.828999,0M12.282,10.619l0.346,-0.413999M12.628,10.205l0,-0.829999M12.628,9.37499l-0.346,-0.346M12.282,9.02899l-0.828999,0M11.453,9.02899l-0.415,0.346M11.038,9.37499l0,0.829999M11.038,10.205l0.415,0.413999M13.626,10.619l1.175,0M14.801,10.619l0.415,-0.413999M15.216,10.205L14.801,9.78999M14.801,9.78999l-0.828999,0M13.972,9.78999l-0.346,-0.414999M13.626,9.37499l0.346,-0.346M13.972,9.02899l1.244,0M16.145,10.619l0,-0.413999M16.145,10.205l0.415,0M16.56,10.205l0,0.413999M16.56,10.619l-0.415,0M19.079,9.02899l-1.244,0M17.835,9.02899L17.42,9.37499M17.42,9.37499l0,0.829999M17.42,10.205l0.415,0.413999M17.835,10.619l1.244,0M21.598,9.02899l-1.244,0M20.354,9.02899l-0.346,0.346M20.008,9.37499l0,0.829999M20.008,10.205l0.346,0.413999M20.354,10.619l1.244,0M4.15,6.99999c2.5,3.5,-0.5,5.19999,-1.2,3.2c-0.599999,2,-3.8,0.599999,-1.8,-3.2" id="label-logo-wemos_cc"/>
      </g>
     </g>
    </g>
    <g transform="matrix(1, 0, 0, 1, 0.2835, 0)">
     <g id="centered">
      <g stroke="#9A916C" stroke-width="1.5" fill="none" id="pads">
       <g transform="matrix(1, 0, 0, 1, 0, 17), rotate(-90, 28.8, 28.8)">
        <g id="pads-left">
         <circle cy="3.6" cx="3.6" r="2.05" class="pad-rst" id="connector0pin"/>
         <circle cy="3.6" cx="10.8" r="2.05" class="pad-a0" id="connector1pin"/>
         <circle cy="3.6" cx="18" r="2.05" class="pad-d0" id="connector2pin"/>
         <circle cy="3.6" cx="25.2" r="2.05" class="pad-d5" id="connector3pin"/>
         <circle cy="3.6" cx="32.4" r="2.05" class="pad-d6" id="connector4pin"/>
         <circle cy="3.6" cx="39.6" r="2.05" class="pad-d7" id="connector5pin"/>
         <circle cy="3.6" cx="46.8" r="2.05" class="pad-d8" id="connector6pin"/>
         <circle cy="3.6" cx="53.9999" r="2.05" class="pad-3v3" id="connector7pin"/>
        </g>
       </g>
       <g transform="matrix(1, 0, 0, 1, 64.7999, 17), rotate(-90, 28.8, 28.8)">
        <g id="pads-right">
         <circle cy="3.6" cx="53.9999" r="2.05" class="pad-5v" id="connector8pin"/>
         <circle cy="3.6" cx="46.8" r="2.05" class="pad-g" id="connector9pin"/>
         <circle cy="3.6" cx="39.6" r="2.05" class="pad-d4" id="connector10pin"/>
         <circle cy="3.6" cx="32.4" r="2.05" class="pad-d3" id="connector11pin"/>
         <circle cy="3.6" cx="25.2" r="2.05" class="pad-d2" id="connector12pin"/>
         <circle cy="3.6" cx="18" r="2.05" class="pad-d1" id="connector13pin"/>
         <circle cy="3.6" cx="10.8" r="2.05" class="pad-rx" id="connector14pin"/>
         <circle cy="3.6" cx="3.6" r="2.05" class="pad-tx" id="connector15pin"/>
        </g>
       </g>
      </g>
     </g>
    </g>
    <g id="components">
     <g id="reset-button">
      <rect y="82.9999" height="6.99999" width="3" x="2.6" opacity="1" fill="#000000"/>
     </g>
     <g fill="#9A916C" id="reset-pads">
      <g id="t">
       <circle cy="83.9999" cx="7.99999" r="1.5" id="pad"/>
       <circle cy="83.9999" cx="7.99999" r="0.749999" fill="#333333" id="pin"/>
      </g>
      <g id="b">
       <circle cy="88.9999" cx="7.99999" r="1.5" id="pad"/>
       <circle cy="88.9999" cx="7.99999" r="0.749999" fill="#333333" id="pin"/>
      </g>
     </g>
     <g fill="#9A916C" id="usb-pads">
      <g id="bl">
       <circle cy="88.9999" cx="26" r="1.5" id="pad-a"/>
       <circle cy="89.9999" cx="26" r="1.5" id="pad-b"/>
       <circle cy="89.4999" cx="26" r="1.5" id="pad-c"/>
       <circle cy="89.4999" cx="26" r="0.749999" fill="#333333" id="pin"/>
      </g>
      <g id="br">
       <circle cy="88.9999" cx="43" r="1.5" id="pad-a"/>
       <circle cy="89.9999" cx="43" r="1.5" id="pad-b"/>
       <circle cy="89.4999" cx="43" r="1.5" id="pad-c"/>
       <circle cy="89.4999" cx="43" r="0.749999" fill="#333333" id="pin"/>
      </g>
      <g id="tl">
       <circle cy="79.9999" cx="28" r="1.5" id="pad-a"/>
       <circle cy="79.9999" cx="29" r="1.5" id="pad-b"/>
       <circle cy="79.9999" cx="28.5" r="1.5" id="pad-c"/>
       <circle cy="79.9999" cx="28.5" r="0.749999" fill="#333333" id="pin"/>
      </g>
      <g id="tr">
       <circle cy="79.9999" cx="41" r="1.5" id="pad-a"/>
       <circle cy="79.9999" cx="40" r="1.5" id="pad-b"/>
       <circle cy="79.9999" cx="40.5" r="1.5" id="pad-c"/>
       <circle cy="79.9999" cx="40.5" r="0.749999" fill="#333333" id="pin"/>
      </g>
     </g>
    </g>
    <g transform="matrix(1, 0, 0, 1, 0.2835, 0)">
     <g id="centered">
      <g transform="matrix(1, 0, 0, 1, 13.323, 0)">
       <g id="ESP8266">
        <g id="pcb">
         <path d="M45.35,23.244L45.35,0L0,0l0,23.243c0.47,0,0.850999,0.381,0.850999,0.850999S0.47,24.944,0,24.944l0,3.968c0.47,0,0.850999,0.381,0.850999,0.850999S0.47,30.613,0,30.613l0,3.968c0.47,0,0.850999,0.381,0.850999,0.850999S0.47,36.282,0,36.282l0,3.968c0.47,0,0.850999,0.381,0.850999,0.850999c0,0.469999,-0.381,0.849999,-0.850999,0.849999l0,3.968c0.47,0,0.850999,0.381,0.850999,0.849999c0,0.469999,-0.381,0.850999,-0.850999,0.850999l0,3.968c0.47,0,0.850999,0.381,0.850999,0.849999S0.47,53.2889,0,53.2889l0,3.968c0.47,0,0.850999,0.381,0.850999,0.849999S0.47,58.9579,0,58.9579l0,3.968c0.47,0,0.850999,0.381,0.850999,0.849999S0.47,64.6279,0,64.6279l0,3.402l7.68199,0c-0.00799999,-0.0479999,-0.029,-0.0909999,-0.029,-0.141c0,-0.469999,0.381,-0.850999,0.850999,-0.850999c0.47,0,0.849999,0.381,0.849999,0.850999c0,0.0499999,-0.02,0.0939999,-0.029,0.141l4.025,0c-0.00799999,-0.0479999,-0.029,-0.0909999,-0.029,-0.141c0,-0.469999,0.381,-0.850999,0.849999,-0.850999c0.47,0,0.850999,0.381,0.850999,0.850999c0,0.0499999,-0.02,0.0939999,-0.029,0.141l4.025,0c-0.00799999,-0.0479999,-0.029,-0.0909999,-0.029,-0.141c0,-0.469999,0.381,-0.850999,0.849999,-0.850999s0.850999,0.381,0.850999,0.850999c0,0.0499999,-0.02,0.0939999,-0.029,0.141l4.025,0c-0.00799999,-0.0479999,-0.029,-0.0909999,-0.029,-0.141c0,-0.469999,0.381,-0.850999,0.849999,-0.850999s0.850999,0.381,0.850999,0.850999c0,0.0499999,-0.02,0.0939999,-0.029,0.141l4.025,0c-0.00799999,-0.0479999,-0.029,-0.0909999,-0.029,-0.141c0,-0.469999,0.381,-0.850999,0.849999,-0.850999s0.850999,0.381,0.850999,0.850999c0,0.0499999,-0.02,0.0939999,-0.029,0.141l4.025,0c-0.00799999,-0.0479999,-0.029,-0.0909999,-0.029,-0.141c0,-0.469999,0.381,-0.850999,0.850999,-0.850999s0.850999,0.381,0.850999,0.850999c0,0.0499999,-0.02,0.0939999,-0.029,0.141l7.67899,0l0,-3.404c-0.468,-0.002,-0.845999,-0.381,-0.845999,-0.849999s0.379,-0.846999,0.845999,-0.849999l0,-3.97c-0.468,-0.002,-0.845999,-0.381,-0.845999,-0.849999s0.379,-0.846999,0.845999,-0.849999l0,-3.97c-0.468,-0.002,-0.845999,-0.381,-0.845999,-0.849999s0.379,-0.846999,0.845999,-0.849999l0,-3.97c-0.468,-0.002,-0.845999,-0.381,-0.845999,-0.849999s0.379,-0.846999,0.845999,-0.849999l0,-3.97c-0.468,-0.002,-0.845999,-0.381,-0.845999,-0.849999s0.379,-0.846999,0.845999,-0.849999l0,-3.97c-0.468,-0.002,-0.845999,-0.381,-0.845999,-0.849999c0,-0.467999,0.379,-0.846999,0.845999,-0.849999l0,-3.97c-0.468,-0.002,-0.845999,-0.381,-0.845999,-0.849999c0,-0.467999,0.379,-0.846999,0.845999,-0.849999l0,-3.97c-0.468,-0.002,-0.845999,-0.381,-0.845999,-0.849999S44.882,23.246,45.35,23.244zM2.835,64.6279c-0.47,0,-0.850999,-0.381,-0.850999,-0.850999s0.381,-0.849999,0.850999,-0.849999s0.849999,0.381,0.849999,0.849999S3.305,64.6279,2.835,64.6279zM2.835,58.9579c-0.47,0,-0.850999,-0.381,-0.850999,-0.850999s0.381,-0.849999,0.850999,-0.849999s0.849999,0.381,0.849999,0.849999S3.305,58.9579,2.835,58.9579zM2.835,53.2889c-0.47,0,-0.850999,-0.381,-0.850999,-0.850999s0.381,-0.849999,0.850999,-0.849999s0.849999,0.381,0.849999,0.849999S3.305,53.2889,2.835,53.2889zM2.835,47.6199c-0.47,0,-0.850999,-0.381,-0.850999,-0.850999c0,-0.469999,0.381,-0.849999,0.850999,-0.849999s0.849999,0.381,0.849999,0.849999C3.685,47.2399,3.305,47.6199,2.835,47.6199zM2.835,41.9509c-0.47,0,-0.850999,-0.381,-0.850999,-0.849999c0,-0.469999,0.381,-0.850999,0.850999,-0.850999s0.849999,0.381,0.849999,0.850999C3.685,41.5709,3.305,41.9509,2.835,41.9509zM2.835,36.282c-0.47,0,-0.850999,-0.381,-0.850999,-0.849999s0.381,-0.850999,0.850999,-0.850999s0.849999,0.381,0.849999,0.850999S3.305,36.282,2.835,36.282zM2.835,30.613c-0.47,0,-0.850999,-0.381,-0.850999,-0.849999s0.381,-0.850999,0.850999,-0.850999s0.849999,0.381,0.849999,0.850999S3.305,30.613,2.835,30.613zM2.835,24.944c-0.47,0,-0.850999,-0.381,-0.850999,-0.849999s0.381,-0.850999,0.850999,-0.850999s0.849999,0.381,0.849999,0.850999S3.305,24.944,2.835,24.944zM42.519,64.6269c-0.47,0,-0.849999,-0.381,-0.849999,-0.850999s0.381,-0.850999,0.849999,-0.850999s0.850999,0.381,0.850999,0.850999S42.989,64.6269,42.519,64.6269zM42.519,58.9579c-0.47,0,-0.849999,-0.381,-0.849999,-0.850999s0.381,-0.850999,0.849999,-0.850999s0.850999,0.381,0.850999,0.850999S42.989,58.9579,42.519,58.9579zM42.519,53.2889c-0.47,0,-0.849999,-0.381,-0.849999,-0.850999s0.381,-0.849999,0.849999,-0.849999s0.850999,0.381,0.850999,0.849999S42.989,53.2889,42.519,53.2889zM42.519,47.6199c-0.47,0,-0.849999,-0.381,-0.849999,-0.850999s0.381,-0.849999,0.849999,-0.849999s0.850999,0.381,0.850999,0.849999S42.989,47.6199,42.519,47.6199zM42.519,41.9509c-0.47,0,-0.849999,-0.381,-0.849999,-0.850999s0.381,-0.849999,0.849999,-0.849999s0.850999,0.381,0.850999,0.849999S42.989,41.9509,42.519,41.9509zM42.519,36.282c-0.47,0,-0.849999,-0.381,-0.849999,-0.850999c0,-0.469999,0.381,-0.849999,0.849999,-0.849999s0.850999,0.381,0.850999,0.849999C43.37,35.901,42.989,36.282,42.519,36.282zM42.519,30.613c-0.47,0,-0.849999,-0.381,-0.849999,-0.849999c0,-0.469999,0.381,-0.850999,0.849999,-0.850999s0.850999,0.381,0.850999,0.850999C43.37,30.232,42.989,30.613,42.519,30.613zM42.519,24.944c-0.47,0,-0.849999,-0.381,-0.849999,-0.849999s0.381,-0.850999,0.849999,-0.850999s0.850999,0.381,0.850999,0.850999S42.989,24.944,42.519,24.944z"/>
        </g>
        <g fill="#9A916C" id="pads">
         <g id="pads-left">
          <path d="M0,22.435l0,0.807999c0.47,0,0.850999,0.381,0.850999,0.850999S0.47,24.944,0,24.944l0,0.807999l4.479,0l0,-3.317L0,22.435zM2.835,24.944c-0.47,0,-0.850999,-0.381,-0.850999,-0.849999s0.381,-0.850999,0.850999,-0.850999s0.849999,0.381,0.849999,0.850999S3.305,24.944,2.835,24.944z" id="pad1-rst"/>
          <path d="M0,28.104l0,0.807999c0.47,0,0.850999,0.381,0.850999,0.850999S0.47,30.613,0,30.613l0,0.807999l4.479,0l0,-3.317L0,28.104zM2.835,30.613c-0.47,0,-0.850999,-0.381,-0.850999,-0.849999s0.381,-0.850999,0.850999,-0.850999s0.849999,0.381,0.849999,0.850999S3.305,30.613,2.835,30.613z" id="pad2-adc"/>
          <path d="M0,33.773l0,0.807999c0.47,0,0.850999,0.381,0.850999,0.850999S0.47,36.282,0,36.282l0,0.807999l4.479,0l0,-3.317L0,33.773zM2.835,36.282c-0.47,0,-0.850999,-0.381,-0.850999,-0.849999s0.381,-0.850999,0.850999,-0.850999s0.849999,0.381,0.849999,0.850999S3.305,36.282,2.835,36.282z" id="pad3-en"/>
          <path d="M0,39.443l0,0.807999c0.47,0,0.850999,0.381,0.850999,0.850999c0,0.469999,-0.381,0.849999,-0.850999,0.849999l0,0.807999l4.479,0l0,-3.317L0,39.443zM2.835,41.9509c-0.47,0,-0.850999,-0.381,-0.850999,-0.849999c0,-0.469999,0.381,-0.850999,0.850999,-0.850999s0.849999,0.381,0.849999,0.850999C3.685,41.5709,3.305,41.9509,2.835,41.9509z" id="pad4-gpio16"/>
          <path d="M0,45.1119l0,0.807999c0.47,0,0.850999,0.381,0.850999,0.849999c0,0.469999,-0.381,0.850999,-0.850999,0.850999l0,0.807999l4.479,0l0,-3.317L0,45.1119zM2.835,47.6199c-0.47,0,-0.850999,-0.381,-0.850999,-0.850999c0,-0.469999,0.381,-0.849999,0.850999,-0.849999s0.849999,0.381,0.849999,0.849999C3.685,47.2399,3.305,47.6199,2.835,47.6199z" id="pad5-gpio14"/>
          <path d="M0,50.7799l0,0.807999c0.47,0,0.850999,0.381,0.850999,0.849999S0.47,53.2889,0,53.2889l0,0.807999l4.479,0L4.479,50.7799L0,50.7799zM2.835,53.2889c-0.47,0,-0.850999,-0.381,-0.850999,-0.850999s0.381,-0.849999,0.850999,-0.849999s0.849999,0.381,0.849999,0.849999S3.305,53.2889,2.835,53.2889z" id="pad6-gpio12"/>
          <path d="M0,56.4489l0,0.807999c0.47,0,0.850999,0.381,0.850999,0.849999S0.47,58.9579,0,58.9579l0,0.807999l4.479,0l0,-3.317L0,56.4489zM2.835,58.9579c-0.47,0,-0.850999,-0.381,-0.850999,-0.850999s0.381,-0.849999,0.850999,-0.849999s0.849999,0.381,0.849999,0.849999S3.305,58.9579,2.835,58.9579z" id="pad7-gpio13"/>
          <path d="M0,62.1179l0,0.807999c0.47,0,0.850999,0.381,0.850999,0.849999S0.47,64.6279,0,64.6279l0,0.807999l4.479,0l0,-3.317L0,62.1189zM2.835,64.6279c-0.47,0,-0.850999,-0.381,-0.850999,-0.850999s0.381,-0.849999,0.850999,-0.849999s0.849999,0.381,0.849999,0.849999S3.305,64.6279,2.835,64.6279z" id="pad8-vcc"/>
         </g>
         <g id="pads-bot">
          <path d="M6.84599,66.3869l0,1.644l0.836999,0c-0.00799999,-0.0479999,-0.029,-0.0919999,-0.029,-0.142c0,-0.469999,0.381,-0.850999,0.850999,-0.850999c0.47,0,0.849999,0.381,0.849999,0.850999c0,0.0499999,-0.02,0.0939999,-0.029,0.142l0.836999,0l0,-1.644L6.84599,66.3869z" id="pad9-cso"/>
          <path d="M12.515,66.3869l0,1.644l0.836999,0c-0.00799999,-0.0479999,-0.029,-0.0919999,-0.029,-0.142c0,-0.469999,0.381,-0.850999,0.849999,-0.850999c0.47,0,0.850999,0.381,0.850999,0.850999c0,0.0499999,-0.02,0.0939999,-0.029,0.142l0.836999,0l0,-1.644L12.515,66.3869z" id="pad10-miso"/>
          <path d="M18.183,66.3869l0,1.644l0.836999,0c-0.00799999,-0.0479999,-0.029,-0.0919999,-0.029,-0.142c0,-0.469999,0.381,-0.850999,0.849999,-0.850999s0.850999,0.381,0.850999,0.850999c0,0.0499999,-0.02,0.0939999,-0.029,0.142L21.5,68.0309l0,-1.644L18.183,66.3869z" id="pad11-gpio9"/>
          <path d="M23.852,66.3869l0,1.644l0.836999,0c-0.00799999,-0.0479999,-0.029,-0.0919999,-0.029,-0.142c0,-0.469999,0.381,-0.850999,0.849999,-0.850999s0.850999,0.381,0.850999,0.850999c0,0.0499999,-0.02,0.0939999,-0.029,0.142l0.836999,0l0,-1.644L23.852,66.3869z" id="pad12-gpio10"/>
          <path d="M29.521,66.3869l0,1.644l0.836999,0c-0.00799999,-0.0479999,-0.029,-0.0919999,-0.029,-0.142c0,-0.469999,0.381,-0.850999,0.849999,-0.850999s0.850999,0.381,0.850999,0.850999c0,0.0499999,-0.02,0.0939999,-0.029,0.142l0.836999,0l0,-1.644L29.521,66.3869z" id="pad13-mosi"/>
          <path d="M35.19,66.3869l0,1.644l0.836999,0c-0.00799999,-0.0479999,-0.029,-0.0919999,-0.029,-0.142c0,-0.469999,0.381,-0.850999,0.850999,-0.850999s0.850999,0.381,0.850999,0.850999c0,0.0499999,-0.02,0.0939999,-0.029,0.142l0.836999,0l0,-1.644L35.19,66.3869z" id="pad14-sclk"/>
         </g>
         <g id="pads-right">
          <path d="M44.503,63.7759c0,-0.469999,0.381,-0.850999,0.850999,-0.850999l0,-0.807999l-4.479,0l0,3.317l4.479,0l0,-0.807999C44.884,64.6269,44.503,64.2459,44.503,63.7759zM42.519,64.6269c-0.47,0,-0.849999,-0.381,-0.849999,-0.850999s0.381,-0.850999,0.849999,-0.850999s0.850999,0.381,0.850999,0.850999S42.989,64.6269,42.519,64.6269z" id="pad15-gnd"/>
          <path d="M44.503,58.1069c0,-0.469999,0.381,-0.850999,0.850999,-0.850999l0,-0.807999l-4.479,0l0,3.317l4.479,0l0,-0.807999C44.884,58.9579,44.503,58.5769,44.503,58.1069zM42.519,58.9579c-0.47,0,-0.849999,-0.381,-0.849999,-0.850999s0.381,-0.850999,0.849999,-0.850999s0.850999,0.381,0.850999,0.850999S42.989,58.9579,42.519,58.9579z" id="pad16-gpio15"/>
          <path d="M44.503,52.4379c0,-0.469999,0.381,-0.849999,0.850999,-0.849999L45.354,50.7799l-4.479,0l0,3.317l4.479,0l0,-0.807999C44.884,53.2889,44.503,52.9079,44.503,52.4379zM42.519,53.2889c-0.47,0,-0.849999,-0.381,-0.849999,-0.850999s0.381,-0.849999,0.849999,-0.849999s0.850999,0.381,0.850999,0.849999S42.989,53.2889,42.519,53.2889z" id="pad17-gpio2"/>
          <path d="M44.503,46.7689c0,-0.469999,0.381,-0.849999,0.850999,-0.849999l0,-0.807999l-4.479,0l0,3.317l4.479,0L45.354,47.6199C44.884,47.6199,44.503,47.2389,44.503,46.7689zM42.519,47.6199c-0.47,0,-0.849999,-0.381,-0.849999,-0.850999s0.381,-0.849999,0.849999,-0.849999s0.850999,0.381,0.850999,0.849999S42.989,47.6199,42.519,47.6199z" id="pad18-gpio0"/>
          <path d="M44.503,41.0999c0,-0.469999,0.381,-0.849999,0.850999,-0.849999l0,-0.807999l-4.479,0l0,3.317l4.479,0l0,-0.807999C44.884,41.9509,44.503,41.5699,44.503,41.0999zM42.519,41.9509c-0.47,0,-0.849999,-0.381,-0.849999,-0.850999s0.381,-0.849999,0.849999,-0.849999s0.850999,0.381,0.850999,0.849999S42.989,41.9509,42.519,41.9509z" id="pad19-gpio4"/>
          <path d="M44.503,35.431c0,-0.469999,0.381,-0.849999,0.850999,-0.849999l0,-0.807999l-4.479,0l0,3.317l4.479,0l0,-0.807999C44.884,36.282,44.503,35.901,44.503,35.431zM42.519,36.282c-0.47,0,-0.849999,-0.381,-0.849999,-0.850999c0,-0.469999,0.381,-0.849999,0.849999,-0.849999s0.850999,0.381,0.850999,0.849999C43.37,35.901,42.989,36.282,42.519,36.282z" id="pad20-gpio5"/>
          <path d="M44.503,29.763c0,-0.469999,0.381,-0.850999,0.850999,-0.850999l0,-0.807999l-4.479,0l0,3.317l4.479,0l0,-0.807999C44.884,30.613,44.503,30.232,44.503,29.763zM42.519,30.613c-0.47,0,-0.849999,-0.381,-0.849999,-0.849999c0,-0.469999,0.381,-0.850999,0.849999,-0.850999s0.850999,0.381,0.850999,0.850999C43.37,30.232,42.989,30.613,42.519,30.613z" id="pad21-rxd0"/>
          <path d="M44.503,24.094c0,-0.469999,0.381,-0.850999,0.850999,-0.850999l0,-0.807999l-4.479,0l0,3.317l4.479,0l0,-0.807999C44.884,24.944,44.503,24.563,44.503,24.094zM42.519,24.944c-0.47,0,-0.849999,-0.381,-0.849999,-0.849999s0.381,-0.850999,0.849999,-0.850999s0.850999,0.381,0.850999,0.850999S42.989,24.944,42.519,24.944z" id="pad22-txd0"/>
         </g>
        </g>
        <g fill="#9A916C" id="antenna">
         <polygon points="43.301,15.289,42.081,15.289,42.081,3.269,36.961,3.269,36.961,10.969,28.617,10.969,28.617,3.269,23.357,3.269,23.357,10.969,15.077,10.969,15.077,3.269,9.96099,3.269,9.96099,15.286,8.74099,15.286,8.74099,3.269,3.697,3.269,3.697,15.289,2.049,15.289,2.049,2.049,16.297,2.049,16.297,9.74899,22.137,9.74899,22.137,2.049,29.837,2.049,29.837,9.74899,35.741,9.74899,35.741,2.049,43.301,2.049"/>
        </g>
        <g id="led">
         <g fill="#FFFFFF" id="silk">
          <polygon points="37.079,19.868,37.079,16.967,40.239,16.967,40.239,16.75,36.844,16.75,36.844,20.085,40.239,20.085,40.239,19.868"/>
          <polygon points="41.036,16.75,41.036,16.967,44.196,16.967,44.196,19.868,41.036,19.868,41.036,20.085,44.431,20.085,44.431,16.75"/>
         </g>
         <g transform="matrix(-1, -1.21645e-10, 1.21645e-10, -1, 77.0229, 36.835)">
          <rect y="17.218" height="2.4" width="2.4" x="37.312" fill="#9A916C" id="led-pad-left"/>
         </g>
         <g transform="matrix(-1, -1.21645e-10, 1.21645e-10, -1, 85.5269, 36.835)">
          <rect y="17.218" height="2.4" width="2.4" x="41.563" fill="#9A916C" id="led-pad-right"/>
         </g>
         <path d="M43.07,18.418c0,-0.313,0.254,-0.566999,0.566999,-0.566999l0,-0.432999l-5.99999,0l0,0.432999c0.313,0,0.566999,0.254,0.566999,0.566999c0,0.313,-0.254,0.566999,-0.566999,0.566999l0,0.432999l5.99999,0l0,-0.432999C43.324,18.985,43.07,18.731,43.07,18.418z" fill="#CDCCCC" id="led-outer"/>
         <rect y="17.418" height="2" width="4" x="38.637" fill="#3D55A5" id="led-blue"/>
        </g>
        <g stroke="#9A916C" stroke-linecap="round" stroke-width="0.2" opacity="0.5" fill="#333333" id="holes">
         <g id="holes-right">
          <circle cy="60.8999" cx="43.7" r="0.549999"/>
          <circle cy="55.2999" cx="43.7" r="0.549999"/>
          <circle cy="49.5999" cx="43.7" r="0.549999"/>
          <circle cy="43.8999" cx="43.7" r="0.549999"/>
          <circle cy="38.3" cx="43.7" r="0.549999"/>
          <circle cy="32.6" cx="43.7" r="0.549999"/>
          <circle cy="26.9" cx="43.7" r="0.549999"/>
          <circle cy="21.2" cx="43.7" r="0.549999"/>
         </g>
         <g id="holes-left">
          <circle cy="60.8999" cx="1.7" r="0.549999"/>
          <circle cy="55.2999" cx="1.7" r="0.549999"/>
          <circle cy="49.5999" cx="1.6" r="0.549999"/>
          <circle cy="43.8999" cx="1.7" r="0.549999"/>
          <circle cy="38.3" cx="1.7" r="0.549999"/>
          <circle cy="32.6" cx="1.7" r="0.549999"/>
          <circle cy="26.9" cx="1.6" r="0.549999"/>
         </g>
         <g id="holes-top">
          <circle cy="18.15" cx="1.65" r="0.549999"/>
          <circle cy="18.15" cx="3.35" r="0.549999"/>
          <circle cy="18.15" cx="5.05" r="0.549999"/>
          <circle cy="18.15" cx="6.74999" r="0.549999"/>
         </g>
         <g id="holes-bot">
          <circle cy="19.85" cx="1.65" r="0.549999"/>
          <circle cy="19.85" cx="3.35" r="0.549999"/>
          <circle cy="19.85" cx="5.05" r="0.549999"/>
          <circle cy="19.85" cx="6.74999" r="0.549999"/>
         </g>
         <g id="holes-top-2">
          <circle cy="18.15" cx="11.65" r="0.549999"/>
          <circle cy="18.15" cx="13.35" r="0.549999"/>
          <circle cy="18.15" cx="15.05" r="0.549999"/>
          <circle cy="18.15" cx="16.75" r="0.549999"/>
          <circle cy="18.15" cx="18.45" r="0.549999"/>
          <circle cy="18.15" cx="20.15" r="0.549999"/>
          <circle cy="18.15" cx="21.85" r="0.549999"/>
          <circle cy="18.15" cx="23.55" r="0.549999"/>
          <circle cy="18.15" cx="25.25" r="0.549999"/>
          <circle cy="18.15" cx="26.95" r="0.549999"/>
          <circle cy="18.15" cx="28.65" r="0.549999"/>
          <circle cy="18.15" cx="30.35" r="0.549999"/>
          <circle cy="18.15" cx="32.05" r="0.549999"/>
          <circle cy="18.15" cx="33.75" r="0.549999"/>
          <circle cy="18.15" cx="35.45" r="0.549999"/>
         </g>
         <g id="holes-bot-2">
          <circle cy="19.85" cx="11.65" r="0.549999"/>
          <circle cy="19.85" cx="13.35" r="0.549999"/>
          <circle cy="19.85" cx="15.05" r="0.549999"/>
          <circle cy="19.85" cx="16.75" r="0.549999"/>
          <circle cy="19.85" cx="18.45" r="0.549999"/>
          <circle cy="19.85" cx="20.15" r="0.549999"/>
          <circle cy="19.85" cx="21.85" r="0.549999"/>
          <circle cy="19.85" cx="23.55" r="0.549999"/>
          <circle cy="19.85" cx="25.25" r="0.549999"/>
          <circle cy="19.85" cx="26.95" r="0.549999"/>
          <circle cy="19.85" cx="28.65" r="0.549999"/>
         </g>
        </g>
        <g fill="#FFFFFF" id="cover">
         <rect y="21.26" height="43.1999" width="34.2" x="5.57499" fill="#999999" id="main"/>
         <g id="shadows">
          <polygon points="39.275,21.891,39.275,63.9599,6.07499,63.9599,6.07499,63.8279,5.35399,64.7389,5.57499,64.9599,39.775,64.9599,40.275,64.4599,40.275,21.26,39.996,20.981" fill="#CCCCCC" id="bottom-right"/>
          <polygon points="6.07499,21.76,39.275,21.76,39.275,21.891,39.996,20.981,39.775,20.76,5.57499,20.76,5.075,21.26,5.075,64.4599,5.35399,64.7389,6.07499,63.8279" fill="#666666" id="top-left"/>
         </g>
         <g id="wemos-logo">
          <path d="M37.964,27.034l0,0.623999c-0.335,0.243,-0.741999,0.438999,-1.129,0.17c-2.053,-1.03,-4.391,-1.664,-6.69599,-1.322c-0.911999,0.168,-1.92,0.476999,-2.449,1.301c-0.521999,0.876999,-0.163,1.995,0.419,2.748c0.295,0.423999,0.850999,0.442999,1.294,0.618999c0.465,0.136,0.505,0.855999,0.151,1.129c-0.524999,0.279,-1.172,0.365,-1.58,0.831999c-0.650999,0.676999,-0.831999,1.856,-0.189,2.598c0.631999,0.691999,1.617,0.904999,2.516,0.949999c1.684,0.0519999,3.393,-0.365,4.847,-1.221c0.629999,-0.355,1.101,-0.928999,1.731,-1.279c0.484,-0.12,0.934999,0.425999,0.696999,0.874999c-0.432,0.866999,-1.337,1.365,-2.161,1.8c-1.922,0.887999,-4.081,1.467,-6.20399,1.12c-1.51,-0.273,-3,-1.368,-3.212,-2.974l0,-1.064c0.179,-0.865999,0.659999,-1.63,1.327,-2.204c-0.635999,-0.721999,-1.18,-1.557,-1.327,-2.526l0,-0.767999c0.0919999,-0.775999,0.421,-1.535,1.008,-2.064c1.024,-0.949999,2.456,-1.281,3.812,-1.38l1.357,0c1.667,0.234,3.309,0.659999,4.862,1.31C37.411,26.456,37.714,26.727,37.964,27.034z" id="wemos-logo-w"/>
          <path d="M30.546,40.415c-0.593999,-1.423,-2.767,-1.727,-3.769,-0.590999c-0.700999,0.896999,-0.550999,2.15,-0.207,3.159c0.308,0.00699999,0.616999,0.017,0.924999,0.026c-0.428,-0.859999,-0.586999,-2.387,0.642999,-2.636c0.041,1.009,0.00699999,2.019,0.021,3.028c0.616999,-0.017,1.297,0.00599999,1.815,-0.385C30.795,42.4559,30.888,41.2749,30.546,40.415zM29.883,41.4499c0.011,0.513999,-0.537999,0.674999,-0.936999,0.788999c-0.017,-0.620999,-0.017,-1.239,-0.002,-1.86C29.402,40.548,29.967,40.875,29.883,41.4499z" id="wemos-logo-e"/>
          <path d="M32.315,44.3389c0.00699999,0.648999,0.00599999,1.297,0.00599999,1.946c-1.436,0.547999,-2.869,1.109,-4.324,1.604c1.451,0.517999,2.888,1.067,4.324,1.623c0,0.629999,0,1.258,0,1.888c-1.974,-0.004,-3.948,-0.002,-5.92199,0c0.002,-0.444999,0.002,-0.889999,0.011,-1.335c1.626,0.011,3.255,0.03,4.879,0.03c-1.681,-0.418999,-3.258,-1.155,-4.888,-1.727c0,-0.353,0,-0.706999,-0.002,-1.06c1.626,-0.612999,3.217,-1.35,4.903,-1.783c-1.628,0.00899999,-3.26,0.022,-4.892,0.041c-0.00699999,-0.408,-0.00899999,-0.814999,-0.00899999,-1.223C28.372,44.3499,30.343,44.3539,32.315,44.3389z" id="wemos-logo-m"/>
          <path d="M30.208,53.8539c0.638999,1.191,-0.554999,2.815,-1.886,2.44c-1.338,-0.29,-1.742,-2.24,-0.653999,-3.056C28.449,52.4999,29.823,52.8849,30.208,53.8539z" id="wemos-logo-o"/>
          <path d="M35.339,49.2889c1.166,1.163,2.034,2.658,2.253,4.30699c0.368,2.311,-0.556999,4.70099,-2.226,6.30699c-0.297,-0.288,-0.595999,-0.571999,-0.894999,-0.855999c1.273,-1.202,2.026,-2.954,1.931,-4.71099c-0.0639999,-1.585,-0.816999,-3.088,-1.952,-4.18199C34.745,49.8649,35.044,49.5769,35.339,49.2889z" id="wemos-logo-wifi-fan-3"/>
          <path d="M33.79,50.7339c1.256,1.138,1.918,2.894,1.669,4.57799c-0.123,1.217,-0.792999,2.29,-1.608,3.172c-0.327,-0.323,-0.661999,-0.638999,-1.002,-0.947999c0.883999,-0.868999,1.41,-2.116,1.243,-3.363c-0.0819999,-0.958999,-0.593999,-1.815,-1.252,-2.496C33.16,51.3679,33.477,51.0529,33.79,50.7339z" id="wemos-logo-wifi-fan-2"/>
          <path d="M32.214,52.2409c0.564999,0.633999,1.024,1.417,1.024,2.288c0.049,0.919999,-0.4,1.778,-1.011,2.436c-0.318,-0.312,-0.642999,-0.616999,-0.971999,-0.915999c0.790999,-0.775999,0.808999,-2.101,-0.013,-2.862C31.571,52.8759,31.896,52.5619,32.214,52.2409z" id="wemos-logo-wifi-fan-1"/>
          <path d="M30.378,58.0559c0.497,0.769999,0.361,1.742,0.206,2.595c-0.323,0.002,-0.648999,0.004,-0.971999,0.011c0.252,-0.640999,0.439,-1.411,-0.0539999,-1.995c-0.793999,0.562999,-0.577999,1.89,-1.591,2.225L27.31,60.8919c-1.217,-0.577999,-1.159,-2.221,-0.822999,-3.32c0.333,-0.0599999,0.672999,-0.0599999,1.009,-0.0799999c-0.207,0.577999,-0.467,1.2,-0.288,1.823c0.039,0.275,0.2,0.389,0.482,0.338c0.439,-0.571999,0.434,-1.393,0.979999,-1.896C29.187,57.3549,30.038,57.4819,30.378,58.0559z" id="wemos-logo-s"/>
         </g>
         <g id="words">
          <g id="model">
           <path d="M23.58,25.248l0,1.018l-1.525,0.393l1.525,0.39l0,1.018l-2.506,0l0,-0.633999l1.91,0l-1.91,-0.487999L21.074,26.37l1.91,-0.487999l-1.91,0l0,-0.633999L23.58,25.248z" id="model-m"/>
           <path d="M22.325,28.463c0.409,0,0.727999,0.114,0.954999,0.342c0.229,0.228,0.342,0.544999,0.342,0.951999c0,0.416999,-0.111,0.737999,-0.336,0.963999c-0.224,0.226,-0.536999,0.338,-0.939999,0.338c-0.293,0,-0.532999,-0.0489999,-0.720999,-0.148s-0.333,-0.241,-0.438,-0.426999c-0.104,-0.186,-0.156,-0.417999,-0.156,-0.695999c0,-0.283,0.045,-0.516999,0.135,-0.701999c0.0909999,-0.185,0.232,-0.335,0.428,-0.449999S22.032,28.463,22.325,28.463zM22.322,29.237c-0.254,0,-0.436,0.0469999,-0.545999,0.141c-0.11,0.0939999,-0.165,0.222,-0.165,0.384c0,0.166,0.0539999,0.295,0.162,0.386c0.108,0.0909999,0.303,0.137,0.581999,0.137c0.236,0,0.408,-0.0469999,0.517999,-0.143c0.108,-0.0949999,0.163,-0.224,0.163,-0.387c0,-0.156,-0.0559999,-0.282,-0.166,-0.376C22.76,29.284,22.577,29.237,22.322,29.237z" id="model-o"/>
           <path d="M23.58,31.485l0,1.15c0,0.227,-0.031,0.41,-0.0929999,0.548999s-0.149,0.255,-0.265,0.346c-0.115,0.0909999,-0.249,0.157,-0.402,0.198c-0.152,0.041,-0.314,0.0619999,-0.484,0.0619999c-0.269,0,-0.476,-0.031,-0.622999,-0.0919999s-0.271,-0.146,-0.371,-0.254c-0.0999999,-0.108,-0.166,-0.224,-0.199,-0.349c-0.046,-0.169,-0.0679999,-0.323,-0.0679999,-0.460999l0,-1.15L23.58,31.484zM23.012,32.26l-1.368,0l0,0.189c0,0.162,0.018,0.277,0.0539999,0.345s0.0989999,0.122,0.188,0.161c0.0899999,0.039,0.234,0.0579999,0.436,0.0579999c0.266,0,0.447,-0.0429999,0.544999,-0.13s0.146,-0.23,0.146,-0.430999L23.013,32.26z" id="model-d"/>
           <path d="M23.58,34.196l0,2.074l-0.534999,0l0,-1.299l-0.398,0l0,1.205l-0.511,0l0,-1.205l-0.494,0l0,1.337l-0.566999,0l0,-2.112L23.58,34.196z" id="model-e"/>
           <path d="M23.58,36.725l0,0.773999l-1.889,0l0,1.208l-0.616999,0l0,-1.982L23.58,36.725z" id="model-l"/>
          </g>
          <g id="esp-8266">
           <path d="M23.58,41.2549l0,2.074l-0.534999,0L23.045,42.0299l-0.398,0l0,1.205l-0.511,0L22.136,42.0299l-0.494,0l0,1.337l-0.566999,0l0,-2.112L23.58,41.2549z" id="esp-e"/>
           <path d="M21.903,43.6479l0.046,0.735999c-0.119,0.017,-0.211,0.0489999,-0.273,0.0979999c-0.102,0.0799999,-0.152,0.193,-0.152,0.342c0,0.11,0.026,0.195,0.0779999,0.256c0.0519999,0.0599999,0.111,0.0899999,0.18,0.0899999c0.0649999,0,0.123,-0.029,0.175,-0.0859999s0.0999999,-0.189,0.146,-0.396c0.0759999,-0.34,0.178,-0.581999,0.304,-0.726999c0.127,-0.146,0.288,-0.219,0.483,-0.219c0.129,0,0.251,0.037,0.365,0.112c0.114,0.0739999,0.205,0.187,0.271,0.337c0.0649999,0.149,0.0979999,0.354,0.0979999,0.615999c0,0.319,-0.0599999,0.562999,-0.179,0.730999s-0.309,0.269,-0.567999,0.301l-0.042,-0.729999c0.112,-0.02,0.194,-0.0599999,0.246,-0.122c0.051,-0.0619999,0.0769999,-0.147,0.0769999,-0.257c0,-0.0899999,-0.02,-0.158,-0.0579999,-0.203c-0.038,-0.0459999,-0.0849999,-0.0679999,-0.14,-0.0679999c-0.04,0,-0.0749999,0.019,-0.107,0.0559999c-0.033,0.037,-0.0629999,0.123,-0.0919999,0.26c-0.0729999,0.339,-0.147,0.580999,-0.222,0.727999c-0.0749999,0.146,-0.167,0.253,-0.278,0.319c-0.11,0.0659999,-0.233,0.101,-0.37,0.101c-0.161,0,-0.309,-0.0449999,-0.444,-0.134s-0.238,-0.213,-0.309,-0.372c-0.0699999,-0.16,-0.105,-0.361,-0.105,-0.603999c0,-0.426999,0.0819999,-0.721999,0.246,-0.885999S21.65,43.6699,21.903,43.6479z" id="esp-s"/>
           <path d="M23.58,46.3079l0,1.287c0,0.28,-0.0669999,0.489999,-0.2,0.629999c-0.134,0.14,-0.323,0.209,-0.568999,0.209c-0.253,0,-0.45,-0.0759999,-0.592999,-0.228c-0.143,-0.152,-0.214,-0.385,-0.214,-0.696999l0,-0.423999l-0.929999,0l0,-0.776999L23.58,46.3079zM22.512,47.0849l0,0.19c0,0.149,0.025,0.254,0.0769999,0.314s0.118,0.0899999,0.199,0.0899999c0.0789999,0,0.146,-0.025,0.2,-0.0779999s0.0819999,-0.151,0.0819999,-0.296l0,-0.221L22.512,47.0839z" id="esp-p"/>
           <path d="M22.257,48.6599l0,1.012l-0.537999,0L21.719,48.6599L22.257,48.6599z" id="esp-dash"/>
           <path d="M22.421,50.3109c0.0579999,-0.109,0.123,-0.189,0.194,-0.239c0.0989999,-0.0679999,0.211,-0.103,0.339,-0.103c0.21,0,0.381,0.0979999,0.514999,0.295c0.103,0.154,0.153,0.357,0.153,0.609999c0,0.335,-0.0629999,0.581999,-0.191,0.741999c-0.127,0.16,-0.288,0.24,-0.481,0.24c-0.113,0,-0.219,-0.031,-0.316,-0.0959999c-0.0729999,-0.0479999,-0.144,-0.123,-0.212,-0.226c-0.0649999,0.136,-0.151,0.237,-0.258,0.304c-0.107,0.0659999,-0.226,0.0999999,-0.355,0.0999999c-0.126,0,-0.242,-0.028,-0.352,-0.0859999c-0.108,-0.0579999,-0.192,-0.128,-0.252,-0.212s-0.103,-0.188,-0.131,-0.312c-0.027,-0.125,-0.042,-0.258,-0.042,-0.399c0,-0.266,0.031,-0.467999,0.0939999,-0.607999c0.0629999,-0.14,0.155,-0.247,0.277,-0.319c0.122,-0.0729999,0.258,-0.109,0.408,-0.109c0.147,0,0.271,0.034,0.374,0.103C22.286,50.0619,22.365,50.1679,22.421,50.3109zM21.835,50.5849c-0.11,0,-0.201,0.034,-0.271,0.102c-0.0689999,0.0659999,-0.104,0.144,-0.104,0.23c0,0.0829999,0.035,0.157,0.106,0.224s0.161,0.0999999,0.271,0.0999999c0.111,0,0.201,-0.034,0.272,-0.101c0.0699999,-0.0659999,0.105,-0.144,0.105,-0.231c0,-0.0869999,-0.034,-0.162,-0.103,-0.227S21.951,50.5849,21.835,50.5849zM22.913,50.6229c-0.0869999,0,-0.156,0.026,-0.209,0.0809999c-0.0539999,0.0539999,-0.0799999,0.126,-0.0799999,0.216c0,0.0799999,0.026,0.146,0.0789999,0.197c0.0519999,0.0509999,0.12,0.0759999,0.203,0.0759999c0.0869999,0,0.157,-0.026,0.211,-0.0799999c0.0549999,-0.0539999,0.0809999,-0.122,0.0809999,-0.205c0,-0.0839999,-0.026,-0.153,-0.0789999,-0.206S22.997,50.6229,22.913,50.6229z" id="esp-8"/>
           <path d="M21.074,54.2639l0,-2.089c0.206,0.024,0.4,0.0969999,0.581999,0.218c0.182,0.122,0.396,0.35,0.643999,0.683999c0.151,0.203,0.267,0.334,0.345,0.391c0.0789999,0.0579999,0.153,0.0859999,0.225,0.0859999c0.0759999,0,0.141,-0.028,0.195,-0.0849999c0.0539999,-0.0569999,0.0809999,-0.127,0.0809999,-0.213c0,-0.0889999,-0.028,-0.161,-0.0839999,-0.218s-0.154,-0.0939999,-0.296,-0.113l0.0569999,-0.696999c0.196,0.027,0.35,0.0769999,0.459,0.15c0.11,0.0719999,0.194,0.176,0.253,0.309s0.0879999,0.316,0.0879999,0.550999c0,0.245,-0.027,0.435999,-0.0829999,0.570999c-0.0569999,0.137,-0.142,0.243,-0.258,0.321c-0.115,0.0779999,-0.245,0.117,-0.389,0.117c-0.152,0,-0.299,-0.0449999,-0.438,-0.134c-0.139,-0.0899999,-0.292,-0.252,-0.458,-0.487999c-0.0969999,-0.14,-0.165,-0.233,-0.203,-0.281c-0.039,-0.0469999,-0.0899999,-0.103,-0.152,-0.166l0,1.087L21.074,54.2649z" id="esp-2"/>
           <path d="M23.016,56.5749l-0.0859999,-0.691999c0.0979999,-0.018,0.166,-0.0489999,0.205,-0.0909999c0.04,-0.0429999,0.0609999,-0.0959999,0.0609999,-0.158c0,-0.113,-0.0579999,-0.201,-0.171,-0.264c-0.0819999,-0.0449999,-0.258,-0.0789999,-0.525999,-0.101c0.0839999,0.0829999,0.146,0.169,0.187,0.257c0.041,0.0869999,0.0619999,0.188,0.0619999,0.304c0,0.224,-0.0799999,0.411999,-0.24,0.565999c-0.159,0.154,-0.361,0.231,-0.605999,0.231c-0.165,0,-0.315,-0.039,-0.452,-0.117s-0.24,-0.186,-0.311,-0.324s-0.105,-0.312,-0.105,-0.520999c0,-0.251,0.043,-0.451999,0.129,-0.603999c0.0849999,-0.151,0.222,-0.272,0.409,-0.363c0.188,-0.0899999,0.436,-0.136,0.743999,-0.136c0.452,0,0.782999,0.0959999,0.992999,0.286c0.211,0.189,0.315,0.452999,0.315,0.790999c0,0.199,-0.022,0.356,-0.0689999,0.472999c-0.046,0.115,-0.113,0.211,-0.202,0.288C23.262,56.4779,23.15,56.5349,23.016,56.5749zM21.899,55.2939c-0.136,0,-0.241,0.034,-0.318,0.103s-0.115,0.151,-0.115,0.251c0,0.0909999,0.034,0.167,0.104,0.229c0.0689999,0.0619999,0.173,0.0929999,0.311,0.0929999c0.142,0,0.249,-0.032,0.323,-0.0959999c0.0739999,-0.0639999,0.11,-0.144,0.11,-0.237c0,-0.0979999,-0.035,-0.179,-0.107,-0.244C22.136,55.3259,22.033,55.2939,21.899,55.2939z" id="esp-6"/>
           <path d="M23.016,58.9099l-0.0859999,-0.691999c0.0979999,-0.018,0.166,-0.0489999,0.205,-0.0909999c0.04,-0.0429999,0.0609999,-0.0959999,0.0609999,-0.158c0,-0.113,-0.0579999,-0.201,-0.171,-0.264c-0.0819999,-0.0449999,-0.258,-0.0789999,-0.525999,-0.101c0.0839999,0.0829999,0.146,0.169,0.187,0.257c0.041,0.0869999,0.0619999,0.188,0.0619999,0.304c0,0.224,-0.0799999,0.411999,-0.24,0.565999c-0.159,0.154,-0.361,0.231,-0.605999,0.231c-0.165,0,-0.315,-0.039,-0.452,-0.117s-0.24,-0.186,-0.311,-0.324s-0.105,-0.312,-0.105,-0.520999c0,-0.251,0.043,-0.451999,0.129,-0.603999c0.0849999,-0.151,0.222,-0.272,0.409,-0.363c0.188,-0.0899999,0.436,-0.136,0.743999,-0.136c0.452,0,0.782999,0.0959999,0.992999,0.286c0.211,0.189,0.315,0.452999,0.315,0.790999c0,0.199,-0.022,0.356,-0.0689999,0.472999c-0.046,0.115,-0.113,0.211,-0.202,0.288C23.262,58.8119,23.15,58.8699,23.016,58.9099zM21.899,57.6289c-0.136,0,-0.241,0.034,-0.318,0.103s-0.115,0.151,-0.115,0.251c0,0.0909999,0.034,0.167,0.104,0.229c0.0689999,0.0619999,0.173,0.0929999,0.311,0.0929999c0.142,0,0.249,-0.032,0.323,-0.0959999c0.0739999,-0.0639999,0.11,-0.144,0.11,-0.237c0,-0.0979999,-0.035,-0.179,-0.107,-0.244C22.136,57.6609,22.033,57.6289,21.899,57.6289z" id="esp-6"/>
          </g>
          <g id="ism">
           <path d="M19.067,41.2459l0,0.664999L16.92,41.9109l0,-0.664999L19.067,41.2459z" id="ism-i"/>
           <path d="M17.631,42.2709l0.039,0.630999c-0.103,0.014,-0.181,0.0419999,-0.234,0.0839999c-0.0869999,0.0679999,-0.131,0.166,-0.131,0.293c0,0.0949999,0.022,0.167,0.0669999,0.219c0.044,0.0509999,0.0959999,0.0769999,0.154,0.0769999c0.0559999,0,0.105,-0.024,0.149,-0.0729999s0.0849999,-0.162,0.125,-0.34c0.0639999,-0.291,0.152,-0.498999,0.26,-0.622999c0.109,-0.125,0.247,-0.188,0.415,-0.188c0.11,0,0.215,0.032,0.312,0.0959999c0.0989999,0.0639999,0.176,0.16,0.231,0.289c0.0569999,0.128,0.0839999,0.305,0.0839999,0.527999c0,0.274,-0.051,0.482999,-0.152,0.626999c-0.103,0.145,-0.265,0.23,-0.487,0.258l-0.036,-0.625999c0.0959999,-0.017,0.166,-0.0519999,0.211,-0.104c0.043,-0.0539999,0.0649999,-0.127,0.0649999,-0.221c0,-0.0769999,-0.017,-0.135,-0.049,-0.174c-0.033,-0.039,-0.0729999,-0.0589999,-0.12,-0.0589999c-0.034,0,-0.0639999,0.016,-0.0919999,0.0479999c-0.028,0.031,-0.0549999,0.105,-0.0789999,0.223c-0.0619999,0.29,-0.126,0.497999,-0.189,0.622999c-0.0639999,0.126,-0.144,0.217,-0.238,0.274c-0.0949999,0.0569999,-0.2,0.0859999,-0.317,0.0859999c-0.139,0,-0.266,-0.038,-0.381,-0.114c-0.117,-0.0759999,-0.205,-0.183,-0.265,-0.319c-0.0609999,-0.137,-0.0909999,-0.31,-0.0909999,-0.517999c0,-0.365,0.0699999,-0.617999,0.211,-0.758999S17.414,42.2899,17.631,42.2709z" id="ism-s"/>
           <path d="M19.067,44.5459l0,0.872999l-1.307,0.337l1.307,0.334l0,0.871999L16.92,46.9619l0,-0.543999l1.638,0l-1.638,-0.418999l0,-0.490999l1.638,-0.417999L16.92,45.0899l0,-0.543999L19.067,44.5459z" id="ism-m"/>
           <path d="M16.92,50.0349l0,-1.79c0.177,0.021,0.343,0.0829999,0.499,0.187c0.155,0.104,0.339,0.299,0.551999,0.584999c0.129,0.175,0.229,0.287,0.295,0.336c0.0679999,0.0489999,0.132,0.0729999,0.192,0.0729999c0.0649999,0,0.121,-0.024,0.168,-0.0719999c0.046,-0.0489999,0.0689999,-0.109,0.0689999,-0.183c0,-0.0759999,-0.024,-0.139,-0.0719999,-0.187c-0.048,-0.0489999,-0.132,-0.0809999,-0.253,-0.0979999l0.048,-0.597999c0.168,0.023,0.3,0.0659999,0.394,0.129c0.0949999,0.0619999,0.167,0.15,0.217,0.265c0.051,0.113,0.0749999,0.271,0.0749999,0.471999c0,0.21,-0.023,0.373,-0.0709999,0.489999c-0.048,0.116,-0.121,0.208,-0.221,0.275c-0.0989999,0.0659999,-0.21,0.101,-0.333,0.101c-0.131,0,-0.256,-0.039,-0.375,-0.115c-0.119,-0.0769999,-0.25,-0.216,-0.393,-0.417999c-0.0829999,-0.12,-0.142,-0.201,-0.174,-0.241c-0.034,-0.041,-0.0769999,-0.0879999,-0.131,-0.143l0,0.931999L16.92,50.0349z" id="ism-2"/>
           <path d="M17.518,50.3489l0,0.636999L16.92,50.9859l0,-0.636999L17.518,50.3489z" id="ism-dot"/>
           <path d="M17.321,52.3139l0,-1.087l0.491,0l1.291,1.087l0,0.519999l-1.319,0l0,0.27l-0.463,0l0,-0.27L16.92,52.8339l0,-0.519999L17.321,52.3139zM17.784,52.3139l0.675999,0l-0.675999,-0.573999L17.784,52.3139z" id="ism-4"/>
           <path d="M17.697,54.4659l0.447,0l0,1.025l-0.915999,0c-0.134,-0.196,-0.225,-0.369,-0.272,-0.520999c-0.049,-0.15,-0.0729999,-0.33,-0.0729999,-0.536999c0,-0.255,0.044,-0.462999,0.131,-0.622999c0.0869999,-0.161,0.216,-0.285,0.389,-0.373c0.171,-0.0889999,0.369,-0.133,0.591999,-0.133c0.234,0,0.438,0.0479999,0.610999,0.145c0.173,0.0969999,0.305,0.238,0.395,0.424999c0.0689999,0.146,0.104,0.342,0.104,0.587999c0,0.237,-0.021,0.413999,-0.0639999,0.531999c-0.043,0.117,-0.109,0.216,-0.199,0.293c-0.0909999,0.0779999,-0.205,0.136,-0.344,0.175l-0.114,-0.639999c0.0809999,-0.026,0.143,-0.0709999,0.187,-0.134c0.042,-0.0629999,0.0639999,-0.144,0.0639999,-0.241c0,-0.146,-0.051,-0.262,-0.152,-0.348c-0.101,-0.0869999,-0.261,-0.13,-0.479,-0.13c-0.232,0,-0.398,0.0429999,-0.498,0.131c-0.0999999,0.0869999,-0.149,0.209,-0.149,0.365c0,0.0739999,0.011,0.146,0.032,0.213s0.0579999,0.145,0.11,0.231l0.201,0L17.7,54.4659z" id="ism-g"/>
           <path d="M19.067,55.8889l0,0.662999l-0.750999,0l0,0.725999l0.750999,0l0,0.665999L16.92,57.9439l0,-0.665999l0.868999,0l0,-0.725999L16.92,56.5519l0,-0.662999L19.067,55.8889z" id="ism-h"/>
           <path d="M18.476,58.2769l0,1.443l-0.349,0l-0.799999,-0.784999l0,0.832999L16.92,59.7679l0,-1.55l0.387,0l0.761999,0.745999l0,-0.687999L18.476,58.2759z" id="ism-z"/>
          </g>
          <g id="pa">
           <path d="M15.067,41.2169l0,1.103c0,0.24,-0.0579999,0.419999,-0.171,0.539999c-0.115,0.119,-0.277,0.18,-0.488,0.18c-0.217,0,-0.387,-0.0649999,-0.508,-0.195c-0.123,-0.131,-0.184,-0.33,-0.184,-0.597999l0,-0.363L12.92,41.8839l0,-0.665999L15.067,41.2179zM14.152,41.8829l0,0.163c0,0.128,0.021,0.218,0.0659999,0.27c0.044,0.0519999,0.101,0.0769999,0.17,0.0769999c0.0679999,0,0.125,-0.022,0.172,-0.0669999s0.0699999,-0.129,0.0699999,-0.253l0,-0.189L14.152,41.8839z" id="pa-p"/>
           <path d="M13.274,44.4509l0,-0.752999l-0.354,-0.104l0,-0.677999l2.147,0.806999l0,0.723999l-2.147,0.807999l0,-0.694999L13.274,44.4509zM13.738,44.3129l0.771999,-0.237l-0.771999,-0.234L13.738,44.3129z" id="pa-a"/>
           <path d="M14.229,46.4319l0,0.560999l0.562999,0l0,0.473999l-0.562999,0l0,0.562999l-0.474,0l0,-0.562999l-0.561999,0l0,-0.473999l0.561999,0l0,-0.560999L14.229,46.4319z" id="pa-plus"/>
           <path d="M12.92,50.0949l0,-1.79c0.177,0.021,0.343,0.0829999,0.499,0.187c0.155,0.104,0.339,0.3,0.551999,0.585999c0.129,0.175,0.229,0.286,0.295,0.335c0.0679999,0.0489999,0.132,0.0729999,0.192,0.0729999c0.0649999,0,0.121,-0.024,0.168,-0.0719999c0.046,-0.0489999,0.0689999,-0.109,0.0689999,-0.183c0,-0.0759999,-0.024,-0.139,-0.0719999,-0.187c-0.048,-0.0489999,-0.132,-0.0809999,-0.253,-0.0979999l0.048,-0.597999c0.168,0.023,0.3,0.0659999,0.394,0.129c0.0949999,0.0619999,0.167,0.15,0.217,0.265c0.051,0.113,0.0749999,0.271,0.0749999,0.472999c0,0.21,-0.023,0.373,-0.0709999,0.488999c-0.048,0.117,-0.121,0.209,-0.221,0.275c-0.0989999,0.0669999,-0.21,0.101,-0.333,0.101c-0.131,0,-0.256,-0.038,-0.375,-0.115c-0.119,-0.0759999,-0.25,-0.216,-0.393,-0.417999c-0.0829999,-0.12,-0.142,-0.2,-0.174,-0.241c-0.034,-0.04,-0.0769999,-0.0879999,-0.131,-0.143l0,0.931999L12.92,50.0949z" id="pa-2"/>
           <path d="M15.067,50.5919l0,1.416l-0.476,0l0,-0.958999l-0.322,-0.0519999c0.03,0.0659999,0.0539999,0.132,0.0699999,0.197c0.015,0.0639999,0.023,0.129,0.023,0.192c0,0.215,-0.0649999,0.39,-0.195,0.522999s-0.294,0.2,-0.49,0.2c-0.14,0,-0.272,-0.034,-0.4,-0.104c-0.128,-0.0679999,-0.226,-0.166,-0.293,-0.293c-0.0669999,-0.126,-0.102,-0.288,-0.102,-0.484999c0,-0.142,0.014,-0.263,0.041,-0.364c0.026,-0.101,0.0659999,-0.187,0.12,-0.258c0.0529999,-0.0699999,0.113,-0.128,0.181,-0.172s0.151,-0.0799999,0.252,-0.109l0.0659999,0.603999c-0.0979999,0.015,-0.171,0.0489999,-0.221,0.103c-0.051,0.0539999,-0.0759999,0.117,-0.0759999,0.191c0,0.0829999,0.032,0.151,0.0949999,0.206c0.0629999,0.0539999,0.157,0.0809999,0.282,0.0809999c0.128,0,0.222,-0.027,0.281,-0.0819999s0.0899999,-0.127,0.0899999,-0.218c0,-0.0579999,-0.015,-0.113,-0.043,-0.167c-0.021,-0.04,-0.0579999,-0.0839999,-0.111,-0.132l0.0729999,-0.508999L15.067,50.5919z" id="pa-5"/>
           <path d="M15.067,54.0459L12.92,54.0459l0,-0.558999l0.23,0c-0.0989999,-0.0779999,-0.164,-0.149,-0.198,-0.214c-0.045,-0.0859999,-0.0669999,-0.182,-0.0669999,-0.287c0,-0.212,0.0799999,-0.374,0.242,-0.484999c0.16,-0.112,0.356,-0.168,0.586999,-0.168c0.258,0,0.455,0.0619999,0.591999,0.186c0.137,0.123,0.205,0.28,0.205,0.470999c0,0.0929999,-0.016,0.177,-0.047,0.253c-0.031,0.0749999,-0.0779999,0.143,-0.141,0.201l0.743999,0L15.067,54.0459zM13.702,53.4479c0.122,0,0.213,-0.026,0.273,-0.0779999c0.0599999,-0.0519999,0.0899999,-0.117,0.0899999,-0.196c0,-0.0689999,-0.029,-0.127,-0.0869999,-0.174s-0.154,-0.0699999,-0.289,-0.0699999c-0.128,0,-0.221,0.023,-0.279,0.0719999c-0.0599999,0.0479999,-0.0889999,0.108,-0.0889999,0.18c0,0.0759999,0.029,0.14,0.0889999,0.19S13.567,53.4479,13.702,53.4479z" id="pa-d"/>
           <path d="M15.067,54.4499l0,1.242c0,0.207,-0.0519999,0.365,-0.153,0.476999c-0.104,0.11,-0.23,0.166,-0.381,0.166c-0.128,0,-0.236,-0.039,-0.327,-0.118c-0.0609999,-0.0529999,-0.108,-0.13,-0.144,-0.231c-0.037,0.154,-0.101,0.268,-0.191,0.34c-0.0899999,0.0729999,-0.204,0.109,-0.34,0.109c-0.111,0,-0.212,-0.025,-0.301,-0.0769999s-0.159,-0.123,-0.211,-0.213c-0.032,-0.0559999,-0.0559999,-0.14,-0.0699999,-0.252c-0.02,-0.149,-0.029,-0.248,-0.029,-0.297L12.92,54.4499L15.067,54.4499zM13.381,55.1189l0,0.339c0,0.114,0.021,0.194,0.0619999,0.241c0.04,0.0469999,0.0949999,0.0699999,0.163,0.0699999c0.0629999,0,0.114,-0.023,0.153,-0.0689999c0.038,-0.0469999,0.0579999,-0.128,0.0579999,-0.244l0,-0.337L13.381,55.1189zM14.225,55.1189l0,0.289c0,0.104,0.019,0.175,0.0539999,0.216c0.036,0.04,0.0869999,0.0609999,0.155,0.0609999c0.0619999,0,0.111,-0.021,0.146,-0.0609999c0.035,-0.041,0.0529999,-0.111,0.0529999,-0.212l0,-0.293L14.225,55.1189z" id="pa-b"/>
           <path d="M14.476,56.7469l0,0.556999l-0.228,0c0.0949999,0.0799999,0.162,0.161,0.203,0.242c0.039,0.0819999,0.0599999,0.181,0.0599999,0.296c0,0.124,-0.022,0.223,-0.0649999,0.295c-0.045,0.0719999,-0.11,0.132,-0.197,0.178c0.102,0.0939999,0.171,0.179,0.208,0.256c0.036,0.0769999,0.0549999,0.172,0.0549999,0.285c0,0.167,-0.05,0.297,-0.148,0.391c-0.0999999,0.0939999,-0.255,0.141,-0.466,0.141L12.92,59.3879l0,-0.597999l0.886999,0c0.0699999,0,0.122,-0.014,0.156,-0.041c0.0539999,-0.04,0.0799999,-0.0899999,0.0799999,-0.149c0,-0.0689999,-0.025,-0.126,-0.0759999,-0.169s-0.132,-0.0639999,-0.244,-0.0639999L12.92,58.3669l0,-0.597999l0.856999,0c0.0669999,0,0.114,-0.004,0.139,-0.012c0.039,-0.013,0.0699999,-0.034,0.0949999,-0.0659999c0.023,-0.031,0.036,-0.0669999,0.036,-0.109c0,-0.0689999,-0.026,-0.125,-0.0779999,-0.17c-0.0519999,-0.0439999,-0.137,-0.0649999,-0.255,-0.0649999L12.92,57.3469l0,-0.597999L14.476,56.7489z" id="pa-m"/>
          </g>
          <g id="802">
           <path d="M10.074,41.4809c0.05,-0.0939999,0.105,-0.162,0.167,-0.205c0.0839999,-0.0589999,0.181,-0.0879999,0.29,-0.0879999c0.18,0,0.326,0.0849999,0.441,0.254c0.0879999,0.132,0.131,0.306,0.131,0.521999c0,0.287,-0.0549999,0.498999,-0.164,0.636999c-0.109,0.137,-0.247,0.206,-0.412,0.206c-0.0979999,0,-0.188,-0.027,-0.271,-0.0819999c-0.0619999,-0.041,-0.123,-0.105,-0.182,-0.193c-0.0559999,0.116,-0.13,0.203,-0.221,0.26c-0.0929999,0.0579999,-0.193,0.0859999,-0.305,0.0859999c-0.108,0,-0.208,-0.025,-0.302,-0.0739999c-0.0929999,-0.0499999,-0.165,-0.109,-0.216,-0.182c-0.051,-0.0709999,-0.0879999,-0.161,-0.112,-0.268c-0.023,-0.107,-0.036,-0.222,-0.036,-0.343c0,-0.228,0.027,-0.401,0.0809999,-0.520999s0.133,-0.211,0.237,-0.273s0.221,-0.0939999,0.35,-0.0939999c0.127,0,0.233,0.029,0.32,0.0879999C9.95899,41.2699,10.026,41.3589,10.074,41.4809zM9.57199,41.7179c-0.0959999,0,-0.173,0.028,-0.232,0.0859999c-0.0609999,0.0579999,-0.0899999,0.124,-0.0899999,0.198c0,0.0709999,0.03,0.135,0.0909999,0.191c0.0619999,0.0569999,0.139,0.0849999,0.232,0.0849999c0.0949999,0,0.172,-0.028,0.233,-0.0849999c0.0599999,-0.0579999,0.0899999,-0.124,0.0899999,-0.199c0,-0.0739999,-0.029,-0.139,-0.0879999,-0.193C9.74999,41.7449,9.67199,41.7179,9.57199,41.7179zM10.496,41.7499c-0.0739999,0,-0.134,0.022,-0.18,0.0689999c-0.045,0.0459999,-0.0679999,0.108,-0.0679999,0.186c0,0.0679999,0.022,0.124,0.0679999,0.168c0.044,0.0439999,0.103,0.0659999,0.174,0.0659999c0.0739999,0,0.135,-0.023,0.181,-0.0689999c0.047,-0.0459999,0.0689999,-0.104,0.0689999,-0.176c0,-0.0719999,-0.022,-0.131,-0.0669999,-0.176C10.627,41.7719,10.568,41.7499,10.496,41.7499z" id="802-8"/>
           <path d="M10.002,43.1239c0.408,0,0.693999,0.0729999,0.856999,0.221c0.163,0.146,0.244,0.37,0.244,0.670999c0,0.145,-0.018,0.264,-0.0529999,0.356c-0.036,0.0929999,-0.0819999,0.168,-0.14,0.227c-0.0569999,0.0589999,-0.117,0.105,-0.18,0.139c-0.0629999,0.034,-0.137,0.0609999,-0.221,0.0809999c-0.16,0.04,-0.327,0.0609999,-0.501,0.0609999c-0.39,0,-0.674999,-0.0659999,-0.854999,-0.198S8.88299,44.3219,8.88299,43.9999c0,-0.181,0.029,-0.327,0.0869999,-0.437999s0.142,-0.202,0.253,-0.273c0.0799999,-0.0519999,0.188,-0.0929999,0.325,-0.121C9.68499,43.1379,9.83599,43.1239,10.002,43.1239zM10.001,43.7159c-0.273,0,-0.46,0.024,-0.560999,0.0719999c-0.0999999,0.0489999,-0.149,0.118,-0.149,0.21c0,0.0609999,0.021,0.113,0.0629999,0.158c0.042,0.0439999,0.109,0.0759999,0.201,0.0979999c0.0919999,0.021,0.234,0.031,0.429,0.031c0.285,0,0.478,-0.023,0.574999,-0.0719999c0.0989999,-0.0479999,0.147,-0.121,0.147,-0.218c0,-0.0989999,-0.05,-0.17,-0.15,-0.214C10.457,43.7369,10.271,43.7159,10.001,43.7159z" id="802-0"/>
           <path d="M8.91999,46.8709l0,-1.79c0.177,0.021,0.343,0.0829999,0.499,0.187c0.155,0.104,0.339,0.299,0.551999,0.584999c0.129,0.175,0.229,0.287,0.295,0.336c0.0679999,0.0489999,0.132,0.0729999,0.192,0.0729999c0.0649999,0,0.121,-0.024,0.168,-0.0719999c0.046,-0.0489999,0.0689999,-0.109,0.0689999,-0.183c0,-0.0759999,-0.024,-0.139,-0.0719999,-0.187c-0.048,-0.0489999,-0.132,-0.0809999,-0.253,-0.0979999l0.048,-0.597999c0.168,0.023,0.3,0.0659999,0.394,0.129c0.0949999,0.0619999,0.167,0.15,0.217,0.265c0.051,0.113,0.0749999,0.271,0.0749999,0.471999c0,0.21,-0.023,0.373,-0.0709999,0.489999c-0.048,0.116,-0.121,0.208,-0.221,0.275c-0.0989999,0.0659999,-0.21,0.101,-0.333,0.101c-0.131,0,-0.256,-0.039,-0.375,-0.115c-0.119,-0.0769999,-0.25,-0.216,-0.393,-0.417999c-0.0829999,-0.12,-0.142,-0.201,-0.174,-0.241c-0.034,-0.041,-0.0769999,-0.0879999,-0.131,-0.143l0,0.931999L8.91999,46.8709z" id="802-2"/>
           <path d="M9.51799,47.1849l0,0.636999L8.91999,47.8219l0,-0.636999L9.51799,47.1849z" id="802-dot"/>
           <path d="M11.104,49.4769L8.91999,49.4769l0,-0.603999l1.432,0c-0.0749999,-0.0979999,-0.135,-0.192,-0.181,-0.283c-0.046,-0.0919999,-0.0899999,-0.206,-0.132,-0.344l0.489,0c0.0649999,0.203,0.144,0.361,0.235,0.473999s0.205,0.2,0.34,0.264L11.103,49.4769z" id="802-1"/>
           <path d="M11.104,51.4779L8.91999,51.4779l0,-0.603999l1.432,0c-0.0749999,-0.0979999,-0.135,-0.192,-0.181,-0.283c-0.046,-0.0919999,-0.0899999,-0.206,-0.132,-0.344l0.489,0c0.0649999,0.203,0.144,0.361,0.235,0.473999s0.205,0.2,0.34,0.264L11.103,51.4779z" id="802-1"/>
           <path d="M11.067,52.1869l0,0.602999l-0.743999,0c0.0619999,0.0599999,0.109,0.127,0.141,0.203c0.031,0.0749999,0.047,0.159,0.047,0.251c0,0.189,-0.0679999,0.346,-0.204,0.469999c-0.137,0.124,-0.332,0.187,-0.586999,0.187c-0.17,0,-0.319,-0.028,-0.449,-0.0849999c-0.129,-0.0569999,-0.226,-0.136,-0.29,-0.235c-0.0629999,-0.101,-0.0959999,-0.211,-0.0959999,-0.333c0,-0.104,0.022,-0.2,0.0669999,-0.287c0.035,-0.0649999,0.101,-0.137,0.198,-0.214L8.91999,52.7469l0,-0.558999L11.067,52.1879zM9.70199,52.7839c-0.134,0,-0.23,0.025,-0.291,0.0759999c-0.0599999,0.0499999,-0.0899999,0.113,-0.0899999,0.19c0,0.0709999,0.029,0.132,0.0889999,0.18c0.0589999,0.0489999,0.158,0.0719999,0.298,0.0719999c0.123,0,0.213,-0.023,0.271,-0.0699999c0.0579999,-0.0479999,0.0869999,-0.105,0.0869999,-0.173c0,-0.0809999,-0.03,-0.146,-0.0899999,-0.198C9.91499,52.8109,9.82399,52.7839,9.70199,52.7839z" id="802-b"/>
           <path d="M11.104,54.5419l0,0.305l-2.221,-0.538999l0,-0.302L11.104,54.5419z" id="802-slash"/>
           <path d="M10.476,56.1009l0,0.558999l-1.47,0L8.93799,56.6599c-0.0979999,0,-0.19,-0.021,-0.279,-0.0619999c-0.0879999,-0.041,-0.159,-0.0969999,-0.215,-0.165C8.38999,56.3629,8.34999,56.2759,8.32499,56.1699c-0.024,-0.105,-0.036,-0.227,-0.036,-0.363c0,-0.312,0.047,-0.526999,0.141,-0.644999c0.0939999,-0.116,0.219,-0.175,0.376,-0.175c0.02,0,0.046,0.000999999,0.0789999,0.003l-0.0659999,0.578999c-0.0529999,0.015,-0.0899999,0.037,-0.111,0.0669999c-0.029,0.0439999,-0.045,0.0989999,-0.045,0.165c0,0.0859999,0.023,0.15,0.0679999,0.192c0.047,0.0429999,0.127,0.0639999,0.24,0.0639999l0.236,0c-0.0689999,-0.0589999,-0.12,-0.117,-0.15,-0.176c-0.05,-0.0919999,-0.0739999,-0.191,-0.0739999,-0.298c0,-0.208,0.0919999,-0.376,0.273,-0.503999c0.129,-0.0909999,0.299,-0.136,0.511,-0.136c0.242,0,0.427,0.0589999,0.553999,0.176s0.19,0.271,0.19,0.459999c0,0.121,-0.021,0.221,-0.0619999,0.299c-0.041,0.0789999,-0.109,0.152,-0.203,0.221L10.476,56.0989zM9.72099,55.5399c-0.112,0,-0.195,0.023,-0.249,0.0709999c-0.0549999,0.0479999,-0.0809999,0.111,-0.0809999,0.189c0,0.0739999,0.027,0.136,0.0839999,0.187c0.0559999,0.0499999,0.141,0.0749999,0.254,0.0749999s0.2,-0.026,0.26,-0.0789999c0.0609999,-0.0529999,0.0899999,-0.117,0.0899999,-0.193s-0.027,-0.137,-0.0819999,-0.183C9.93999,55.5619,9.84899,55.5399,9.72099,55.5399z" id="802-g"/>
           <path d="M11.104,57.3769l0,0.305l-2.221,-0.539999l0,-0.301L11.104,57.3769z" id="802-slash"/>
           <path d="M10.476,57.8529l0,0.555999l-0.253,0c0.103,0.0829999,0.177,0.167,0.222,0.252c0.044,0.0849999,0.0659999,0.188,0.0659999,0.311c0,0.165,-0.049,0.294,-0.147,0.388c-0.0979999,0.0929999,-0.25,0.14,-0.455,0.14L8.91999,59.4999l0,-0.599999l0.854999,0c0.0979999,0,0.167,-0.018,0.207,-0.0539999c0.041,-0.036,0.0609999,-0.0869999,0.0609999,-0.152c0,-0.0719999,-0.027,-0.131,-0.0819999,-0.176s-0.152,-0.0669999,-0.294,-0.0669999L8.91999,58.4509l0,-0.596999L10.476,57.8539z" id="802-n"/>
          </g>
         </g>
         <g transform="scale(0.01, 0.01) translate(1900,2750) rotate(90)">
          <g id="fcc-logo">
           <path d="M-59.5859,362.388L-59.5859,222.066L80.8219,222.066l216.211,0L297.033,81.6529l-356.62,0C-137.163,81.6529,-200,144.49,-200,222.066L-200,999.999l140.413,0L-59.5869,600.673l280.818,0L221.231,476.52L-59.5859,476.52L-59.5859,362.388z" id="fcc-logo-f"/>
           <path d="M938.018,730.975l0,-0.17c-55.1719,72.9389,-141.925,120.868,-240.477,120.868c-167.023,0,-302.466,-135.355,-302.466,-302.548c0,-167.028,135.442,-302.466,302.466,-302.466c98.5509,0,185.304,47.8409,240.477,120.868l171.403,0C1039.51,209.261,881.668,98.4999,697.541,98.4999c-248.98,0,-450.709,201.811,-450.709,450.79C246.833,798.187,448.65,999.999,697.541,999.999c184.209,0,341.969,-110.761,411.962,-269.024L938.018,730.975z" id="fcc-logo-c-outer"/>
           <path d="M694.256,418.654c40.346,0,75.8899,18.698,99.8979,47.4199l160.371,0c-35.375,-110.591,-137.884,-191.283,-260.269,-191.283c-151.524,0,-274.417,122.889,-274.417,274.417c0,151.611,122.893,274.499,274.417,274.499c122.384,0,224.807,-80.6869,260.187,-191.283L794.068,632.424l0,-0.164c-23.92,28.722,-59.5469,47.4199,-99.8109,47.4199c-72.0139,0,-130.471,-58.3699,-130.471,-130.553C563.785,477.107,622.242,418.654,694.256,418.654z" id="fcc-logo-c-inner"/>
          </g>
         </g>
        </g>
       </g>
      </g>
     </g>
    </g>
   </g>
  </g>
 </g>
 <g partID="68660">
  <line stroke="#8c0000" stroke-linecap="round" x1="184.631" y1="140.02" stroke-width="3.2" x2="98.1266" y2="140.223"/>
  <line stroke="#cc1414" stroke-linecap="round" x1="184.631" y1="140.02" stroke-width="1.6" x2="98.1266" y2="140.223"/>
 </g>
 <g partID="68670">
  <line stroke="#8c0000" stroke-linecap="round" x1="184.494" y1="32.2229" stroke-width="3.2" x2="184.631" y2="140.02"/>
  <line stroke="#cc1414" stroke-linecap="round" x1="184.494" y1="32.2229" stroke-width="1.6" x2="184.631" y2="140.02"/>
 </g>
 <g partID="68920">
  <line stroke="#1b5bb3" stroke-linecap="round" x1="170.045" y1="53.7516" stroke-width="3.2" x2="11.7288" y2="53.8229"/>
  <line stroke="#418dd9" stroke-linecap="round" x1="170.045" y1="53.7516" stroke-width="1.6" x2="11.7288" y2="53.8229"/>
 </g>
 <g partID="68780">
  <line stroke="#1b5bb3" stroke-linecap="round" x1="170.127" y1="32.2229" stroke-width="3.2" x2="170.045" y2="53.7516"/>
  <line stroke="#418dd9" stroke-linecap="round" x1="170.127" y1="32.2229" stroke-width="1.6" x2="170.045" y2="53.7516"/>
 </g>
 <g partID="68860">
  <line stroke="#00a527" stroke-linecap="round" x1="177.129" y1="111.264" stroke-width="3.2" x2="155.727" y2="111.423"/>
  <line stroke="#25cc35" stroke-linecap="round" x1="177.129" y1="111.264" stroke-width="1.6" x2="155.727" y2="111.423"/>
 </g>
 <g partID="68870">
  <line stroke="#00a527" stroke-linecap="round" x1="177.308" y1="32.2229" stroke-width="3.2" x2="177.129" y2="111.264"/>
  <line stroke="#25cc35" stroke-linecap="round" x1="177.308" y1="32.2229" stroke-width="1.6" x2="177.129" y2="111.264"/>
 </g>
 <g partID="69240">
  <line stroke="#000000" stroke-linecap="round" x1="4.52664" y1="183.423" stroke-width="3.2" x2="4.52664" y2="53.8229"/>
  <line stroke="#404040" stroke-linecap="round" x1="4.52664" y1="183.423" stroke-width="1.6" x2="4.52664" y2="53.8229"/>
 </g>
 <g partID="855120930">
  <line stroke="#000000" stroke-linecap="round" x1="127.119" y1="132.935" stroke-width="3.2" x2="98.1266" y2="133.023"/>
  <line stroke="#404040" stroke-linecap="round" x1="127.119" y1="132.935" stroke-width="1.6" x2="98.1266" y2="133.023"/>
 </g>
 <g partID="69280">
  <line stroke="#000000" stroke-linecap="round" x1="33.3317" y1="183.423" stroke-width="3.2" x2="127.119" y2="183.363"/>
  <line stroke="#404040" stroke-linecap="round" x1="33.3317" y1="183.423" stroke-width="1.6" x2="127.119" y2="183.363"/>
 </g>
 <g partID="855120860">
  <line stroke="#000000" stroke-linecap="round" x1="127.119" y1="183.363" stroke-width="3.2" x2="127.119" y2="132.935"/>
  <line stroke="#404040" stroke-linecap="round" x1="127.119" y1="183.363" stroke-width="1.6" x2="127.119" y2="132.935"/>
 </g>
 <g partID="69320">
  <line stroke="#00a527" stroke-linecap="round" x1="98.1266" y1="111.423" stroke-width="3.2" x2="126.922" y2="111.423"/>
  <line stroke="#25cc35" stroke-linecap="round" x1="98.1266" y1="111.423" stroke-width="1.6" x2="126.922" y2="111.423"/>
 </g>
</svg>
