<?xml version="1.0" encoding="UTF-8" standalone="no"?>
<!-- Created with Inkscape (http://www.inkscape.org/) -->

<svg
   xmlns:dc="http://purl.org/dc/elements/1.1/"
   xmlns:cc="http://creativecommons.org/ns#"
   xmlns:rdf="http://www.w3.org/1999/02/22-rdf-syntax-ns#"
   xmlns:svg="http://www.w3.org/2000/svg"
   xmlns="http://www.w3.org/2000/svg"
   version="1.1"
   width="203.07375"
   height="101.4825"
   id="svg2"
   xml:space="preserve"><metadata
     id="metadata8"><rdf:RDF><cc:Work
         rdf:about=""><dc:format>image/svg+xml</dc:format><dc:type
           rdf:resource="http://purl.org/dc/dcmitype/StillImage" /><dc:title></dc:title></cc:Work></rdf:RDF></metadata><defs
     id="defs6" /><g
     transform="matrix(1.25,0,0,-1.25,0,101.4825)"
     id="g10"><g
       transform="translate(14.372,7.286)"
       id="g12"><g
         id="g14"><g
           id="g16"><path
             d="m 116.22163,42.5202 28.34682,0"
             id="path18"
             style="fill:none;stroke:#000000;stroke-width:0.3985;stroke-linecap:butt;stroke-linejoin:miter;stroke-miterlimit:10;stroke-opacity:1;stroke-dasharray:none" /><path
             d="m 127.56062,35.43349 5.66886,14.17341"
             id="path20"
             style="fill:none;stroke:#000000;stroke-width:0.3985;stroke-linecap:butt;stroke-linejoin:miter;stroke-miterlimit:10;stroke-opacity:1;stroke-dasharray:none" /><path
             d="m 130.39505,42.5202 0,28.3468"
             id="path22"
             style="fill:none;stroke:#000000;stroke-width:0.3985;stroke-linecap:butt;stroke-linejoin:miter;stroke-miterlimit:10;stroke-opacity:1;stroke-dasharray:none" /><g
             id="g24"><path
               d="m 133.2299,42.5202 c 0,1.56565 -1.26919,2.83486 -2.83485,2.83486 -1.56565,0 -2.83485,-1.26921 -2.83485,-2.83486 0,-1.56566 1.2692,-2.83485 2.83485,-2.83485 1.56566,0 2.83485,1.26919 2.83485,2.83485 z"
               id="path26"
               style="fill:#ffffff;fill-opacity:1;fill-rule:nonzero;stroke:none" /></g><path
             d="m 133.2299,42.5202 c 0,1.56565 -1.26919,2.83486 -2.83485,2.83486 -1.56565,0 -2.83485,-1.26921 -2.83485,-2.83486 0,-1.56566 1.2692,-2.83485 2.83485,-2.83485 1.56566,0 2.83485,1.26919 2.83485,2.83485 z"
             id="path28"
             style="fill:none;stroke:#000000;stroke-width:0.3985;stroke-linecap:butt;stroke-linejoin:miter;stroke-miterlimit:10;stroke-opacity:1;stroke-dasharray:none" /><g
             id="g30"><path
               d="m 133.2299,70.867 c 0,1.56566 -1.26919,2.83486 -2.83485,2.83486 -1.56565,0 -2.83485,-1.2692 -2.83485,-2.83486 0,-1.56564 1.2692,-2.83483 2.83485,-2.83483 1.56566,0 2.83485,1.26919 2.83485,2.83483 z"
               id="path32"
               style="fill:#808080;fill-opacity:1;fill-rule:nonzero;stroke:none" /></g><path
             d="m 133.2299,70.867 c 0,1.56566 -1.26919,2.83486 -2.83485,2.83486 -1.56565,0 -2.83485,-1.2692 -2.83485,-2.83486 0,-1.56564 1.2692,-2.83483 2.83485,-2.83483 1.56566,0 2.83485,1.26919 2.83485,2.83483 z"
             id="path34"
             style="fill:none;stroke:#000000;stroke-width:0.3985;stroke-linecap:butt;stroke-linejoin:miter;stroke-miterlimit:10;stroke-opacity:1;stroke-dasharray:none" /><path
             d="m 110.55237,28.3468 28.3468,0"
             id="path36"
             style="fill:none;stroke:#000000;stroke-width:0.3985;stroke-linecap:butt;stroke-linejoin:miter;stroke-miterlimit:10;stroke-opacity:1;stroke-dasharray:none" /><path
             d="m 121.89136,21.2601 5.66884,14.17339"
             id="path38"
             style="fill:none;stroke:#000000;stroke-width:0.3985;stroke-linecap:butt;stroke-linejoin:miter;stroke-miterlimit:10;stroke-opacity:1;stroke-dasharray:none" /><path
             d="m 124.72578,28.3468 0,28.34682"
             id="path40"
             style="fill:none;stroke:#000000;stroke-width:0.3985;stroke-linecap:butt;stroke-linejoin:miter;stroke-miterlimit:10;stroke-opacity:1;stroke-dasharray:none" /><g
             id="g42"><path
               d="m 127.56062,28.3468 c 0,1.56566 -1.26919,2.83486 -2.83484,2.83486 -1.56565,0 -2.83485,-1.2692 -2.83485,-2.83486 0,-1.56566 1.2692,-2.83485 2.83485,-2.83485 1.56565,0 2.83484,1.26919 2.83484,2.83485 z"
               id="path44"
               style="fill:#ffffff;fill-opacity:1;fill-rule:nonzero;stroke:none" /></g><path
             d="m 127.56062,28.3468 c 0,1.56566 -1.26919,2.83486 -2.83484,2.83486 -1.56565,0 -2.83485,-1.2692 -2.83485,-2.83486 0,-1.56566 1.2692,-2.83485 2.83485,-2.83485 1.56565,0 2.83484,1.26919 2.83484,2.83485 z"
             id="path46"
             style="fill:none;stroke:#000000;stroke-width:0.3985;stroke-linecap:butt;stroke-linejoin:miter;stroke-miterlimit:10;stroke-opacity:1;stroke-dasharray:none" /><g
             id="g48"><path
               d="m 127.56062,56.69362 c 0,1.56564 -1.26919,2.83484 -2.83484,2.83484 -1.56565,0 -2.83485,-1.2692 -2.83485,-2.83484 0,-1.56566 1.2692,-2.83486 2.83485,-2.83486 1.56565,0 2.83484,1.2692 2.83484,2.83486 z"
               id="path50"
               style="fill:#808080;fill-opacity:1;fill-rule:nonzero;stroke:none" /></g><path
             d="m 127.56062,56.69362 c 0,1.56564 -1.26919,2.83484 -2.83484,2.83484 -1.56565,0 -2.83485,-1.2692 -2.83485,-2.83484 0,-1.56566 1.2692,-2.83486 2.83485,-2.83486 1.56565,0 2.83484,1.2692 2.83484,2.83486 z"
             id="path52"
             style="fill:none;stroke:#000000;stroke-width:0.3985;stroke-linecap:butt;stroke-linejoin:miter;stroke-miterlimit:10;stroke-opacity:1;stroke-dasharray:none" /><path
             d="m 104.88309,14.17339 28.34681,0"
             id="path54"
             style="fill:none;stroke:#000000;stroke-width:0.3985;stroke-linecap:butt;stroke-linejoin:miter;stroke-miterlimit:10;stroke-opacity:1;stroke-dasharray:none" /><path
             d="m 116.22208,7.08669 5.66883,14.17341"
             id="path56"
             style="fill:none;stroke:#000000;stroke-width:0.3985;stroke-linecap:butt;stroke-linejoin:miter;stroke-miterlimit:10;stroke-opacity:1;stroke-dasharray:none" /><path
             d="m 119.0565,14.17339 0,28.34681"
             id="path58"
             style="fill:none;stroke:#000000;stroke-width:0.3985;stroke-linecap:butt;stroke-linejoin:miter;stroke-miterlimit:10;stroke-opacity:1;stroke-dasharray:none" /><g
             id="g60"><path
               d="m 121.89136,14.17339 c 0,1.56565 -1.2692,2.83485 -2.83486,2.83485 -1.56564,0 -2.83485,-1.2692 -2.83485,-2.83485 0,-1.56565 1.26921,-2.83484 2.83485,-2.83484 1.56566,0 2.83486,1.26919 2.83486,2.83484 z"
               id="path62"
               style="fill:#ffffff;fill-opacity:1;fill-rule:nonzero;stroke:none" /></g><path
             d="m 121.89136,14.17339 c 0,1.56565 -1.2692,2.83485 -2.83486,2.83485 -1.56564,0 -2.83485,-1.2692 -2.83485,-2.83485 0,-1.56565 1.26921,-2.83484 2.83485,-2.83484 1.56566,0 2.83486,1.26919 2.83486,2.83484 z"
             id="path64"
             style="fill:none;stroke:#000000;stroke-width:0.3985;stroke-linecap:butt;stroke-linejoin:miter;stroke-miterlimit:10;stroke-opacity:1;stroke-dasharray:none" /><g
             id="g66"><path
               d="m 121.89136,42.5202 c 0,1.56565 -1.2692,2.83486 -2.83486,2.83486 -1.56564,0 -2.83485,-1.26921 -2.83485,-2.83486 0,-1.56566 1.26921,-2.83485 2.83485,-2.83485 1.56566,0 2.83486,1.26919 2.83486,2.83485 z"
               id="path68"
               style="fill:#808080;fill-opacity:1;fill-rule:nonzero;stroke:none" /></g><path
             d="m 121.89136,42.5202 c 0,1.56565 -1.2692,2.83486 -2.83486,2.83486 -1.56564,0 -2.83485,-1.26921 -2.83485,-2.83486 0,-1.56566 1.26921,-2.83485 2.83485,-2.83485 1.56566,0 2.83486,1.26919 2.83486,2.83485 z"
             id="path70"
             style="fill:none;stroke:#000000;stroke-width:0.3985;stroke-linecap:butt;stroke-linejoin:miter;stroke-miterlimit:10;stroke-opacity:1;stroke-dasharray:none" /><path
             d="m 99.21382,0 28.3468,0"
             id="path72"
             style="fill:none;stroke:#000000;stroke-width:0.3985;stroke-linecap:butt;stroke-linejoin:miter;stroke-miterlimit:10;stroke-opacity:1;stroke-dasharray:none" /><path
             d="m 110.55281,-7.08669 5.66882,14.17338"
             id="path74"
             style="fill:none;stroke:#000000;stroke-width:0.3985;stroke-linecap:butt;stroke-linejoin:miter;stroke-miterlimit:10;stroke-opacity:1;stroke-dasharray:none" /><path
             d="m 113.38724,0 0,28.3468"
             id="path76"
             style="fill:none;stroke:#000000;stroke-width:0.3985;stroke-linecap:butt;stroke-linejoin:miter;stroke-miterlimit:10;stroke-opacity:1;stroke-dasharray:none" /><g
             id="g78"><path
               d="m 116.22208,0 c 0,1.56564 -1.2692,2.83484 -2.83484,2.83484 -1.56566,0 -2.83486,-1.2692 -2.83486,-2.83484 0,-1.56564 1.2692,-2.83484 2.83486,-2.83484 1.56564,0 2.83484,1.2692 2.83484,2.83484 z"
               id="path80"
               style="fill:#ffffff;fill-opacity:1;fill-rule:nonzero;stroke:none" /></g><path
             d="m 116.22208,0 c 0,1.56564 -1.2692,2.83484 -2.83484,2.83484 -1.56566,0 -2.83486,-1.2692 -2.83486,-2.83484 0,-1.56564 1.2692,-2.83484 2.83486,-2.83484 1.56564,0 2.83484,1.2692 2.83484,2.83484 z"
             id="path82"
             style="fill:none;stroke:#000000;stroke-width:0.3985;stroke-linecap:butt;stroke-linejoin:miter;stroke-miterlimit:10;stroke-opacity:1;stroke-dasharray:none" /><g
             id="g84"><path
               d="m 116.22208,28.3468 c 0,1.56566 -1.2692,2.83486 -2.83484,2.83486 -1.56566,0 -2.83486,-1.2692 -2.83486,-2.83486 0,-1.56566 1.2692,-2.83485 2.83486,-2.83485 1.56564,0 2.83484,1.26919 2.83484,2.83485 z"
               id="path86"
               style="fill:#808080;fill-opacity:1;fill-rule:nonzero;stroke:none" /></g><path
             d="m 116.22208,28.3468 c 0,1.56566 -1.2692,2.83486 -2.83484,2.83486 -1.56566,0 -2.83486,-1.2692 -2.83486,-2.83486 0,-1.56566 1.2692,-2.83485 2.83486,-2.83485 1.56564,0 2.83484,1.26919 2.83484,2.83485 z"
             id="path88"
             style="fill:none;stroke:#000000;stroke-width:0.3985;stroke-linecap:butt;stroke-linejoin:miter;stroke-miterlimit:10;stroke-opacity:1;stroke-dasharray:none" /><path
             d="m 87.87483,42.5202 28.3468,0"
             id="path90"
             style="fill:none;stroke:#000000;stroke-width:0.3985;stroke-linecap:butt;stroke-linejoin:miter;stroke-miterlimit:10;stroke-opacity:1;stroke-dasharray:none" /><path
             d="m 99.21382,35.43349 5.66884,14.17341"
             id="path92"
             style="fill:none;stroke:#000000;stroke-width:0.3985;stroke-linecap:butt;stroke-linejoin:miter;stroke-miterlimit:10;stroke-opacity:1;stroke-dasharray:none" /><path
             d="m 102.04825,42.5202 0,28.3468"
             id="path94"
             style="fill:none;stroke:#000000;stroke-width:0.3985;stroke-linecap:butt;stroke-linejoin:miter;stroke-miterlimit:10;stroke-opacity:1;stroke-dasharray:none" /><g
             id="g96"><path
               d="m 104.88309,42.5202 c 0,1.56565 -1.2692,2.83486 -2.83484,2.83486 -1.56566,0 -2.83485,-1.26921 -2.83485,-2.83486 0,-1.56566 1.26919,-2.83485 2.83485,-2.83485 1.56564,0 2.83484,1.26919 2.83484,2.83485 z"
               id="path98"
               style="fill:#ffffff;fill-opacity:1;fill-rule:nonzero;stroke:none" /></g><path
             d="m 104.88309,42.5202 c 0,1.56565 -1.2692,2.83486 -2.83484,2.83486 -1.56566,0 -2.83485,-1.26921 -2.83485,-2.83486 0,-1.56566 1.26919,-2.83485 2.83485,-2.83485 1.56564,0 2.83484,1.26919 2.83484,2.83485 z"
             id="path100"
             style="fill:none;stroke:#000000;stroke-width:0.3985;stroke-linecap:butt;stroke-linejoin:miter;stroke-miterlimit:10;stroke-opacity:1;stroke-dasharray:none" /><g
             id="g102"><path
               d="m 104.88309,70.867 c 0,1.56566 -1.2692,2.83486 -2.83484,2.83486 -1.56566,0 -2.83485,-1.2692 -2.83485,-2.83486 0,-1.56564 1.26919,-2.83483 2.83485,-2.83483 1.56564,0 2.83484,1.26919 2.83484,2.83483 z"
               id="path104"
               style="fill:#808080;fill-opacity:1;fill-rule:nonzero;stroke:none" /></g><path
             d="m 104.88309,70.867 c 0,1.56566 -1.2692,2.83486 -2.83484,2.83486 -1.56566,0 -2.83485,-1.2692 -2.83485,-2.83486 0,-1.56564 1.26919,-2.83483 2.83485,-2.83483 1.56564,0 2.83484,1.26919 2.83484,2.83483 z"
             id="path106"
             style="fill:none;stroke:#000000;stroke-width:0.3985;stroke-linecap:butt;stroke-linejoin:miter;stroke-miterlimit:10;stroke-opacity:1;stroke-dasharray:none" /><path
             d="m 82.20555,28.3468 28.34682,0"
             id="path108"
             style="fill:none;stroke:#000000;stroke-width:0.3985;stroke-linecap:butt;stroke-linejoin:miter;stroke-miterlimit:10;stroke-opacity:1;stroke-dasharray:none" /><path
             d="M 93.54454,21.2601 99.2134,35.43349"
             id="path110"
             style="fill:none;stroke:#000000;stroke-width:0.3985;stroke-linecap:butt;stroke-linejoin:miter;stroke-miterlimit:10;stroke-opacity:1;stroke-dasharray:none" /><path
             d="m 96.37897,28.3468 0,28.34682"
             id="path112"
             style="fill:none;stroke:#000000;stroke-width:0.3985;stroke-linecap:butt;stroke-linejoin:miter;stroke-miterlimit:10;stroke-opacity:1;stroke-dasharray:none" /><g
             id="g114"><path
               d="m 99.21382,28.3468 c 0,1.56566 -1.26919,2.83486 -2.83485,2.83486 -1.56565,0 -2.83486,-1.2692 -2.83486,-2.83486 0,-1.56566 1.26921,-2.83485 2.83486,-2.83485 1.56566,0 2.83485,1.26919 2.83485,2.83485 z"
               id="path116"
               style="fill:#ffffff;fill-opacity:1;fill-rule:nonzero;stroke:none" /></g><path
             d="m 99.21382,28.3468 c 0,1.56566 -1.26919,2.83486 -2.83485,2.83486 -1.56565,0 -2.83486,-1.2692 -2.83486,-2.83486 0,-1.56566 1.26921,-2.83485 2.83486,-2.83485 1.56566,0 2.83485,1.26919 2.83485,2.83485 z"
             id="path118"
             style="fill:none;stroke:#000000;stroke-width:0.3985;stroke-linecap:butt;stroke-linejoin:miter;stroke-miterlimit:10;stroke-opacity:1;stroke-dasharray:none" /><g
             id="g120"><path
               d="m 99.21382,56.69362 c 0,1.56564 -1.26919,2.83484 -2.83485,2.83484 -1.56565,0 -2.83486,-1.2692 -2.83486,-2.83484 0,-1.56566 1.26921,-2.83486 2.83486,-2.83486 1.56566,0 2.83485,1.2692 2.83485,2.83486 z"
               id="path122"
               style="fill:#808080;fill-opacity:1;fill-rule:nonzero;stroke:none" /></g><path
             d="m 99.21382,56.69362 c 0,1.56564 -1.26919,2.83484 -2.83485,2.83484 -1.56565,0 -2.83486,-1.2692 -2.83486,-2.83484 0,-1.56566 1.26921,-2.83486 2.83486,-2.83486 1.56566,0 2.83485,1.2692 2.83485,2.83486 z"
             id="path124"
             style="fill:none;stroke:#000000;stroke-width:0.3985;stroke-linecap:butt;stroke-linejoin:miter;stroke-miterlimit:10;stroke-opacity:1;stroke-dasharray:none" /><path
             d="m 76.53629,14.17339 28.3468,0"
             id="path126"
             style="fill:none;stroke:#000000;stroke-width:0.3985;stroke-linecap:butt;stroke-linejoin:miter;stroke-miterlimit:10;stroke-opacity:1;stroke-dasharray:none" /><path
             d="M 87.87527,7.08669 93.5441,21.2601"
             id="path128"
             style="fill:none;stroke:#000000;stroke-width:0.3985;stroke-linecap:butt;stroke-linejoin:miter;stroke-miterlimit:10;stroke-opacity:1;stroke-dasharray:none" /><path
             d="m 90.7097,14.17339 0,28.34681"
             id="path130"
             style="fill:none;stroke:#000000;stroke-width:0.3985;stroke-linecap:butt;stroke-linejoin:miter;stroke-miterlimit:10;stroke-opacity:1;stroke-dasharray:none" /><g
             id="g132"><path
               d="m 93.54454,14.17339 c 0,1.56565 -1.2692,2.83485 -2.83484,2.83485 -1.56566,0 -2.83485,-1.2692 -2.83485,-2.83485 0,-1.56565 1.26919,-2.83484 2.83485,-2.83484 1.56564,0 2.83484,1.26919 2.83484,2.83484 z"
               id="path134"
               style="fill:#ffffff;fill-opacity:1;fill-rule:nonzero;stroke:none" /></g><path
             d="m 93.54454,14.17339 c 0,1.56565 -1.2692,2.83485 -2.83484,2.83485 -1.56566,0 -2.83485,-1.2692 -2.83485,-2.83485 0,-1.56565 1.26919,-2.83484 2.83485,-2.83484 1.56564,0 2.83484,1.26919 2.83484,2.83484 z"
             id="path136"
             style="fill:none;stroke:#000000;stroke-width:0.3985;stroke-linecap:butt;stroke-linejoin:miter;stroke-miterlimit:10;stroke-opacity:1;stroke-dasharray:none" /><g
             id="g138"><path
               d="m 93.54454,42.5202 c 0,1.56565 -1.2692,2.83486 -2.83484,2.83486 -1.56566,0 -2.83485,-1.26921 -2.83485,-2.83486 0,-1.56566 1.26919,-2.83485 2.83485,-2.83485 1.56564,0 2.83484,1.26919 2.83484,2.83485 z"
               id="path140"
               style="fill:#808080;fill-opacity:1;fill-rule:nonzero;stroke:none" /></g><path
             d="m 93.54454,42.5202 c 0,1.56565 -1.2692,2.83486 -2.83484,2.83486 -1.56566,0 -2.83485,-1.26921 -2.83485,-2.83486 0,-1.56566 1.26919,-2.83485 2.83485,-2.83485 1.56564,0 2.83484,1.26919 2.83484,2.83485 z"
             id="path142"
             style="fill:none;stroke:#000000;stroke-width:0.3985;stroke-linecap:butt;stroke-linejoin:miter;stroke-miterlimit:10;stroke-opacity:1;stroke-dasharray:none" /><path
             d="M 70.867,0 99.21382,0"
             id="path144"
             style="fill:none;stroke:#000000;stroke-width:0.3985;stroke-linecap:butt;stroke-linejoin:miter;stroke-miterlimit:10;stroke-opacity:1;stroke-dasharray:none" /><path
             d="M 82.206,-7.08669 87.87483,7.08669"
             id="path146"
             style="fill:none;stroke:#000000;stroke-width:0.3985;stroke-linecap:butt;stroke-linejoin:miter;stroke-miterlimit:10;stroke-opacity:1;stroke-dasharray:none" /><path
             d="m 85.04042,0 0,28.3468"
             id="path148"
             style="fill:none;stroke:#000000;stroke-width:0.3985;stroke-linecap:butt;stroke-linejoin:miter;stroke-miterlimit:10;stroke-opacity:1;stroke-dasharray:none" /><g
             id="g150"><path
               d="m 87.87527,0 c 0,1.56564 -1.26919,2.83484 -2.83485,2.83484 -1.56564,0 -2.83485,-1.2692 -2.83485,-2.83484 0,-1.56564 1.26921,-2.83484 2.83485,-2.83484 1.56566,0 2.83485,1.2692 2.83485,2.83484 z"
               id="path152"
               style="fill:#ffffff;fill-opacity:1;fill-rule:nonzero;stroke:none" /></g><path
             d="m 87.87527,0 c 0,1.56564 -1.26919,2.83484 -2.83485,2.83484 -1.56564,0 -2.83485,-1.2692 -2.83485,-2.83484 0,-1.56564 1.26921,-2.83484 2.83485,-2.83484 1.56566,0 2.83485,1.2692 2.83485,2.83484 z"
             id="path154"
             style="fill:none;stroke:#000000;stroke-width:0.3985;stroke-linecap:butt;stroke-linejoin:miter;stroke-miterlimit:10;stroke-opacity:1;stroke-dasharray:none" /><g
             id="g156"><path
               d="m 87.87527,28.3468 c 0,1.56566 -1.26919,2.83486 -2.83485,2.83486 -1.56564,0 -2.83485,-1.2692 -2.83485,-2.83486 0,-1.56566 1.26921,-2.83485 2.83485,-2.83485 1.56566,0 2.83485,1.26919 2.83485,2.83485 z"
               id="path158"
               style="fill:#808080;fill-opacity:1;fill-rule:nonzero;stroke:none" /></g><path
             d="m 87.87527,28.3468 c 0,1.56566 -1.26919,2.83486 -2.83485,2.83486 -1.56564,0 -2.83485,-1.2692 -2.83485,-2.83486 0,-1.56566 1.26921,-2.83485 2.83485,-2.83485 1.56566,0 2.83485,1.26919 2.83485,2.83485 z"
             id="path160"
             style="fill:none;stroke:#000000;stroke-width:0.3985;stroke-linecap:butt;stroke-linejoin:miter;stroke-miterlimit:10;stroke-opacity:1;stroke-dasharray:none" /><path
             d="m 59.52802,42.5202 28.34681,0"
             id="path162"
             style="fill:none;stroke:#000000;stroke-width:0.3985;stroke-linecap:butt;stroke-linejoin:miter;stroke-miterlimit:10;stroke-opacity:1;stroke-dasharray:none" /><path
             d="M 70.867,35.43349 76.53586,49.6069"
             id="path164"
             style="fill:none;stroke:#000000;stroke-width:0.3985;stroke-linecap:butt;stroke-linejoin:miter;stroke-miterlimit:10;stroke-opacity:1;stroke-dasharray:none" /><path
             d="m 73.70143,42.5202 0,28.3468"
             id="path166"
             style="fill:none;stroke:#000000;stroke-width:0.3985;stroke-linecap:butt;stroke-linejoin:miter;stroke-miterlimit:10;stroke-opacity:1;stroke-dasharray:none" /><g
             id="g168"><path
               d="m 76.53629,42.5202 c 0,1.56565 -1.2692,2.83486 -2.83486,2.83486 -1.56564,0 -2.83485,-1.26921 -2.83485,-2.83486 0,-1.56566 1.26921,-2.83485 2.83485,-2.83485 1.56566,0 2.83486,1.26919 2.83486,2.83485 z"
               id="path170"
               style="fill:#ffffff;fill-opacity:1;fill-rule:nonzero;stroke:none" /></g><path
             d="m 76.53629,42.5202 c 0,1.56565 -1.2692,2.83486 -2.83486,2.83486 -1.56564,0 -2.83485,-1.26921 -2.83485,-2.83486 0,-1.56566 1.26921,-2.83485 2.83485,-2.83485 1.56566,0 2.83486,1.26919 2.83486,2.83485 z"
             id="path172"
             style="fill:none;stroke:#000000;stroke-width:0.3985;stroke-linecap:butt;stroke-linejoin:miter;stroke-miterlimit:10;stroke-opacity:1;stroke-dasharray:none" /><g
             id="g174"><path
               d="m 76.53629,70.867 c 0,1.56566 -1.2692,2.83486 -2.83486,2.83486 -1.56564,0 -2.83485,-1.2692 -2.83485,-2.83486 0,-1.56564 1.26921,-2.83483 2.83485,-2.83483 1.56566,0 2.83486,1.26919 2.83486,2.83483 z"
               id="path176"
               style="fill:#808080;fill-opacity:1;fill-rule:nonzero;stroke:none" /></g><path
             d="m 76.53629,70.867 c 0,1.56566 -1.2692,2.83486 -2.83486,2.83486 -1.56564,0 -2.83485,-1.2692 -2.83485,-2.83486 0,-1.56564 1.26921,-2.83483 2.83485,-2.83483 1.56566,0 2.83486,1.26919 2.83486,2.83483 z"
             id="path178"
             style="fill:none;stroke:#000000;stroke-width:0.3985;stroke-linecap:butt;stroke-linejoin:miter;stroke-miterlimit:10;stroke-opacity:1;stroke-dasharray:none" /><path
             d="m 53.85875,28.3468 28.3468,0"
             id="path180"
             style="fill:none;stroke:#000000;stroke-width:0.3985;stroke-linecap:butt;stroke-linejoin:miter;stroke-miterlimit:10;stroke-opacity:1;stroke-dasharray:none" /><path
             d="m 65.19774,21.2601 5.66884,14.17339"
             id="path182"
             style="fill:none;stroke:#000000;stroke-width:0.3985;stroke-linecap:butt;stroke-linejoin:miter;stroke-miterlimit:10;stroke-opacity:1;stroke-dasharray:none" /><path
             d="m 68.03217,28.3468 0,28.34682"
             id="path184"
             style="fill:none;stroke:#000000;stroke-width:0.3985;stroke-linecap:butt;stroke-linejoin:miter;stroke-miterlimit:10;stroke-opacity:1;stroke-dasharray:none" /><g
             id="g186"><path
               d="m 70.867,28.3468 c 0,1.56566 -1.26919,2.83486 -2.83483,2.83486 -1.56567,0 -2.83486,-1.2692 -2.83486,-2.83486 0,-1.56566 1.26919,-2.83485 2.83486,-2.83485 1.56564,0 2.83483,1.26919 2.83483,2.83485 z"
               id="path188"
               style="fill:#ffffff;fill-opacity:1;fill-rule:nonzero;stroke:none" /></g><path
             d="m 70.867,28.3468 c 0,1.56566 -1.26919,2.83486 -2.83483,2.83486 -1.56567,0 -2.83486,-1.2692 -2.83486,-2.83486 0,-1.56566 1.26919,-2.83485 2.83486,-2.83485 1.56564,0 2.83483,1.26919 2.83483,2.83485 z"
             id="path190"
             style="fill:none;stroke:#000000;stroke-width:0.3985;stroke-linecap:butt;stroke-linejoin:miter;stroke-miterlimit:10;stroke-opacity:1;stroke-dasharray:none" /><g
             id="g192"><path
               d="m 70.867,56.69362 c 0,1.56564 -1.26919,2.83484 -2.83483,2.83484 -1.56567,0 -2.83486,-1.2692 -2.83486,-2.83484 0,-1.56566 1.26919,-2.83486 2.83486,-2.83486 1.56564,0 2.83483,1.2692 2.83483,2.83486 z"
               id="path194"
               style="fill:#808080;fill-opacity:1;fill-rule:nonzero;stroke:none" /></g><path
             d="m 70.867,56.69362 c 0,1.56564 -1.26919,2.83484 -2.83483,2.83484 -1.56567,0 -2.83486,-1.2692 -2.83486,-2.83484 0,-1.56566 1.26919,-2.83486 2.83486,-2.83486 1.56564,0 2.83483,1.2692 2.83483,2.83486 z"
             id="path196"
             style="fill:none;stroke:#000000;stroke-width:0.3985;stroke-linecap:butt;stroke-linejoin:miter;stroke-miterlimit:10;stroke-opacity:1;stroke-dasharray:none" /><path
             d="m 48.18947,14.17339 28.34682,0"
             id="path198"
             style="fill:none;stroke:#000000;stroke-width:0.3985;stroke-linecap:butt;stroke-linejoin:miter;stroke-miterlimit:10;stroke-opacity:1;stroke-dasharray:none" /><path
             d="M 59.52846,7.08669 65.1973,21.2601"
             id="path200"
             style="fill:none;stroke:#000000;stroke-width:0.3985;stroke-linecap:butt;stroke-linejoin:miter;stroke-miterlimit:10;stroke-opacity:1;stroke-dasharray:none" /><path
             d="m 62.36288,14.17339 0,28.34681"
             id="path202"
             style="fill:none;stroke:#000000;stroke-width:0.3985;stroke-linecap:butt;stroke-linejoin:miter;stroke-miterlimit:10;stroke-opacity:1;stroke-dasharray:none" /><g
             id="g204"><path
               d="m 65.19774,14.17339 c 0,1.56565 -1.2692,2.83485 -2.83486,2.83485 -1.56564,0 -2.83485,-1.2692 -2.83485,-2.83485 0,-1.56565 1.26921,-2.83484 2.83485,-2.83484 1.56566,0 2.83486,1.26919 2.83486,2.83484 z"
               id="path206"
               style="fill:#ffffff;fill-opacity:1;fill-rule:nonzero;stroke:none" /></g><path
             d="m 65.19774,14.17339 c 0,1.56565 -1.2692,2.83485 -2.83486,2.83485 -1.56564,0 -2.83485,-1.2692 -2.83485,-2.83485 0,-1.56565 1.26921,-2.83484 2.83485,-2.83484 1.56566,0 2.83486,1.26919 2.83486,2.83484 z"
             id="path208"
             style="fill:none;stroke:#000000;stroke-width:0.3985;stroke-linecap:butt;stroke-linejoin:miter;stroke-miterlimit:10;stroke-opacity:1;stroke-dasharray:none" /><g
             id="g210"><path
               d="m 65.19774,42.5202 c 0,1.56565 -1.2692,2.83486 -2.83486,2.83486 -1.56564,0 -2.83485,-1.26921 -2.83485,-2.83486 0,-1.56566 1.26921,-2.83485 2.83485,-2.83485 1.56566,0 2.83486,1.26919 2.83486,2.83485 z"
               id="path212"
               style="fill:#808080;fill-opacity:1;fill-rule:nonzero;stroke:none" /></g><path
             d="m 65.19774,42.5202 c 0,1.56565 -1.2692,2.83486 -2.83486,2.83486 -1.56564,0 -2.83485,-1.26921 -2.83485,-2.83486 0,-1.56566 1.26921,-2.83485 2.83485,-2.83485 1.56566,0 2.83486,1.26919 2.83486,2.83485 z"
             id="path214"
             style="fill:none;stroke:#000000;stroke-width:0.3985;stroke-linecap:butt;stroke-linejoin:miter;stroke-miterlimit:10;stroke-opacity:1;stroke-dasharray:none" /><path
             d="M 42.5202,0 70.867,0"
             id="path216"
             style="fill:none;stroke:#000000;stroke-width:0.3985;stroke-linecap:butt;stroke-linejoin:miter;stroke-miterlimit:10;stroke-opacity:1;stroke-dasharray:none" /><path
             d="M 53.85919,-7.08669 59.52802,7.08669"
             id="path218"
             style="fill:none;stroke:#000000;stroke-width:0.3985;stroke-linecap:butt;stroke-linejoin:miter;stroke-miterlimit:10;stroke-opacity:1;stroke-dasharray:none" /><path
             d="m 56.69362,0 0,28.3468"
             id="path220"
             style="fill:none;stroke:#000000;stroke-width:0.3985;stroke-linecap:butt;stroke-linejoin:miter;stroke-miterlimit:10;stroke-opacity:1;stroke-dasharray:none" /><g
             id="g222"><path
               d="m 59.52846,0 c 0,1.56564 -1.2692,2.83484 -2.83484,2.83484 -1.56566,0 -2.83486,-1.2692 -2.83486,-2.83484 0,-1.56564 1.2692,-2.83484 2.83486,-2.83484 1.56564,0 2.83484,1.2692 2.83484,2.83484 z"
               id="path224"
               style="fill:#ffffff;fill-opacity:1;fill-rule:nonzero;stroke:none" /></g><path
             d="m 59.52846,0 c 0,1.56564 -1.2692,2.83484 -2.83484,2.83484 -1.56566,0 -2.83486,-1.2692 -2.83486,-2.83484 0,-1.56564 1.2692,-2.83484 2.83486,-2.83484 1.56564,0 2.83484,1.2692 2.83484,2.83484 z"
             id="path226"
             style="fill:none;stroke:#000000;stroke-width:0.3985;stroke-linecap:butt;stroke-linejoin:miter;stroke-miterlimit:10;stroke-opacity:1;stroke-dasharray:none" /><g
             id="g228"><path
               d="m 59.52846,28.3468 c 0,1.56566 -1.2692,2.83486 -2.83484,2.83486 -1.56566,0 -2.83486,-1.2692 -2.83486,-2.83486 0,-1.56566 1.2692,-2.83485 2.83486,-2.83485 1.56564,0 2.83484,1.26919 2.83484,2.83485 z"
               id="path230"
               style="fill:#808080;fill-opacity:1;fill-rule:nonzero;stroke:none" /></g><path
             d="m 59.52846,28.3468 c 0,1.56566 -1.2692,2.83486 -2.83484,2.83486 -1.56566,0 -2.83486,-1.2692 -2.83486,-2.83486 0,-1.56566 1.2692,-2.83485 2.83486,-2.83485 1.56564,0 2.83484,1.26919 2.83484,2.83485 z"
             id="path232"
             style="fill:none;stroke:#000000;stroke-width:0.3985;stroke-linecap:butt;stroke-linejoin:miter;stroke-miterlimit:10;stroke-opacity:1;stroke-dasharray:none" /><path
             d="m 31.18121,42.5202 28.34681,0"
             id="path234"
             style="fill:none;stroke:#000000;stroke-width:0.3985;stroke-linecap:butt;stroke-linejoin:miter;stroke-miterlimit:10;stroke-opacity:1;stroke-dasharray:none" /><path
             d="M 42.5202,35.43349 48.18904,49.6069"
             id="path236"
             style="fill:none;stroke:#000000;stroke-width:0.3985;stroke-linecap:butt;stroke-linejoin:miter;stroke-miterlimit:10;stroke-opacity:1;stroke-dasharray:none" /><path
             d="m 45.35463,42.5202 0,28.3468"
             id="path238"
             style="fill:none;stroke:#000000;stroke-width:0.3985;stroke-linecap:butt;stroke-linejoin:miter;stroke-miterlimit:10;stroke-opacity:1;stroke-dasharray:none" /><g
             id="g240"><path
               d="m 48.18947,42.5202 c 0,1.56565 -1.2692,2.83486 -2.83484,2.83486 -1.56566,0 -2.83485,-1.26921 -2.83485,-2.83486 0,-1.56566 1.26919,-2.83485 2.83485,-2.83485 1.56564,0 2.83484,1.26919 2.83484,2.83485 z"
               id="path242"
               style="fill:#ffffff;fill-opacity:1;fill-rule:nonzero;stroke:none" /></g><path
             d="m 48.18947,42.5202 c 0,1.56565 -1.2692,2.83486 -2.83484,2.83486 -1.56566,0 -2.83485,-1.26921 -2.83485,-2.83486 0,-1.56566 1.26919,-2.83485 2.83485,-2.83485 1.56564,0 2.83484,1.26919 2.83484,2.83485 z"
             id="path244"
             style="fill:none;stroke:#000000;stroke-width:0.3985;stroke-linecap:butt;stroke-linejoin:miter;stroke-miterlimit:10;stroke-opacity:1;stroke-dasharray:none" /><g
             id="g246"><path
               d="m 48.18947,70.867 c 0,1.56566 -1.2692,2.83486 -2.83484,2.83486 -1.56566,0 -2.83485,-1.2692 -2.83485,-2.83486 0,-1.56564 1.26919,-2.83483 2.83485,-2.83483 1.56564,0 2.83484,1.26919 2.83484,2.83483 z"
               id="path248"
               style="fill:#808080;fill-opacity:1;fill-rule:nonzero;stroke:none" /></g><path
             d="m 48.18947,70.867 c 0,1.56566 -1.2692,2.83486 -2.83484,2.83486 -1.56566,0 -2.83485,-1.2692 -2.83485,-2.83486 0,-1.56564 1.26919,-2.83483 2.83485,-2.83483 1.56564,0 2.83484,1.26919 2.83484,2.83483 z"
             id="path250"
             style="fill:none;stroke:#000000;stroke-width:0.3985;stroke-linecap:butt;stroke-linejoin:miter;stroke-miterlimit:10;stroke-opacity:1;stroke-dasharray:none" /><path
             d="m 25.51193,28.3468 28.34682,0"
             id="path252"
             style="fill:none;stroke:#000000;stroke-width:0.3985;stroke-linecap:butt;stroke-linejoin:miter;stroke-miterlimit:10;stroke-opacity:1;stroke-dasharray:none" /><path
             d="m 36.85092,21.2601 5.66886,14.17339"
             id="path254"
             style="fill:none;stroke:#000000;stroke-width:0.3985;stroke-linecap:butt;stroke-linejoin:miter;stroke-miterlimit:10;stroke-opacity:1;stroke-dasharray:none" /><path
             d="m 39.68535,28.3468 0,28.34682"
             id="path256"
             style="fill:none;stroke:#000000;stroke-width:0.3985;stroke-linecap:butt;stroke-linejoin:miter;stroke-miterlimit:10;stroke-opacity:1;stroke-dasharray:none" /><g
             id="g258"><path
               d="m 42.5202,28.3468 c 0,1.56566 -1.2692,2.83486 -2.83485,2.83486 -1.56565,0 -2.83485,-1.2692 -2.83485,-2.83486 0,-1.56566 1.2692,-2.83485 2.83485,-2.83485 1.56565,0 2.83485,1.26919 2.83485,2.83485 z"
               id="path260"
               style="fill:#ffffff;fill-opacity:1;fill-rule:nonzero;stroke:none" /></g><path
             d="m 42.5202,28.3468 c 0,1.56566 -1.2692,2.83486 -2.83485,2.83486 -1.56565,0 -2.83485,-1.2692 -2.83485,-2.83486 0,-1.56566 1.2692,-2.83485 2.83485,-2.83485 1.56565,0 2.83485,1.26919 2.83485,2.83485 z"
             id="path262"
             style="fill:none;stroke:#000000;stroke-width:0.3985;stroke-linecap:butt;stroke-linejoin:miter;stroke-miterlimit:10;stroke-opacity:1;stroke-dasharray:none" /><g
             id="g264"><path
               d="m 42.5202,56.69362 c 0,1.56564 -1.2692,2.83484 -2.83485,2.83484 -1.56565,0 -2.83485,-1.2692 -2.83485,-2.83484 0,-1.56566 1.2692,-2.83486 2.83485,-2.83486 1.56565,0 2.83485,1.2692 2.83485,2.83486 z"
               id="path266"
               style="fill:#808080;fill-opacity:1;fill-rule:nonzero;stroke:none" /></g><path
             d="m 42.5202,56.69362 c 0,1.56564 -1.2692,2.83484 -2.83485,2.83484 -1.56565,0 -2.83485,-1.2692 -2.83485,-2.83484 0,-1.56566 1.2692,-2.83486 2.83485,-2.83486 1.56565,0 2.83485,1.2692 2.83485,2.83486 z"
             id="path268"
             style="fill:none;stroke:#000000;stroke-width:0.3985;stroke-linecap:butt;stroke-linejoin:miter;stroke-miterlimit:10;stroke-opacity:1;stroke-dasharray:none" /><path
             d="m 19.84267,14.17339 28.3468,0"
             id="path270"
             style="fill:none;stroke:#000000;stroke-width:0.3985;stroke-linecap:butt;stroke-linejoin:miter;stroke-miterlimit:10;stroke-opacity:1;stroke-dasharray:none" /><path
             d="M 31.18166,7.08669 36.85048,21.2601"
             id="path272"
             style="fill:none;stroke:#000000;stroke-width:0.3985;stroke-linecap:butt;stroke-linejoin:miter;stroke-miterlimit:10;stroke-opacity:1;stroke-dasharray:none" /><path
             d="m 34.01608,14.17339 0,28.34681"
             id="path274"
             style="fill:none;stroke:#000000;stroke-width:0.3985;stroke-linecap:butt;stroke-linejoin:miter;stroke-miterlimit:10;stroke-opacity:1;stroke-dasharray:none" /><g
             id="g276"><path
               d="m 36.85092,14.17339 c 0,1.56565 -1.26919,2.83485 -2.83484,2.83485 -1.56566,0 -2.83485,-1.2692 -2.83485,-2.83485 0,-1.56565 1.26919,-2.83484 2.83485,-2.83484 1.56565,0 2.83484,1.26919 2.83484,2.83484 z"
               id="path278"
               style="fill:#ffffff;fill-opacity:1;fill-rule:nonzero;stroke:none" /></g><path
             d="m 36.85092,14.17339 c 0,1.56565 -1.26919,2.83485 -2.83484,2.83485 -1.56566,0 -2.83485,-1.2692 -2.83485,-2.83485 0,-1.56565 1.26919,-2.83484 2.83485,-2.83484 1.56565,0 2.83484,1.26919 2.83484,2.83484 z"
             id="path280"
             style="fill:none;stroke:#000000;stroke-width:0.3985;stroke-linecap:butt;stroke-linejoin:miter;stroke-miterlimit:10;stroke-opacity:1;stroke-dasharray:none" /><g
             id="g282"><path
               d="m 36.85092,42.5202 c 0,1.56565 -1.26919,2.83486 -2.83484,2.83486 -1.56566,0 -2.83485,-1.26921 -2.83485,-2.83486 0,-1.56566 1.26919,-2.83485 2.83485,-2.83485 1.56565,0 2.83484,1.26919 2.83484,2.83485 z"
               id="path284"
               style="fill:#808080;fill-opacity:1;fill-rule:nonzero;stroke:none" /></g><path
             d="m 36.85092,42.5202 c 0,1.56565 -1.26919,2.83486 -2.83484,2.83486 -1.56566,0 -2.83485,-1.26921 -2.83485,-2.83486 0,-1.56566 1.26919,-2.83485 2.83485,-2.83485 1.56565,0 2.83484,1.26919 2.83484,2.83485 z"
             id="path286"
             style="fill:none;stroke:#000000;stroke-width:0.3985;stroke-linecap:butt;stroke-linejoin:miter;stroke-miterlimit:10;stroke-opacity:1;stroke-dasharray:none" /><path
             d="M 14.17339,0 42.5202,0"
             id="path288"
             style="fill:none;stroke:#000000;stroke-width:0.3985;stroke-linecap:butt;stroke-linejoin:miter;stroke-miterlimit:10;stroke-opacity:1;stroke-dasharray:none" /><path
             d="M 25.51237,-7.08669 31.18121,7.08669"
             id="path290"
             style="fill:none;stroke:#000000;stroke-width:0.3985;stroke-linecap:butt;stroke-linejoin:miter;stroke-miterlimit:10;stroke-opacity:1;stroke-dasharray:none" /><path
             d="m 28.3468,0 0,28.3468"
             id="path292"
             style="fill:none;stroke:#000000;stroke-width:0.3985;stroke-linecap:butt;stroke-linejoin:miter;stroke-miterlimit:10;stroke-opacity:1;stroke-dasharray:none" /><g
             id="g294"><path
               d="m 31.18166,0 c 0,1.56564 -1.2692,2.83484 -2.83486,2.83484 -1.56566,0 -2.83485,-1.2692 -2.83485,-2.83484 0,-1.56564 1.26919,-2.83484 2.83485,-2.83484 1.56566,0 2.83486,1.2692 2.83486,2.83484 z"
               id="path296"
               style="fill:#ffffff;fill-opacity:1;fill-rule:nonzero;stroke:none" /></g><path
             d="m 31.18166,0 c 0,1.56564 -1.2692,2.83484 -2.83486,2.83484 -1.56566,0 -2.83485,-1.2692 -2.83485,-2.83484 0,-1.56564 1.26919,-2.83484 2.83485,-2.83484 1.56566,0 2.83486,1.2692 2.83486,2.83484 z"
             id="path298"
             style="fill:none;stroke:#000000;stroke-width:0.3985;stroke-linecap:butt;stroke-linejoin:miter;stroke-miterlimit:10;stroke-opacity:1;stroke-dasharray:none" /><g
             id="g300"><path
               d="m 31.18166,28.3468 c 0,1.56566 -1.2692,2.83486 -2.83486,2.83486 -1.56566,0 -2.83485,-1.2692 -2.83485,-2.83486 0,-1.56566 1.26919,-2.83485 2.83485,-2.83485 1.56566,0 2.83486,1.26919 2.83486,2.83485 z"
               id="path302"
               style="fill:#808080;fill-opacity:1;fill-rule:nonzero;stroke:none" /></g><path
             d="m 31.18166,28.3468 c 0,1.56566 -1.2692,2.83486 -2.83486,2.83486 -1.56566,0 -2.83485,-1.2692 -2.83485,-2.83486 0,-1.56566 1.26919,-2.83485 2.83485,-2.83485 1.56566,0 2.83486,1.26919 2.83486,2.83485 z"
             id="path304"
             style="fill:none;stroke:#000000;stroke-width:0.3985;stroke-linecap:butt;stroke-linejoin:miter;stroke-miterlimit:10;stroke-opacity:1;stroke-dasharray:none" /><path
             d="m 2.8344,42.5202 28.34681,0"
             id="path306"
             style="fill:none;stroke:#000000;stroke-width:0.3985;stroke-linecap:butt;stroke-linejoin:miter;stroke-miterlimit:10;stroke-opacity:1;stroke-dasharray:none" /><path
             d="M 14.17339,35.43349 19.84224,49.6069"
             id="path308"
             style="fill:none;stroke:#000000;stroke-width:0.3985;stroke-linecap:butt;stroke-linejoin:miter;stroke-miterlimit:10;stroke-opacity:1;stroke-dasharray:none" /><path
             d="m 17.00781,42.5202 0,28.3468"
             id="path310"
             style="fill:none;stroke:#000000;stroke-width:0.3985;stroke-linecap:butt;stroke-linejoin:miter;stroke-miterlimit:10;stroke-opacity:1;stroke-dasharray:none" /><g
             id="g312"><path
               d="m 19.84267,42.5202 c 0,1.56565 -1.2692,2.83486 -2.83486,2.83486 -1.56564,0 -2.83485,-1.26921 -2.83485,-2.83486 0,-1.56566 1.26921,-2.83485 2.83485,-2.83485 1.56566,0 2.83486,1.26919 2.83486,2.83485 z"
               id="path314"
               style="fill:#ffffff;fill-opacity:1;fill-rule:nonzero;stroke:none" /></g><path
             d="m 19.84267,42.5202 c 0,1.56565 -1.2692,2.83486 -2.83486,2.83486 -1.56564,0 -2.83485,-1.26921 -2.83485,-2.83486 0,-1.56566 1.26921,-2.83485 2.83485,-2.83485 1.56566,0 2.83486,1.26919 2.83486,2.83485 z"
             id="path316"
             style="fill:none;stroke:#000000;stroke-width:0.3985;stroke-linecap:butt;stroke-linejoin:miter;stroke-miterlimit:10;stroke-opacity:1;stroke-dasharray:none" /><g
             id="g318"><path
               d="m 19.84267,70.867 c 0,1.56566 -1.2692,2.83486 -2.83486,2.83486 -1.56564,0 -2.83485,-1.2692 -2.83485,-2.83486 0,-1.56564 1.26921,-2.83483 2.83485,-2.83483 1.56566,0 2.83486,1.26919 2.83486,2.83483 z"
               id="path320"
               style="fill:#808080;fill-opacity:1;fill-rule:nonzero;stroke:none" /></g><path
             d="m 19.84267,70.867 c 0,1.56566 -1.2692,2.83486 -2.83486,2.83486 -1.56564,0 -2.83485,-1.2692 -2.83485,-2.83486 0,-1.56564 1.26921,-2.83483 2.83485,-2.83483 1.56566,0 2.83486,1.26919 2.83486,2.83483 z"
             id="path322"
             style="fill:none;stroke:#000000;stroke-width:0.3985;stroke-linecap:butt;stroke-linejoin:miter;stroke-miterlimit:10;stroke-opacity:1;stroke-dasharray:none" /><path
             d="m -2.83484,28.3468 28.34677,0"
             id="path324"
             style="fill:none;stroke:#000000;stroke-width:0.3985;stroke-linecap:butt;stroke-linejoin:miter;stroke-miterlimit:10;stroke-opacity:1;stroke-dasharray:none" /><path
             d="m 8.50412,21.2601 5.66884,14.17339"
             id="path326"
             style="fill:none;stroke:#000000;stroke-width:0.3985;stroke-linecap:butt;stroke-linejoin:miter;stroke-miterlimit:10;stroke-opacity:1;stroke-dasharray:none" /><path
             d="m 11.33855,28.3468 0,28.34682"
             id="path328"
             style="fill:none;stroke:#000000;stroke-width:0.3985;stroke-linecap:butt;stroke-linejoin:miter;stroke-miterlimit:10;stroke-opacity:1;stroke-dasharray:none" /><g
             id="g330"><path
               d="m 14.17339,28.3468 c 0,1.56566 -1.2692,2.83486 -2.83484,2.83486 -1.56566,0 -2.83485,-1.2692 -2.83485,-2.83486 0,-1.56566 1.26919,-2.83485 2.83485,-2.83485 1.56564,0 2.83484,1.26919 2.83484,2.83485 z"
               id="path332"
               style="fill:#ffffff;fill-opacity:1;fill-rule:nonzero;stroke:none" /></g><path
             d="m 14.17339,28.3468 c 0,1.56566 -1.2692,2.83486 -2.83484,2.83486 -1.56566,0 -2.83485,-1.2692 -2.83485,-2.83486 0,-1.56566 1.26919,-2.83485 2.83485,-2.83485 1.56564,0 2.83484,1.26919 2.83484,2.83485 z"
             id="path334"
             style="fill:none;stroke:#000000;stroke-width:0.3985;stroke-linecap:butt;stroke-linejoin:miter;stroke-miterlimit:10;stroke-opacity:1;stroke-dasharray:none" /><g
             id="g336"><path
               d="m 14.17339,56.69362 c 0,1.56564 -1.2692,2.83484 -2.83484,2.83484 -1.56566,0 -2.83485,-1.2692 -2.83485,-2.83484 0,-1.56566 1.26919,-2.83486 2.83485,-2.83486 1.56564,0 2.83484,1.2692 2.83484,2.83486 z"
               id="path338"
               style="fill:#808080;fill-opacity:1;fill-rule:nonzero;stroke:none" /></g><path
             d="m 14.17339,56.69362 c 0,1.56564 -1.2692,2.83484 -2.83484,2.83484 -1.56566,0 -2.83485,-1.2692 -2.83485,-2.83484 0,-1.56566 1.26919,-2.83486 2.83485,-2.83486 1.56564,0 2.83484,1.2692 2.83484,2.83486 z"
             id="path340"
             style="fill:none;stroke:#000000;stroke-width:0.3985;stroke-linecap:butt;stroke-linejoin:miter;stroke-miterlimit:10;stroke-opacity:1;stroke-dasharray:none" /><path
             d="m -8.50412,14.17339 28.34679,0"
             id="path342"
             style="fill:none;stroke:#000000;stroke-width:0.3985;stroke-linecap:butt;stroke-linejoin:miter;stroke-miterlimit:10;stroke-opacity:1;stroke-dasharray:none" /><path
             d="M 2.83484,7.08669 8.50368,21.2601"
             id="path344"
             style="fill:none;stroke:#000000;stroke-width:0.3985;stroke-linecap:butt;stroke-linejoin:miter;stroke-miterlimit:10;stroke-opacity:1;stroke-dasharray:none" /><path
             d="m 5.66927,14.17339 0,28.34681"
             id="path346"
             style="fill:none;stroke:#000000;stroke-width:0.3985;stroke-linecap:butt;stroke-linejoin:miter;stroke-miterlimit:10;stroke-opacity:1;stroke-dasharray:none" /><g
             id="g348"><path
               d="m 8.50412,14.17339 c 0,1.56565 -1.2692,2.83485 -2.83485,2.83485 -1.56567,0 -2.83486,-1.2692 -2.83486,-2.83485 0,-1.56565 1.26919,-2.83484 2.83486,-2.83484 1.56565,0 2.83485,1.26919 2.83485,2.83484 z"
               id="path350"
               style="fill:#ffffff;fill-opacity:1;fill-rule:nonzero;stroke:none" /></g><path
             d="m 8.50412,14.17339 c 0,1.56565 -1.2692,2.83485 -2.83485,2.83485 -1.56567,0 -2.83486,-1.2692 -2.83486,-2.83485 0,-1.56565 1.26919,-2.83484 2.83486,-2.83484 1.56565,0 2.83485,1.26919 2.83485,2.83484 z"
             id="path352"
             style="fill:none;stroke:#000000;stroke-width:0.3985;stroke-linecap:butt;stroke-linejoin:miter;stroke-miterlimit:10;stroke-opacity:1;stroke-dasharray:none" /><g
             id="g354"><path
               d="m 8.50412,42.5202 c 0,1.56565 -1.2692,2.83486 -2.83485,2.83486 -1.56567,0 -2.83486,-1.26921 -2.83486,-2.83486 0,-1.56566 1.26919,-2.83485 2.83486,-2.83485 1.56565,0 2.83485,1.26919 2.83485,2.83485 z"
               id="path356"
               style="fill:#808080;fill-opacity:1;fill-rule:nonzero;stroke:none" /></g><path
             d="m 8.50412,42.5202 c 0,1.56565 -1.2692,2.83486 -2.83485,2.83486 -1.56567,0 -2.83486,-1.26921 -2.83486,-2.83486 0,-1.56566 1.26919,-2.83485 2.83486,-2.83485 1.56565,0 2.83485,1.26919 2.83485,2.83485 z"
             id="path358"
             style="fill:none;stroke:#000000;stroke-width:0.3985;stroke-linecap:butt;stroke-linejoin:miter;stroke-miterlimit:10;stroke-opacity:1;stroke-dasharray:none" /><path
             d="M -14.17339,0 14.17339,0"
             id="path360"
             style="fill:none;stroke:#000000;stroke-width:0.3985;stroke-linecap:butt;stroke-linejoin:miter;stroke-miterlimit:10;stroke-opacity:1;stroke-dasharray:none" /><path
             d="M -2.8344,-7.08669 2.8344,7.08669"
             id="path362"
             style="fill:none;stroke:#000000;stroke-width:0.3985;stroke-linecap:butt;stroke-linejoin:miter;stroke-miterlimit:10;stroke-opacity:1;stroke-dasharray:none" /><path
             d="M 0,0 0,28.3468"
             id="path364"
             style="fill:none;stroke:#000000;stroke-width:0.3985;stroke-linecap:butt;stroke-linejoin:miter;stroke-miterlimit:10;stroke-opacity:1;stroke-dasharray:none" /><g
             id="g366"><path
               d="m 2.83484,0 c 0,1.56564 -1.2692,2.83484 -2.83484,2.83484 -1.56564,0 -2.83484,-1.2692 -2.83484,-2.83484 0,-1.56564 1.2692,-2.83484 2.83484,-2.83484 1.56564,0 2.83484,1.2692 2.83484,2.83484 z"
               id="path368"
               style="fill:#ffffff;fill-opacity:1;fill-rule:nonzero;stroke:none" /></g><path
             d="m 2.83484,0 c 0,1.56564 -1.2692,2.83484 -2.83484,2.83484 -1.56564,0 -2.83484,-1.2692 -2.83484,-2.83484 0,-1.56564 1.2692,-2.83484 2.83484,-2.83484 1.56564,0 2.83484,1.2692 2.83484,2.83484 z"
             id="path370"
             style="fill:none;stroke:#000000;stroke-width:0.3985;stroke-linecap:butt;stroke-linejoin:miter;stroke-miterlimit:10;stroke-opacity:1;stroke-dasharray:none" /><g
             id="g372"><path
               d="m 2.83484,28.3468 c 0,1.56566 -1.2692,2.83486 -2.83484,2.83486 -1.56564,0 -2.83484,-1.2692 -2.83484,-2.83486 0,-1.56566 1.2692,-2.83485 2.83484,-2.83485 1.56564,0 2.83484,1.26919 2.83484,2.83485 z"
               id="path374"
               style="fill:#808080;fill-opacity:1;fill-rule:nonzero;stroke:none" /></g><path
             d="m 2.83484,28.3468 c 0,1.56566 -1.2692,2.83486 -2.83484,2.83486 -1.56564,0 -2.83484,-1.2692 -2.83484,-2.83486 0,-1.56566 1.2692,-2.83485 2.83484,-2.83485 1.56564,0 2.83484,1.26919 2.83484,2.83485 z"
             id="path376"
             style="fill:none;stroke:#000000;stroke-width:0.3985;stroke-linecap:butt;stroke-linejoin:miter;stroke-miterlimit:10;stroke-opacity:1;stroke-dasharray:none" /></g></g></g></g></svg>